<?xml version="1.0" encoding="UTF-8"?>
<!--Generator: Apple Native CoreSVG 175.5-->
<!DOCTYPE svg
PUBLIC "-//W3C//DTD SVG 1.1//EN"
       "http://www.w3.org/Graphics/SVG/1.1/DTD/svg11.dtd">
<svg version="1.1" xmlns="http://www.w3.org/2000/svg" xmlns:xlink="http://www.w3.org/1999/xlink" width="3300" height="2200">
 <!--glyph: "", point size: 100.0, font version: "18.0d12e2", template writer version: "101"-->
 <g id="Notes">
  <rect height="2200" id="artboard" style="fill:white;opacity:1" width="3300" x="0" y="0"/>
  <line style="fill:none;stroke:black;opacity:1;stroke-width:0.5;" x1="263" x2="3036" y1="292" y2="292"/>
  <text style="stroke:none;fill:black;font-family:sans-serif;font-size:13;font-weight:bold;" transform="matrix(1 0 0 1 263 322)">Weight/Scale Variations</text>
  <text style="stroke:none;fill:black;font-family:sans-serif;font-size:13;text-anchor:middle;" transform="matrix(1 0 0 1 559.711 322)">Ultralight</text>
  <text style="stroke:none;fill:black;font-family:sans-serif;font-size:13;text-anchor:middle;" transform="matrix(1 0 0 1 856.422 322)">Thin</text>
  <text style="stroke:none;fill:black;font-family:sans-serif;font-size:13;text-anchor:middle;" transform="matrix(1 0 0 1 1153.13 322)">Light</text>
  <text style="stroke:none;fill:black;font-family:sans-serif;font-size:13;text-anchor:middle;" transform="matrix(1 0 0 1 1449.84 322)">Regular</text>
  <text style="stroke:none;fill:black;font-family:sans-serif;font-size:13;text-anchor:middle;" transform="matrix(1 0 0 1 1746.56 322)">Medium</text>
  <text style="stroke:none;fill:black;font-family:sans-serif;font-size:13;text-anchor:middle;" transform="matrix(1 0 0 1 2043.27 322)">Semibold</text>
  <text style="stroke:none;fill:black;font-family:sans-serif;font-size:13;text-anchor:middle;" transform="matrix(1 0 0 1 2339.98 322)">Bold</text>
  <text style="stroke:none;fill:black;font-family:sans-serif;font-size:13;text-anchor:middle;" transform="matrix(1 0 0 1 2636.69 322)">Heavy</text>
  <text style="stroke:none;fill:black;font-family:sans-serif;font-size:13;text-anchor:middle;" transform="matrix(1 0 0 1 2933.4 322)">Black</text>
  <line style="fill:none;stroke:black;opacity:1;stroke-width:0.5;" x1="263" x2="3036" y1="1903" y2="1903"/>
  <g transform="matrix(1 0 0 1 263 1933)">
   <path d="M9.24805 0.830078C13.5547 0.830078 17.1387-2.74414 17.1387-7.05078C17.1387-11.3574 13.5449-14.9316 9.23828-14.9316C4.94141-14.9316 1.36719-11.3574 1.36719-7.05078C1.36719-2.74414 4.95117 0.830078 9.24805 0.830078ZM9.24805-0.654297C5.70312-0.654297 2.87109-3.49609 2.87109-7.05078C2.87109-10.6055 5.69336-13.4473 9.23828-13.4473C12.793-13.4473 15.6445-10.6055 15.6445-7.05078C15.6445-3.49609 12.8027-0.654297 9.24805-0.654297ZM5.6543-7.05078C5.6543-6.62109 5.95703-6.32812 6.40625-6.32812L8.50586-6.32812L8.50586-4.20898C8.50586-3.76953 8.79883-3.4668 9.22852-3.4668C9.67773-3.4668 9.9707-3.76953 9.9707-4.20898L9.9707-6.32812L12.0898-6.32812C12.5293-6.32812 12.832-6.62109 12.832-7.05078C12.832-7.49023 12.5293-7.79297 12.0898-7.79297L9.9707-7.79297L9.9707-9.90234C9.9707-10.3516 9.67773-10.6543 9.22852-10.6543C8.79883-10.6543 8.50586-10.3516 8.50586-9.90234L8.50586-7.79297L6.40625-7.79297C5.95703-7.79297 5.6543-7.49023 5.6543-7.05078Z"/>
  </g>
  <g transform="matrix(1 0 0 1 281.867 1933)">
   <path d="M11.709 2.91016C17.1582 2.91016 21.6699-1.61133 21.6699-7.05078C21.6699-12.5 17.1484-17.0117 11.6992-17.0117C6.25977-17.0117 1.74805-12.5 1.74805-7.05078C1.74805-1.61133 6.26953 2.91016 11.709 2.91016ZM11.709 1.25C7.09961 1.25 3.41797-2.44141 3.41797-7.05078C3.41797-11.6602 7.08984-15.3516 11.6992-15.3516C16.3086-15.3516 20.0098-11.6602 20.0098-7.05078C20.0098-2.44141 16.3184 1.25 11.709 1.25ZM7.17773-7.05078C7.17773-6.57227 7.50977-6.25 8.00781-6.25L10.8789-6.25L10.8789-3.36914C10.8789-2.88086 11.2109-2.53906 11.6895-2.53906C12.1777-2.53906 12.5195-2.87109 12.5195-3.36914L12.5195-6.25L15.4004-6.25C15.8887-6.25 16.2305-6.57227 16.2305-7.05078C16.2305-7.53906 15.8887-7.88086 15.4004-7.88086L12.5195-7.88086L12.5195-10.752C12.5195-11.25 12.1777-11.5918 11.6895-11.5918C11.2109-11.5918 10.8789-11.25 10.8789-10.752L10.8789-7.88086L8.00781-7.88086C7.50977-7.88086 7.17773-7.53906 7.17773-7.05078Z"/>
  </g>
  <g transform="matrix(1 0 0 1 305.646 1933)">
   <path d="M14.9707 5.66406C21.9336 5.66406 27.6953-0.0976562 27.6953-7.05078C27.6953-14.0137 21.9238-19.7754 14.9609-19.7754C8.00781-19.7754 2.25586-14.0137 2.25586-7.05078C2.25586-0.0976562 8.01758 5.66406 14.9707 5.66406ZM14.9707 3.84766C8.93555 3.84766 4.08203-1.01562 4.08203-7.05078C4.08203-13.0957 8.92578-17.9492 14.9609-17.9492C21.0059-17.9492 25.8691-13.0957 25.8691-7.05078C25.8691-1.01562 21.0156 3.84766 14.9707 3.84766ZM9.19922-7.05078C9.19922-6.5332 9.57031-6.17188 10.1172-6.17188L14.0625-6.17188L14.0625-2.2168C14.0625-1.67969 14.4336-1.29883 14.9512-1.29883C15.4883-1.29883 15.8594-1.66992 15.8594-2.2168L15.8594-6.17188L19.8145-6.17188C20.3516-6.17188 20.7324-6.5332 20.7324-7.05078C20.7324-7.59766 20.3613-7.96875 19.8145-7.96875L15.8594-7.96875L15.8594-11.9141C15.8594-12.4609 15.4883-12.8418 14.9512-12.8418C14.4336-12.8418 14.0625-12.4609 14.0625-11.9141L14.0625-7.96875L10.1172-7.96875C9.57031-7.96875 9.19922-7.59766 9.19922-7.05078Z"/>
  </g>
  <text style="stroke:none;fill:black;font-family:sans-serif;font-size:13;font-weight:bold;" transform="matrix(1 0 0 1 263 1953)">Design Variations</text>
  <text style="stroke:none;fill:black;font-family:sans-serif;font-size:13;" transform="matrix(1 0 0 1 263 1971)">Symbols are supported in up to nine weights and three scales.</text>
  <text style="stroke:none;fill:black;font-family:sans-serif;font-size:13;" transform="matrix(1 0 0 1 263 1989)">For optimal layout with text and other symbols, vertically align</text>
  <text style="stroke:none;fill:black;font-family:sans-serif;font-size:13;" transform="matrix(1 0 0 1 263 2007)">symbols with the adjacent text.</text>
  <line style="fill:none;stroke:#00AEEF;stroke-width:0.5;opacity:1.0;" x1="776" x2="776" y1="1919" y2="1933"/>
  <g transform="matrix(1 0 0 1 776 1933)">
   <path d="M3.31055 0.15625C3.82812 0.15625 4.08203-0.0390625 4.26758-0.585938L5.52734-4.0332L11.2891-4.0332L12.5488-0.585938C12.7344-0.0390625 12.9883 0.15625 13.4961 0.15625C14.0137 0.15625 14.3457-0.15625 14.3457-0.644531C14.3457-0.810547 14.3164-0.966797 14.2383-1.17188L9.6582-13.3691C9.43359-13.9648 9.0332-14.2676 8.4082-14.2676C7.80273-14.2676 7.39258-13.9746 7.17773-13.3789L2.59766-1.16211C2.51953-0.957031 2.49023-0.800781 2.49023-0.634766C2.49023-0.146484 2.80273 0.15625 3.31055 0.15625ZM6.00586-5.51758L8.37891-12.0898L8.42773-12.0898L10.8008-5.51758Z"/>
  </g>
  <line style="fill:none;stroke:#00AEEF;stroke-width:0.5;opacity:1.0;" x1="793.197" x2="793.197" y1="1919" y2="1933"/>
  <text style="stroke:none;fill:black;font-family:sans-serif;font-size:13;font-weight:bold;" transform="matrix(1 0 0 1 776 1953)">Margins</text>
  <text style="stroke:none;fill:black;font-family:sans-serif;font-size:13;" transform="matrix(1 0 0 1 776 1971)">Leading and trailing margins on the left and right side of each symbol</text>
  <text style="stroke:none;fill:black;font-family:sans-serif;font-size:13;" transform="matrix(1 0 0 1 776 1989)">can be adjusted by modifying the x-location of the margin guidelines.</text>
  <text style="stroke:none;fill:black;font-family:sans-serif;font-size:13;" transform="matrix(1 0 0 1 776 2007)">Modifications are automatically applied proportionally to all</text>
  <text style="stroke:none;fill:black;font-family:sans-serif;font-size:13;" transform="matrix(1 0 0 1 776 2025)">scales and weights.</text>
  <g transform="matrix(1 0 0 1 1289 1933)">
   <path d="M2.8418 1.86523L4.54102 3.57422C5.40039 4.44336 6.38672 4.38477 7.31445 3.35938L18.0078-8.42773L17.041-9.4043L6.42578 2.27539C6.07422 2.67578 5.74219 2.77344 5.27344 2.30469L4.10156 1.14258C3.63281 0.683594 3.74023 0.341797 4.14062-0.0195312L15.6152-10.8203L14.6387-11.7871L3.04688-0.898438C2.06055 0.0195312 1.98242 0.996094 2.8418 1.86523ZM9.25781-16.3281C8.83789-15.918 8.80859-15.3418 9.04297-14.9512C9.27734-14.5898 9.73633-14.3555 10.3809-14.5215C11.8457-14.8633 13.3691-14.9219 14.7949-13.9844L14.209-12.5293C13.8672-11.6992 14.043-11.1133 14.5801-10.5664L16.875-8.25195C17.3633-7.76367 17.7734-7.74414 18.3398-7.8418L19.4043-8.03711L20.0684-7.36328L20.0293-6.80664C19.9902-6.30859 20.1172-5.92773 20.6055-5.44922L21.3672-4.70703C21.8457-4.22852 22.4609-4.19922 22.9297-4.66797L25.8398-7.58789C26.3086-8.05664 26.2891-8.65234 25.8105-9.13086L25.0391-9.89258C24.5605-10.3711 24.1895-10.5273 23.7109-10.4883L23.1348-10.4395L22.4902-11.0742L22.7344-12.1973C22.8613-12.7637 22.7051-13.2031 22.1191-13.7891L19.9219-15.9766C16.582-19.2969 12.1484-19.2188 9.25781-16.3281ZM10.752-15.957C13.1836-17.7344 16.4746-17.4316 18.7012-15.2051L21.1328-12.793C21.3672-12.5586 21.4062-12.373 21.3379-12.0312L21.0156-10.5469L22.5195-9.0625L23.5059-9.12109C23.7598-9.13086 23.8379-9.11133 24.0332-8.91602L24.6094-8.33984L22.168-5.89844L21.5918-6.47461C21.3965-6.66992 21.3672-6.74805 21.377-7.01172L21.4453-7.98828L19.9512-9.47266L18.4277-9.21875C18.1055-9.15039 17.959-9.17969 17.7148-9.41406L15.7129-11.416C15.459-11.6504 15.4297-11.8164 15.5859-12.1875L16.4648-14.2773C14.9023-15.7324 12.8711-16.3574 10.8398-15.7617C10.6836-15.7227 10.625-15.8496 10.752-15.957Z"/>
  </g>
  <text style="stroke:none;fill:black;font-family:sans-serif;font-size:13;font-weight:bold;" transform="matrix(1 0 0 1 1289 1953)">Exporting</text>
  <text style="stroke:none;fill:black;font-family:sans-serif;font-size:13;" transform="matrix(1 0 0 1 1289 1971)">Symbols should be outlined when exporting to ensure the</text>
  <text style="stroke:none;fill:black;font-family:sans-serif;font-size:13;" transform="matrix(1 0 0 1 1289 1989)">design is preserved when submitting to Xcode.</text>
  <text id="template-version" style="stroke:none;fill:black;font-family:sans-serif;font-size:13;text-anchor:end;" transform="matrix(1 0 0 1 3036 1933)">Template v.4.0</text>
  <text style="stroke:none;fill:black;font-family:sans-serif;font-size:13;text-anchor:end;" transform="matrix(1 0 0 1 3036 1951)">Requires Xcode 14 or greater</text>
  <text id="descriptive-name" style="stroke:none;fill:black;font-family:sans-serif;font-size:13;text-anchor:end;" transform="matrix(1 0 0 1 3036 1969)">Generated from custom.snowflake</text>
  <text style="stroke:none;fill:black;font-family:sans-serif;font-size:13;text-anchor:end;" transform="matrix(1 0 0 1 3036 1987)">Typeset at 100 points</text>
  <text style="stroke:none;fill:black;font-family:sans-serif;font-size:13;" transform="matrix(1 0 0 1 263 726)">Small</text>
  <text style="stroke:none;fill:black;font-family:sans-serif;font-size:13;" transform="matrix(1 0 0 1 263 1156)">Medium</text>
  <text style="stroke:none;fill:black;font-family:sans-serif;font-size:13;" transform="matrix(1 0 0 1 263 1586)">Large</text>
 </g>
 <g id="Guides">
  <g id="H-reference" style="fill:#27AAE1;stroke:none;" transform="matrix(1 0 0 1 339 696)">
   <path d="M0.993654 0L3.63775 0L29.3281-67.1323L30.0303-67.1323L30.0303-70.459L28.1226-70.459ZM11.6885-24.4799L46.9815-24.4799L46.2315-26.7285L12.4385-26.7285ZM55.1196 0L57.7637 0L30.6382-70.459L29.4326-70.459L29.4326-67.1323Z"/>
  </g>
  <line id="Baseline-S" style="fill:none;stroke:#27AAE1;opacity:1;stroke-width:0.5;" x1="263" x2="3036" y1="696" y2="696"/>
  <line id="Capline-S" style="fill:none;stroke:#27AAE1;opacity:1;stroke-width:0.5;" x1="263" x2="3036" y1="625.541" y2="625.541"/>
  <g id="H-reference" style="fill:#27AAE1;stroke:none;" transform="matrix(1 0 0 1 339 1126)">
   <path d="M0.993654 0L3.63775 0L29.3281-67.1323L30.0303-67.1323L30.0303-70.459L28.1226-70.459ZM11.6885-24.4799L46.9815-24.4799L46.2315-26.7285L12.4385-26.7285ZM55.1196 0L57.7637 0L30.6382-70.459L29.4326-70.459L29.4326-67.1323Z"/>
  </g>
  <line id="Baseline-M" style="fill:none;stroke:#27AAE1;opacity:1;stroke-width:0.5;" x1="263" x2="3036" y1="1126" y2="1126"/>
  <line id="Capline-M" style="fill:none;stroke:#27AAE1;opacity:1;stroke-width:0.5;" x1="263" x2="3036" y1="1055.54" y2="1055.54"/>
  <g id="H-reference" style="fill:#27AAE1;stroke:none;" transform="matrix(1 0 0 1 339 1556)">
   <path d="M0.993654 0L3.63775 0L29.3281-67.1323L30.0303-67.1323L30.0303-70.459L28.1226-70.459ZM11.6885-24.4799L46.9815-24.4799L46.2315-26.7285L12.4385-26.7285ZM55.1196 0L57.7637 0L30.6382-70.459L29.4326-70.459L29.4326-67.1323Z"/>
  </g>
  <line id="Baseline-L" style="fill:none;stroke:#27AAE1;opacity:1;stroke-width:0.5;" x1="263" x2="3036" y1="1556" y2="1556"/>
  <line id="Capline-L" style="fill:none;stroke:#27AAE1;opacity:1;stroke-width:0.5;" x1="263" x2="3036" y1="1485.54" y2="1485.54"/>
  <line id="left-margin-Regular-M" style="fill:none;stroke:#00AEEF;stroke-width:0.5;opacity:1.0;" x1="1397.88" x2="1397.88" y1="1030.79" y2="1150.12"/>
  <line id="right-margin-Regular-M" style="fill:none;stroke:#00AEEF;stroke-width:0.5;opacity:1.0;" x1="1501.81" x2="1501.81" y1="1030.79" y2="1150.12"/>
 </g>
 <g id="Symbols">
  <g id="Black-L" transform="matrix(1 0 0 1 2862.52 1556)">
   <path d="M70.8537 32.3827C75.2611 32.3827 78.0834 29.3008 78.0834 24.7354L78.0834 14.3146L83.3382 18.3644C86.4329 21.1617 90.3639 21.1553 92.8108 17.8877C94.8812 14.959 94.515 11.2033 90.9906 8.91193L78.0834 0.836415L78.0834-6.1194L76.4004-25.4576L92.5246-14.3445L98.4438-10.8982L99.0446 4.22638C99.2574 8.44136 102.356 10.6472 105.895 10.2383C109.988 9.82948 111.91 6.43471 111.092 2.41575L110.178-4.16974L119.248 1.05304C123.162 3.34558 127.268 2.35896 129.362-1.43304C131.456-5.18874 130.31-9.31446 126.457-11.5278L117.465-16.7662L123.6-19.2663C127.433-20.4867 129.479-23.9452 127.813-27.7164C126.341-30.9591 122.898-32.4494 119.162-30.5877L105.728-23.5375L99.7322-26.9838L82.0533-35.2697L99.7334-43.5545L105.711-47.0043L119.16-39.8957C122.896-37.9756 126.364-39.5839 127.873-42.863C129.537-46.5382 127.49-49.9967 123.598-51.2767L117.466-53.7731L126.458-59.0116C130.391-61.3041 131.536-65.2727 129.421-69.0503C127.289-72.762 123.102-73.8278 119.249-71.5925L110.178-66.4101L111.091-72.9212C111.967-76.9778 109.987-80.4285 105.913-80.7777C102.412-81.1282 99.2574-78.9247 99.0446-74.7902L98.4426-59.5453L92.5246-56.0769L76.4004-44.9639L78.0834-64.4432L78.0834-71.3782L90.9906-79.4537C94.515-81.745 94.8228-85.5008 92.8108-88.4294C90.4222-91.6971 86.4329-91.7035 83.3382-88.927L78.0834-84.8564L78.0834-95.2772C78.0834-99.8426 75.2611-102.925 70.8537-102.925C66.5682-102.925 63.646-99.7842 63.646-95.2772L63.646-84.8552L58.3449-88.927C55.2512-91.7035 51.3643-91.6971 48.8966-88.4294C46.8065-85.5008 47.2143-81.7462 50.7156-79.4757L63.646-71.377L63.646-64.4432L65.3092-44.9055L49.2036-56.0769L43.2648-59.6037L42.6639-74.7902C42.4511-78.9247 39.2965-81.1282 35.8148-80.7777C31.7398-80.4273 29.8001-76.9181 30.6178-72.9795L31.5302-66.4101L22.4814-71.5925C18.6469-73.8058 14.4199-72.762 12.287-69.0503C10.1721-65.2727 11.338-61.2249 15.1921-59.0116L24.2422-53.7731L18.1102-51.2767C14.2173-49.9967 12.2297-46.5227 13.8941-42.8035C15.4025-39.5827 18.7921-37.9756 22.5502-39.8957L35.9391-46.9835L41.9751-43.5545L59.6552-35.2697L41.9762-26.9838L35.9987-23.5363L22.5466-30.6461C18.8094-32.5662 15.3661-30.9591 13.8785-27.6799C12.1933-23.9595 14.2173-20.545 18.109-19.2663L24.2434-16.7662L15.2517-11.5278C11.3976-9.31326 10.1333-5.16674 12.287-1.43423C14.4419 2.35896 18.5897 3.32478 22.4814 1.05304L31.5302-4.12809L30.6166 2.35737C29.7405 6.43471 31.7398 9.88789 35.8136 10.2383C39.3524 10.5888 42.4511 8.38295 42.6639 4.22638L43.2856-11.015L49.2036-14.4404L65.3092-25.5743L63.646-6.1194L63.646 0.835218L50.7156 8.91313C47.2143 11.2045 46.865 14.959 48.8966 17.8877C51.3059 21.1553 55.2512 21.1617 58.3449 18.3644L63.646 14.3134L63.646 24.7354C63.646 29.2424 66.5682 32.3827 70.8537 32.3827Z"/>
  </g>
  <g id="Heavy-L" transform="matrix(1 0 0 1 2566.77 1556)">
   <path d="M69.8963 31.3884C73.8817 31.3884 76.3946 28.6154 76.3946 24.5094L76.3946 13.1743L83.0862 17.789C85.9734 20.2257 89.5045 20.1686 91.6735 17.1586C93.493 14.4836 93.0706 11.0864 89.8407 9.02677L76.3946 0.827583L76.3946-6.50416L74.8281-26.5468L91.6127-15.1891L97.873-11.5568L98.3035 4.11451C98.4518 7.95276 101.209 10.0565 104.412 9.7441C108.139 9.43174 109.906 6.4054 109.281 2.73119L108.597-5.41301L118.479 0.292509C121.996 2.35782 125.661 1.48041 127.551-1.92554C129.441-5.3227 128.409-9.01215 124.947-11.0026L115.135-16.6869L122.512-20.1841C125.95-21.416 127.722-24.5385 126.169-27.9144C124.769-30.8482 121.596-32.0914 118.223-30.3743L104.399-22.8966L98.0752-26.5289L79.7987-35.2697L98.0808-44.0049L104.386-47.654L118.212-40.1318C121.585-38.37 124.81-39.7081 126.219-42.6508C127.767-45.9675 125.989-49.09 122.507-50.3721L115.14-53.8525L124.952-59.5367C128.495-61.602 129.522-65.1475 127.602-68.5804C125.692-71.906 121.946-72.8582 118.484-70.832L108.597-65.1811L109.276-73.273C109.945-76.9617 108.133-80.0214 104.431-80.2835C101.242-80.5512 98.4518-78.4588 98.3035-74.7009L97.8674-58.9237L91.6127-55.2555L74.8281-43.8978L76.3946-64.0766L76.3946-71.3782L89.8407-79.5773C93.0706-81.637 93.4484-85.0342 91.6735-87.7092C89.5491-90.7192 85.9734-90.7763 83.0862-88.3699L76.3946-83.725L76.3946-95.06C76.3946-99.166 73.8817-101.939 69.8963-101.939C66.0515-101.939 63.4338-99.1214 63.4338-95.06L63.4338-83.7194L56.6594-88.3699C53.7777-90.7763 50.3182-90.7192 48.1191-87.7092C46.2749-85.0342 46.7577-81.6426 49.9462-79.6132L63.4338-71.3726L63.4338-64.0766L64.9756-43.8532L48.2101-55.2555L41.9252-58.9683L41.4946-74.7009C41.3464-78.4588 38.5557-80.5512 35.3918-80.2835C31.6841-80.0158 29.8978-76.9114 30.5225-73.3176L31.2006-65.1811L21.3496-70.832C17.9067-72.8224 14.1066-71.906 12.1966-68.5804C10.2764-65.1475 11.3336-61.5272 14.801-59.5367L24.6578-53.8525L17.2913-50.3721C13.8038-49.09 12.0759-45.9889 13.6234-42.6006C15.0325-39.7025 18.1832-38.37 21.5916-40.1318L35.3678-47.6239L41.7173-44.0049L59.9994-35.2697L41.7229-26.5289L35.418-22.891L21.5748-30.4189C18.1966-32.1806 15.0236-30.8482 13.6447-27.9054C12.0671-24.5115 13.8038-21.4606 17.2857-20.1841L24.6634-16.6869L14.8513-11.0026C11.3838-9.00654 10.2563-5.28691 12.1966-1.93116C14.1424 1.48041 17.8677 2.32765 21.3496 0.292509L31.2006-5.35262L30.5169 2.68659C29.8476 6.4054 31.6841 9.47636 35.3862 9.7441C38.5891 10.0118 41.3464 7.90813 41.4946 4.11451L41.9554-11.646L48.2101-15.2481L64.9756-26.636L63.4338-6.50416L63.4338 0.821972L49.9462 9.03238C46.7577 11.0921 46.3196 14.4836 48.1191 17.1586C50.2735 20.1686 53.7777 20.2257 56.6594 17.789L63.4338 13.1687L63.4338 24.5094C63.4338 28.5708 66.0515 31.3884 69.8963 31.3884Z"/>
  </g>
  <g id="Bold-L" transform="matrix(1 0 0 1 2271.25 1556)">
   <path d="M68.7129 30.1664C72.146 30.1664 74.2672 27.7924 74.2672 24.2699L74.2672 11.6339L82.7936 17.0223C85.3899 19.0208 88.4068 18.9096 90.23 16.252C91.742 13.9144 91.2728 10.9852 88.434 9.22481L74.2672 0.812352L74.2672-7.15942L72.8765-27.899L90.349-16.3534L97.181-12.4086L97.4263 4.01346C97.5051 7.36069 99.8323 9.29663 102.598 9.0922C105.834 8.88778 107.394 6.32979 106.985 3.10814L106.556-7.03933L117.578-0.659961C120.597 1.11368 123.701 0.374483 125.323-2.53269C126.944-5.46185 126.057-8.591 123.094-10.2974L112.127-16.6169L121.13-21.366C124.069-22.576 125.503-25.2612 124.111-28.1304C122.817-30.6652 120.027-31.616 117.123-30.098L102.725-22.0752L95.8521-26.0201L76.9795-35.2697L95.8654-44.5061L102.727-48.4906L117.096-40.4387C120.001-38.8915 122.882-39.9139 124.153-42.4267C125.532-45.2754 124.085-47.9607 121.117-49.2131L112.14-53.9225L123.108-60.242C126.151-62.0155 127.025-65.0236 125.365-68.004C123.739-70.8308 120.554-71.6371 117.591-69.8795L106.556-63.5628L106.972-73.696C107.41-76.9089 105.821-79.4696 102.609-79.6316C99.835-79.8068 97.5051-77.8973 97.4263-74.6305L97.1677-58.1105L90.349-54.1144L72.8765-42.5687L74.2672-63.4444L74.2672-71.3782L88.434-79.7906C91.2728-81.551 91.7128-84.4803 90.23-86.8178C88.436-89.4754 85.3899-89.5866 82.7936-87.6262L74.2672-82.1997L74.2672-94.8357C74.2672-98.3582 72.146-100.732 68.7129-100.732C65.4361-100.732 63.2097-98.329 63.2097-94.8357L63.2097-82.1865L54.5546-87.6262C51.9714-89.5866 49.057-89.4754 47.1958-86.8178C45.6589-84.4803 46.2041-81.5643 48.9785-79.8419L63.2097-71.365L63.2097-63.4444L64.5756-42.5395L47.1148-54.1144L40.258-58.1397L40.0127-74.6305C39.9339-77.8973 37.604-79.8068 34.8543-79.6316C31.6299-79.4564 30.0579-76.8664 30.4668-73.7252L30.8828-63.5628L19.8989-69.8795C16.9475-71.5859 13.7-70.8308 12.074-68.004C10.4144-65.0236 11.326-61.9484 14.302-60.242L25.2993-53.9225L16.3217-49.2131C13.3412-47.9607 11.936-45.3355 13.3152-42.3843C14.5864-39.9007 17.4003-38.8915 20.356-40.4387L34.6832-48.4526L41.5736-44.5061L60.4594-35.2697L41.5868-26.0201L34.7256-22.062L20.3163-30.1272C17.3987-31.6744 14.6084-30.6652 13.3752-28.1523C11.958-25.1879 13.3412-22.6051 16.3085-21.366L25.3125-16.6169L14.3445-10.2974C11.3684-8.57777 10.41-5.41063 12.074-2.54592C13.7512 0.374483 16.9316 1.07572 19.8989-0.659961L30.8828-6.96334L30.4535 3.07896C30.0155 6.32979 31.6299 8.91698 34.8411 9.0922C37.6067 9.26742 39.9339 7.33148 40.0127 4.01346L40.296-12.467L47.1148-16.3737L64.5756-27.9574L63.2097-7.15942L63.2097 0.799125L48.9785 9.23804C46.2041 10.9984 45.6882 13.9144 47.1958 16.252C49.0277 18.9096 51.9714 19.0208 54.5546 17.0223L63.2097 11.6206L63.2097 24.2699C63.2097 27.7632 65.4361 30.1664 68.7129 30.1664Z"/>
  </g>
  <g id="Semibold-L" transform="matrix(1 0 0 1 1975.35 1556)">
   <path d="M67.8971 29.3239C70.9494 29.3239 72.8007 27.225 72.8007 24.1048L72.8007 10.5719L82.5918 16.4937C84.9876 18.1901 87.65 18.0416 89.2348 15.627C90.5349 13.522 90.0335 10.9154 87.4642 9.36135L72.8007 0.801852L72.8007-7.61114L71.5311-28.8313L89.4778-17.1561L96.7039-12.9958L96.8215 3.9438C96.8524 6.95251 98.8831 8.7728 101.347 8.64279C104.245 8.51278 105.663 6.27766 105.403 3.36801L105.149-8.16051L116.957-1.31659C119.632 0.255973 122.35-0.387933 123.786-2.95126C125.223-5.55778 124.436-8.30066 121.817-9.81123L110.053-16.5686L120.178-22.1808C122.772-23.3757 123.973-25.7594 122.691-28.2793C121.472-30.539 118.945-31.2883 116.364-29.9075L101.571-21.509L94.3196-25.6693L75.036-35.2697L94.3381-44.8517L101.583-49.0673L116.327-40.6503C118.908-39.251 121.552-40.0558 122.728-42.2723C123.992-44.7984 122.772-47.1821 120.159-48.414L110.071-53.9708L121.836-60.7281C124.535-62.3006 125.303-64.9382 123.823-67.6066C122.393-70.0895 119.595-70.7953 116.976-69.2228L105.149-62.4472L105.384-73.9876C105.663-76.8725 104.226-79.0892 101.354-79.1821C98.8647-79.2936 96.8524-77.5103 96.8215-74.5819L96.6854-57.5499L89.4778-53.3277L71.5311-41.6525L72.8007-63.0085L72.8007-71.3782L87.4642-79.9377C90.0335-81.4917 90.5163-84.0983 89.2348-86.2034C87.6685-88.618 84.9876-88.7665 82.5918-87.1135L72.8007-81.1482L72.8007-94.6812C72.8007-97.8013 70.9494-99.9003 67.8971-99.9003C65.0118-99.9003 63.0553-97.7828 63.0553-94.6812L63.0553-81.1297L53.1035-87.1135C50.7261-88.7665 48.1874-88.618 46.5592-86.2034C45.2342-84.0983 45.8224-81.5102 48.3114-79.9995L63.0553-71.3597L63.0553-63.0085L64.2999-41.6339L46.3597-53.3277L39.1087-57.5685L38.991-74.5819C38.9601-77.5103 36.9478-79.2936 34.4838-79.1821C31.5925-79.0707 30.1683-76.8355 30.4284-74.0062L30.6637-62.4472L18.8987-69.2228C16.2863-70.7335 13.4196-70.0895 11.9894-67.6066C10.5096-64.9382 11.3207-62.2387 13.958-60.7281L25.7415-53.9708L15.6533-48.414C13.0223-47.1821 11.8396-44.8851 13.1027-42.2353C14.2789-40.0374 16.8606-39.251 19.5042-40.6503L34.2112-49.024L41.4745-44.8517L60.7765-35.2697L41.493-25.6693L34.2483-21.4905L19.4487-29.9261C16.8486-31.3254 14.3222-30.539 13.1893-28.3226C11.8829-25.6542 13.0223-23.3942 15.6348-22.1808L25.76-16.5686L13.9951-9.81123C11.3578-8.28218 10.5159-5.49593 11.9894-2.96973C13.4815-0.387933 16.2862 0.212639 18.8987-1.31659L30.6637-8.07376L30.4099 3.34945C30.1313 6.27766 31.5925 8.53135 34.4653 8.64279C36.9294 8.75423 38.9601 6.93394 38.991 3.9438L39.152-13.033L46.3597-17.1498L64.2999-28.8684L63.0553-7.61114L63.0553 0.783374L48.3114 9.37983C45.8224 10.9339 45.2528 13.522 46.5592 15.627C48.1688 18.0416 50.7261 18.1901 53.1035 16.4937L63.0553 10.5534L63.0553 24.1048C63.0553 27.2065 65.0118 29.3239 67.8971 29.3239Z"/>
  </g>
  <g id="Medium-L" transform="matrix(1 0 0 1 1679.26 1556)">
   <path d="M67.2785 28.6851C70.0421 28.6851 71.6886 26.7948 71.6886 23.9797L71.6886 9.76661L82.4389 16.093C84.6826 17.5602 87.0761 17.3835 88.4803 15.1531C89.6196 13.2244 89.0937 10.8625 86.7289 9.46487L71.6886 0.79389L71.6886-7.95366L70.511-29.5381L88.8172-17.7647L96.3422-13.4411L96.363 3.89097C96.3575 6.64302 98.1634 8.37562 100.399 8.30203C103.04 8.22843 104.35 6.23813 104.203 3.56506L104.082-9.01063L116.486-1.81447C118.9-0.394374 121.325-0.966028 122.621-3.26863C123.917-5.63051 123.207-8.08051 120.849-9.44259L108.48-16.532L119.455-22.7987C121.788-23.982 122.813-26.1372 121.615-28.3923C120.452-30.4434 118.125-31.0397 115.788-29.7631L100.696-21.0797L93.1575-25.4033L73.5623-35.2697L93.18-45.1137L100.715-49.5046L115.744-40.8107C118.08-39.5235 120.544-40.1634 121.648-42.1552C122.823-44.4366 121.776-46.5918 119.433-47.8081L108.503-54.0074L120.872-61.0968C123.31-62.5168 123.998-64.8734 122.654-67.3053C121.372-69.5274 118.867-70.157 116.509-68.7249L104.082-61.6012L104.18-74.2087C104.338-76.8449 103.018-78.8008 100.402-78.8414C98.129-78.9045 96.3575-77.2168 96.363-74.5451L96.3197-57.1249L88.8172-52.7312L70.511-40.9578L71.6886-62.678L71.6886-71.3782L86.7289-80.0491C89.0937-81.4468 89.6091-83.8088 88.4803-85.7374C87.0867-87.9678 84.6826-88.1446 82.4389-86.7248L71.6886-80.3509L71.6886-94.564C71.6886-97.3791 70.0421-99.2695 67.2785-99.2695C64.6901-99.2695 62.9382-97.3686 62.9382-94.564L62.9382-80.3284L52.0032-86.7248C49.7819-88.1446 47.5282-87.9678 46.0766-85.7374C44.9122-83.8088 45.533-81.4692 47.8055-80.1191L62.9382-71.3557L62.9382-62.678L64.0908-40.9473L45.7871-52.7312L38.2372-57.1354L38.2164-74.5451C38.2218-77.2168 36.4503-78.9045 34.2028-78.8414C31.5641-78.7783 30.252-76.812 30.3992-74.2192L30.4976-61.6012L18.1404-68.7249C15.7849-70.0871 13.207-69.5274 11.9253-67.3053C10.5817-64.8734 11.3168-62.4589 13.6972-61.0968L26.0768-54.0074L15.1465-47.8081C12.7805-46.5918 11.7665-44.5435 12.9416-42.1222C14.0457-40.141 16.4514-39.5235 18.8583-40.8107L33.8534-49.4572L41.3993-45.1137L61.017-35.2697L41.4218-25.4033L33.8863-21.0572L18.7909-29.7736C16.4315-31.0608 14.1051-30.4434 13.0484-28.4516C11.8259-26.0078 12.7805-23.9925 15.124-22.7987L26.0993-16.532L13.7302-9.44259C11.3497-8.05805 10.5962-5.5606 11.9253-3.29109C13.2769-0.966028 15.7969-0.441782 18.1404-1.81447L30.4976-8.91572L30.3768 3.55455C30.2191 6.23813 31.5641 8.23895 34.1804 8.30203C36.4159 8.36511 38.2218 6.63251 38.2164 3.89097L38.2846-13.4621L45.7871-17.7382L64.0908-29.5592L62.9382-7.95366L62.9382 0.771432L47.8055 9.48733C45.533 10.8849 44.9227 13.2244 46.0766 15.1531C47.5176 17.3835 49.7819 17.5602 52.0032 16.093L62.9382 9.74415L62.9382 23.9797C62.9382 26.7843 64.6901 28.6851 67.2785 28.6851Z"/>
  </g>
  <g id="Regular-L" transform="matrix(1 0 0 1 1383.36 1556)">
   <path d="M66.4716 27.8519C68.8587 27.8519 70.2382 26.2337 70.2382 23.8164L70.2382 8.71628L82.2394 15.5702C84.2848 16.7386 86.3277 16.525 87.4961 14.5349C88.4258 12.8363 87.868 10.7935 85.7698 9.5999L70.2382 0.783505L70.2382-8.40042L69.1804-30.4601L87.9556-18.5585L95.8703-14.0218L95.7649 3.82207C95.712 6.23933 97.2247 7.85755 99.1621 7.85755C101.469 7.85755 102.637 6.18658 102.637 3.82207L102.69-10.1195L115.872-2.46388C117.945-1.24265 119.988-1.72007 121.101-3.68259C122.215-5.72539 121.604-7.79336 119.586-8.96176L106.429-16.4842L118.513-23.6045C120.506-24.7729 121.3-26.6299 120.212-28.5396C119.121-30.3186 117.056-30.7156 115.038-29.5747L99.554-20.5197L91.6418-25.0563L71.6402-35.2697L91.6695-45.4554L99.5842-50.075L114.983-41.02C117-39.8791 119.229-40.3038 120.239-42.0024C121.3-43.9648 120.478-45.8218 118.485-47.0178L106.457-54.0552L119.614-61.5776C121.712-62.7987 122.295-64.7889 121.129-66.9123C120.041-68.7942 117.918-69.3244 115.9-68.0755L102.69-60.4978L102.61-74.4971C102.61-76.809 101.441-78.4246 99.1596-78.3969C97.1694-78.3969 95.712-76.834 95.7649-74.4971L95.8427-56.5704L87.9556-51.9532L69.1804-40.0516L70.2382-62.247L70.2382-71.3782L85.7698-80.1946C87.868-81.3881 88.4258-83.431 87.4961-85.1297C86.3277-87.1198 84.2848-87.3334 82.2394-86.2177L70.2382-79.3109L70.2382-94.4111C70.2382-96.8284 68.8587-98.4466 66.4716-98.4466C64.2704-98.4466 62.7854-96.8284 62.7854-94.4111L62.7854-79.2833L50.5681-86.2177C48.5504-87.3334 46.6682-87.1198 45.4471-85.1297C44.4922-83.431 45.1555-81.4158 47.1457-80.275L62.7854-71.3505L62.7854-62.247L63.8181-40.0516L45.0403-51.9532L37.1005-56.5704L37.2059-74.4971C37.2588-76.834 35.8014-78.3969 33.8364-78.3969C31.5271-78.3969 30.3612-76.7813 30.3612-74.4971L30.2808-60.4978L17.1512-68.0755C15.1309-69.244 12.9298-68.7942 11.8417-66.9123C10.6758-64.7889 11.3116-62.746 13.357-61.5776L26.5142-54.0552L14.4854-47.0178C12.4651-45.8218 11.6711-44.0981 12.7315-41.9748C13.7416-40.2761 15.9176-39.8791 18.0158-41.02L33.3866-50.0223L41.3013-45.4554L61.3306-35.2697L41.329-25.0563L33.4142-20.492L17.9329-29.5747C15.8875-30.7156 13.822-30.3186 12.8646-28.62C11.7515-26.469 12.4651-24.7729 14.4577-23.6045L26.5419-16.4842L13.3846-8.96176C11.3392-7.76571 10.7009-5.64495 11.8417-3.71024C13.0102-1.72007 15.1586-1.29538 17.1512-2.46388L30.2808-10.0139L30.3336 3.82207C30.3336 6.18658 31.5271 7.85755 33.8088 7.85755C35.7461 7.85755 37.2588 6.23933 37.2059 3.82207L37.1532-14.0218L45.0403-18.5057L63.8181-30.4601L62.7854-8.40042L62.7854 0.755855L47.1457 9.62756C45.1555 10.8211 44.4922 12.8363 45.4471 14.5349C46.6682 16.525 48.5504 16.7386 50.5681 15.5702L62.7854 8.68863L62.7854 23.8164C62.7854 26.2337 64.2704 27.8519 66.4716 27.8519Z"/>
  </g>
  <g id="Light-L" transform="matrix(1 0 0 1 1087.44 1556)">
   <path d="M65.67 27.0694C67.4846 27.0694 68.5396 25.8329 68.5396 23.9118L68.5396 6.82685L82.1631 14.6923C83.7886 15.6126 85.3543 15.4181 86.2746 13.886C87.0135 12.5691 86.5702 11.0034 84.911 10.0961L68.5396 0.745343L68.5396-10.0036L67.8062-31.4144L86.2188-20.1235L95.4886-14.8425L95.4213 3.99385C95.3876 5.91488 96.5567 7.15141 98.0551 7.15141C99.7893 7.15141 100.71 5.88122 100.71 3.99385L100.743-11.799L115.586-3.18909C117.258-2.23508 118.824-2.59801 119.651-4.08338C120.478-5.64906 120.001-7.20172 118.422-8.12202L103.566-16.6178L117.33-24.7114C118.922-25.6317 119.487-27.0498 118.647-28.5014C117.747-29.8987 116.254-30.1812 114.675-29.3076L98.218-19.7753L89.008-25.0563L69.5217-35.2697L89.0548-45.4363L98.3246-50.8575L114.582-41.3253C116.161-40.4517 117.874-40.7809 118.693-42.0979C119.487-43.5831 118.875-45.0011 117.283-45.9681L103.613-53.9216L118.469-62.4174C120.128-63.3713 120.558-64.9034 119.698-66.5496C118.858-67.9545 117.212-68.351 115.633-67.3503L100.743-58.761L100.663-74.7071C100.663-76.5608 99.7425-77.7375 97.9954-77.6908C96.4633-77.6908 95.3876-76.5477 95.4213-74.7071L95.4419-55.7307L86.2188-50.3692L67.8062-39.0782L68.5396-60.6629L68.5396-71.3782L84.911-80.729C86.5702-81.6362 87.0135-83.202 86.2746-84.5189C85.3543-86.051 83.7886-86.2455 82.1631-85.3588L68.5396-77.4597L68.5396-94.5447C68.5396-96.4657 67.4846-97.7023 65.67-97.7023C64.0032-97.7023 62.8809-96.4657 62.8809-94.5447L62.8809-77.413L49.0031-85.3588C47.4243-86.2455 46.0193-86.051 45.0654-84.5189C44.3396-83.202 44.8502-81.683 46.3823-80.8094L62.8809-71.3315L62.8809-60.6629L63.6272-39.0782L45.1548-50.3692L35.8981-55.7307L35.9654-74.7071C35.9991-76.5477 34.9235-77.6908 33.3783-77.6908C31.5844-77.6908 30.7238-76.5141 30.7238-74.7071L30.6435-58.761L15.8343-67.3503C14.1958-68.2707 12.529-67.9545 11.6891-66.5496C10.8285-64.9034 11.2925-63.3377 12.918-62.4174L27.7739-53.9216L14.1037-45.9681C12.4651-45.0011 11.9001-43.6973 12.6933-42.0511C13.5126-40.7342 15.1924-40.4517 16.8516-41.3253L33.0622-50.8239L42.332-45.4363L61.865-35.2697L42.3787-25.0563L33.1089-19.7286L16.7114-29.3076C15.0859-30.1812 13.593-29.8987 12.8074-28.5818C11.9805-26.8889 12.4651-25.6317 14.0569-24.7114L27.8206-16.6178L12.9647-8.12202C11.3392-7.15498 10.8155-5.56859 11.6891-4.13011C12.6094-2.59801 14.2425-2.26872 15.8343-3.18909L30.6435-11.7316L30.6771 3.99385C30.6771 5.88122 31.5844 7.15141 33.3316 7.15141C34.83 7.15141 35.9991 5.91488 35.9654 3.99385L35.9318-14.8425L45.1548-20.0898L63.6272-31.4144L62.8809-10.0036L62.8809 0.698611L46.3823 10.1429C44.8502 11.0501 44.3396 12.5691 45.0654 13.886C46.0193 15.4181 47.4243 15.6126 49.0031 14.6923L62.8809 6.78012L62.8809 23.9118C62.8809 25.8329 64.0032 27.0694 65.67 27.0694Z"/>
  </g>
  <g id="Thin-L" transform="matrix(1 0 0 1 791.776 1556)">
   <path d="M64.6098 26.0345C65.6672 26.0345 66.2931 25.3028 66.2931 24.038L66.2931 4.32794L82.0621 13.5312C83.1323 14.1234 84.067 13.9541 84.6592 13.0278C85.1456 12.2157 84.8537 11.281 83.7751 10.7524L66.2931 0.69487L66.2931-12.1239L65.9888-32.6765L83.9218-22.1933L94.9838-15.9279L94.967 4.22103C94.9585 5.48576 95.6733 6.21748 96.5911 6.21748C97.568 6.21748 98.1602 5.47735 98.1602 4.22103L98.1686-14.0202L115.207-4.14824C116.35-3.54765 117.284-3.75916 117.732-4.61346C118.181-5.54812 117.88-6.41922 116.882-7.0114L99.7798-16.7944L115.765-26.1754C116.827-26.7676 117.089-27.6051 116.577-28.451C115.93-29.3434 115.194-29.4744 114.196-28.9542L96.4511-18.7909L85.5246-25.0563L66.7198-35.2697L85.5966-45.4111L96.6586-51.8924L114.052-41.7291C115.05-41.2089 116.082-41.412 116.649-42.2241C117.089-43.0782 116.755-43.9157 115.693-44.5799L99.8518-53.745L116.954-63.528C118.033-64.1286 118.261-65.0548 117.805-66.07C117.293-66.8438 116.278-67.0637 115.279-66.3911L98.1686-56.464L98.0882-74.9847C98.0882-76.2326 97.496-76.8288 96.4556-76.7569C95.5294-76.7569 94.9585-76.1691 94.967-74.9847L94.9118-54.6201L83.9218-48.2741L65.9888-37.7909L66.2931-58.5679L66.2931-71.3782L83.7751-81.4357C84.8537-81.9644 85.1456-82.899 84.6592-83.7111C84.067-84.6374 83.1323-84.8067 82.0621-84.2229L66.2931-75.0113L66.2931-94.7214C66.2931-95.9861 65.6672-96.7179 64.6098-96.7179C63.6499-96.7179 63.0071-95.9861 63.0071-94.7214L63.0071-74.9393L46.9333-84.2229C45.935-84.8067 45.1611-84.6374 44.5605-83.7111C44.1377-82.899 44.4464-82.0363 45.3726-81.5161L63.0071-71.3062L63.0071-58.5679L63.3748-37.7909L45.3063-48.2741L34.3079-54.6201L34.3247-74.9847C34.3331-76.1691 33.7623-76.7569 32.7725-76.7569C31.6601-76.7569 31.2034-76.1607 31.2034-74.9847L31.1231-56.464L14.0926-66.3911C12.9589-66.9833 11.9989-66.8438 11.4871-66.07C11.0305-65.0548 11.2672-64.1202 12.3374-63.528L29.4399-53.745L13.5988-44.5799C12.4651-43.9157 12.203-43.1672 12.6428-42.1521C13.2097-41.34 14.2332-41.2089 15.3119-41.7291L32.6331-51.884L43.6951-45.4111L62.5718-35.2697L43.767-25.0563L32.7051-18.7189L15.0959-28.9542C14.0257-29.4744 13.2901-29.3434 12.7317-28.5313C12.2834-27.4442 12.4651-26.7676 13.5269-26.1754L29.5118-16.7944L12.4094-7.0114C11.3392-6.34725 10.9669-5.46759 11.4871-4.68542C12.0793-3.75916 13.0309-3.55606 14.0926-4.14824L31.1231-14.0034L31.1315 4.22103C31.1315 5.47735 31.6601 6.21748 32.7005 6.21748C33.6184 6.21748 34.3331 5.48576 34.3247 4.22103L34.3163-15.9279L45.3063-22.1849L63.3748-32.6765L63.0071-12.1239L63.0071 0.622902L45.3726 10.8244C44.4464 11.353 44.1377 12.2157 44.5605 13.0278C45.1611 13.9541 45.935 14.1234 46.9333 13.5312L63.0071 4.25597L63.0071 24.038C63.0071 25.3028 63.6499 26.0345 64.6098 26.0345Z"/>
  </g>
  <g id="Ultralight-L" transform="matrix(1 0 0 1 495.602 1556)">
   <path d="M64.0667 25.5044C64.7363 25.5044 65.1425 25.0313 65.1425 24.1027L65.1425 3.048L82.0104 12.9364C82.7962 13.3606 83.4076 13.2042 83.8317 12.5882C84.1889 12.0347 83.9745 11.4233 83.1933 11.0886L65.1425 0.669018L65.1425-13.2099L65.058-33.3229L82.7453-23.2535L94.7252-16.4838L94.7342 4.33739C94.7388 5.26597 95.2208 5.73913 95.8413 5.73913C96.4303 5.73913 96.8544 5.27049 96.8544 4.33739L96.8499-15.1579L115.013-4.63951C115.884-4.21994 116.496-4.3539 116.75-4.88496C117.004-5.49641 116.794-6.01843 116.094-6.44254L97.8405-16.8849L114.963-26.9253C115.753-27.3494 115.86-27.8895 115.517-28.4251C114.999-29.059 114.651-29.1124 113.95-28.7732L95.5461-18.2867L83.7405-25.0563L65.2848-35.2697L83.8254-45.3982L95.8053-52.4225L113.78-41.936C114.481-41.5968 115.164-41.7353 115.602-42.2888C115.86-42.8197 115.669-43.3598 114.878-43.8688L97.9254-53.6545L116.178-64.0968C116.96-64.5164 117.085-65.1324 116.835-65.8244C116.491-66.2749 115.799-66.4043 115.098-65.8999L96.8499-55.2875L96.7695-75.1269C96.7695-76.0646 96.3454-76.3634 95.667-76.2785C95.051-76.2785 94.7388-75.9751 94.7342-75.1269L94.6403-54.0512L82.7453-47.201L65.058-37.1315L65.1425-57.4948L65.1425-71.3782L83.1933-81.7978C83.9745-82.1324 84.1889-82.7439 83.8317-83.2974C83.4076-83.9134 82.7962-84.0698 82.0104-83.6411L65.1425-73.7572L65.1425-94.8119C65.1425-95.7405 64.7363-96.2136 64.0667-96.2136C63.4689-96.2136 63.0718-95.7405 63.0718-94.8119L63.0718-73.6723L45.8731-83.6411C45.1722-84.0698 44.7215-83.9134 44.302-83.2974C44.0343-82.7439 44.2395-82.2173 44.8555-81.8781L63.0718-71.2933L63.0718-57.4948L63.2455-37.1315L45.3839-47.201L33.4934-54.0512L33.4844-75.1269C33.4798-75.9751 33.1676-76.2785 32.4622-76.2785C31.6989-76.2785 31.4491-75.9797 31.4491-75.1269L31.3687-55.2875L13.2006-65.8999C12.3254-66.324 11.7274-66.2749 11.3837-65.8244C11.1339-65.1324 11.2543-64.521 12.0401-64.0968L30.2932-53.6545L13.3403-43.8688C12.4651-43.3598 12.3582-42.8957 12.6169-42.2039C13.0545-41.6504 13.7419-41.5968 14.5232-41.936L32.4133-52.427L44.3932-45.3982L62.9338-35.2697L44.4781-25.0563L32.4982-18.2018L14.2685-28.7732C13.4827-29.1124 13.135-29.059 12.6929-28.5055C12.4386-27.7286 12.4651-27.3494 13.2554-26.9253L30.3781-16.8849L12.125-6.44254C11.3392-5.93354 11.0445-5.41585 11.3837-4.96985C11.8078-4.3539 12.4103-4.21542 13.2006-4.63951L31.3687-15.167L31.3642 4.33739C31.3642 5.27049 31.6989 5.73913 32.3773 5.73913C32.9978 5.73913 33.4798 5.26597 33.4844 4.33739L33.4889-16.4838L45.3839-23.258L63.2455-33.3229L63.0718-13.2099L63.0718 0.584124L44.8555 11.1735C44.2395 11.5082 44.0343 12.0347 44.302 12.5882C44.7215 13.2042 45.1722 13.3606 45.8731 12.9364L63.0718 2.96311L63.0718 24.1027C63.0718 25.0313 63.4689 25.5044 64.0667 25.5044Z"/>
  </g>
  <g id="Black-M" transform="matrix(1 0 0 1 2877.77 1126)">
   <path d="M55.6075 17.9011C59.3072 17.9011 61.7157 15.2997 61.7157 11.435L61.7157 3.87832L64.7718 6.66742C67.2908 9.111 70.6153 9.15219 72.7163 6.46128C74.5101 4.02594 74.2903 0.872761 71.3661-1.06274L61.7157-7.2853L61.7157-12.5632L60.3557-26.852L72.2311-18.5352L76.7073-15.9242L77.3244-4.54195C77.5473-1.01989 80.1949 0.725093 83.1657 0.325415C86.5748-0.0742635 88.1619-2.96667 87.3626-6.31197L86.4545-10.3252L93.0087-6.56453C96.3268-4.62931 99.8226-5.47203 101.582-8.67699C103.341-11.8302 102.373-15.3317 99.1114-17.2043L92.6201-21.0115L96.5317-22.2233C99.7875-23.1253 101.577-26.034 100.223-29.2335C99.047-31.9595 96.2246-33.3109 93.0772-31.7806L82.8735-26.6212L78.334-29.2322L65.2208-35.2606L78.3337-41.2895L82.8672-43.8995L93.0778-38.683C96.2251-37.0956 99.0519-38.5609 100.28-41.3389C101.634-44.4297 99.845-47.3383 96.532-48.2971L92.6198-49.5097L99.1111-53.3169C102.435-55.2521 103.403-58.6282 101.638-61.7865C99.8281-64.9293 96.27-65.8346 93.0085-63.9569L86.4545-60.2073L87.3629-64.1569C88.2193-67.5538 86.575-70.5039 83.1718-70.8467C80.2525-71.1893 77.5473-69.4437 77.3244-65.984L76.7076-54.4885L72.2311-51.8723L60.3557-43.5554L61.7157-57.963L61.7157-63.2354L71.3661-69.4579C74.2903-71.3934 74.4531-74.5467 72.7163-76.982C70.6724-79.673 67.2908-79.6317 64.7718-77.1936L61.7157-74.3991L61.7157-81.9557C61.7157-85.8203 59.3072-88.4218 55.6075-88.4218C51.9811-88.4218 49.5046-85.7633 49.5046-81.9557L49.5046-74.3993L46.4387-77.1936C43.9193-79.6317 40.6053-79.673 38.4988-76.982C36.6991-74.5467 36.9299-71.3931 39.8493-69.4631L49.5046-63.2357L49.5046-57.963L50.8587-43.4984L38.9895-51.8723L34.5075-54.5455L33.8903-65.984C33.6674-69.4437 30.9623-71.1893 28.0487-70.8467C24.6457-70.5042 23.0526-67.4969 23.8519-64.2139L24.7602-60.2073L18.2116-63.9569C14.956-65.8294 11.3867-64.9293 9.57635-61.7865C7.81187-58.6282 8.78525-55.1896 12.0465-53.3169L18.595-49.5097L14.6828-48.2971C11.3701-47.3383 9.63801-44.3833 10.9918-41.2821C12.2199-38.5612 14.9841-37.0956 18.1367-38.683L28.2906-43.894L32.881-41.2895L45.9939-35.2606L32.8807-29.2322L28.3474-26.6215L18.1376-31.8377C14.9904-33.4251 12.168-31.9595 10.9454-29.1816C9.58612-26.0806 11.3701-23.1824 14.6831-22.2233L18.5947-21.0115L12.1034-17.2043C8.84205-15.332 7.76054-11.825 9.57635-8.67671C11.3919-5.47203 14.8986-4.6348 18.2116-6.56453L24.7602-10.3143L23.8522-6.36903C22.9958-2.96667 24.6457-0.0171649 28.049 0.325415C31.0199 0.667994 33.6674-1.07699 33.8903-4.54195L34.513-16.0384L38.9895-18.6438L50.8587-26.9661L49.5046-12.5632L49.5046-7.28502L39.8493-1.06302C36.9299 0.872477 36.7563 4.02594 38.4988 6.46128C40.5481 9.15219 43.9193 9.111 46.4387 6.66742L49.5046 3.8786L49.5046 11.435C49.5046 15.2426 51.9811 17.9011 55.6075 17.9011Z"/>
  </g>
  <g id="Heavy-M" transform="matrix(1 0 0 1 2581.92 1126)">
   <path d="M54.7455 17.0012C58.0856 17.0012 60.2215 14.6666 60.2215 11.2053L60.2215 2.93798L64.5325 6.18598C66.8874 8.29989 69.8651 8.28973 71.7172 5.80841C73.2834 3.5859 72.998 0.739191 70.3213-0.996258L60.2215-7.29041L60.2215-12.7914L58.9455-27.8287L71.4999-19.2165L76.1846-16.4923L76.6316-4.66716C76.7897-1.4676 79.1352 0.212772 81.8182-0.092582C84.9214-0.397936 86.381-2.96715 85.7704-6.01945L85.0888-11.3857L92.2832-7.24109C95.2511-5.50336 98.3596-6.24989 99.9455-9.12147C101.531-11.9682 100.663-15.0907 97.7427-16.7684L90.6061-20.9216L95.5782-23.0184C98.4838-23.9545 100.027-26.5753 98.7603-29.4305C97.6367-31.8898 95.0257-33.0103 92.1932-31.5966L81.6974-26.0633L76.9571-28.7875L63.2122-35.2606L76.9594-41.7316L81.6878-44.4625L92.1887-38.8857C95.0212-37.4284 97.6577-38.6383 98.8063-41.1226C100.07-43.9069 98.5253-46.5277 95.5759-47.5097L90.6084-49.5996L97.7449-53.7528C100.727-55.4905 101.594-58.4954 99.9914-61.3607C98.376-64.1701 95.2052-64.9766 92.2855-63.2803L85.0888-59.1661L85.7681-64.4814C86.4224-67.561 84.9192-70.1693 81.8301-70.4287C79.1743-70.6904 76.7897-69.0146 76.6316-65.8773L76.1823-53.9582L71.4999-51.2153L58.9455-42.6031L60.2215-57.7508L60.2215-63.2354L70.3213-69.5295C72.998-71.265 73.2398-74.1117 71.7172-76.3342C69.9087-78.8156 66.8874-78.8257 64.5325-76.7282L60.2215-73.4638L60.2215-81.7311C60.2215-85.1924 58.0856-87.5271 54.7455-87.5271C51.5006-87.5271 49.2883-85.1488 49.2883-81.7311L49.2883-73.4615L44.9354-76.7282C42.5827-78.8257 39.6425-78.8156 37.7739-76.3342C36.1935-74.1117 36.5117-71.2673 39.1676-69.5482L49.2883-63.2331L49.2883-57.7508L50.5501-42.5595L38.0077-51.2153L33.3088-54.0018L32.8617-65.8773C32.7037-69.0146 30.3192-70.6904 27.6774-70.4287C24.586-70.167 23.1146-67.515 23.7253-64.525L24.4045-59.1661L17.2267-63.2803C14.3186-64.9579 11.1174-64.1701 9.502-61.3607C7.8997-58.4954 8.78269-55.4305 11.7048-53.7528L18.885-49.5996L13.9175-47.5097C10.9659-46.5277 9.46657-43.8984 10.7307-41.0767C11.8793-38.636 14.4557-37.4284 17.307-38.8857L27.762-44.4461L32.5339-41.7316L46.2811-35.2606L32.5362-28.7875L27.8079-26.061L17.3002-31.6402C14.4653-33.0975 11.8544-31.8898 10.7222-29.4055C9.44163-26.5815 10.9659-23.9981 13.9152-23.0184L18.8873-20.9216L11.7507-16.7684C8.82858-15.0885 7.87021-11.9495 9.502-9.12375C11.1361-6.24989 14.2773-5.51976 17.2267-7.24109L24.4045-11.3529L23.723-6.06305C23.0687-2.96715 24.586-0.354313 27.6752-0.092582C30.3582 0.169149 32.7037-1.51122 32.8617-4.66716L33.3252-16.5796L38.0077-19.2872L50.5501-27.9159L49.2883-12.7914L49.2883-7.29269L39.1676-0.993984C36.5117 0.741464 36.2372 3.5859 37.7739 5.80841C39.5988 8.28973 42.5827 8.29989 44.9354 6.18598L49.2883 2.9357L49.2883 11.2053C49.2883 14.6229 51.5006 17.0012 54.7455 17.0012Z"/>
  </g>
  <g id="Bold-M" transform="matrix(1 0 0 1 2286.18 1126)">
   <path d="M53.7813 15.9946C56.719 15.9946 58.5501 13.9583 58.5501 10.9482L58.5501 1.88607L64.2648 5.64743C66.4362 7.39254 69.0258 7.32495 70.5996 5.07808C71.911 3.09365 71.5524 0.589773 69.1525-0.921892L58.5501-7.29613L58.5501-13.0468L57.3679-28.9213L70.6818-19.9786L75.5998-17.1278L75.8566-4.80722C75.9421-1.96843 77.9498-0.360332 80.3107-0.560171C83.0719-0.76001 84.3888-2.96769 83.9892-5.69223L83.561-12.572L91.4715-7.99793C94.0478-6.48112 96.723-7.12003 98.1153-9.61869C99.5075-12.1226 98.7491-14.8212 96.2116-16.2808L88.3532-20.8211L94.5115-23.9078C97.0255-24.8821 98.293-27.1809 97.124-29.6509C96.0591-31.8118 93.6846-32.6739 91.2043-31.3907L80.3817-25.4393L75.4168-28.29L60.9653-35.2606L75.422-42.2262L80.3685-45.0923L91.194-39.1123C93.6744-37.8006 96.098-38.7249 97.1577-40.8806C98.3215-43.3221 97.049-45.6209 94.5064-46.6288L88.3583-49.7002L96.2167-54.2405C98.8166-55.7572 99.5698-58.3467 98.1489-60.8843C96.7516-63.3207 94.0141-64.0168 91.4767-62.5234L83.561-58.0015L83.9841-64.8445C84.4123-67.569 83.0668-69.795 80.3291-69.9611C77.9681-70.1324 75.9421-68.5346 75.8566-65.7581L75.5947-53.3651L70.6818-50.4805L57.3679-41.5377L58.5501-57.5134L58.5501-63.2354L69.1525-69.6096C71.5524-71.1213 71.8825-73.6252 70.5996-75.6096C69.0544-77.8565 66.4362-77.9241 64.2648-76.2076L58.5501-72.4176L58.5501-81.4798C58.5501-84.4899 56.719-86.5262 53.7813-86.5262C50.9632-86.5262 49.0463-84.4613 49.0463-81.4798L49.0463-72.4125L43.2538-76.2076C41.0875-77.9241 38.5654-77.8565 36.963-75.6096C35.628-73.6252 36.0439-71.1264 38.4051-69.6434L49.0463-63.2303L49.0463-57.5134L50.205-41.5092L36.9094-50.4805L31.968-53.3936L31.7111-65.7581C31.6256-68.5346 29.5997-70.1324 27.2621-69.9611C24.5193-69.7898 23.184-67.5353 23.5837-64.873L24.0067-58.0015L16.1249-62.5234C13.6057-63.983 10.8161-63.3207 9.41882-60.8843C7.99794-58.3467 8.77983-55.7001 11.3224-54.2405L19.2094-49.7002L13.0614-46.6288C10.5137-45.6209 9.2748-43.356 10.4386-40.847C11.4983-38.7198 13.8647-37.8006 16.3789-39.1123L27.1707-45.0637L32.1458-42.2262L46.6024-35.2606L32.1509-28.29L27.2044-25.4341L16.3635-31.4192C13.878-32.731 11.5035-31.8118 10.4724-29.6561C9.28-27.1418 10.5137-24.9107 13.0562-23.9078L19.2146-20.8211L11.3561-16.2808C8.81351-14.8161 7.99288-12.0888 9.41882-9.62382C10.8499-7.12003 13.5823-6.50972 16.1249-7.99793L24.0067-12.5147L23.5786-5.72076C23.1503-2.96769 24.5193-0.731461 27.257-0.560171C29.618-0.388882 31.6256-1.99698 31.7111-4.80722L31.9966-17.1849L36.9094-20.007L50.205-28.9784L49.0463-13.0468L49.0463-7.30127L38.4051-0.916758C36.0439 0.594907 35.6566 3.09365 36.963 5.07808C38.5368 7.32495 41.0875 7.39254 43.2538 5.64743L49.0463 1.88094L49.0463 10.9482C49.0463 13.9298 50.9632 15.9946 53.7813 15.9946Z"/>
  </g>
  <g id="Semibold-M" transform="matrix(1 0 0 1 1990.14 1126)">
   <path d="M53.1166 15.3007C55.7769 15.3007 57.3977 13.4701 57.3977 10.771L57.3977 1.1609L64.0803 5.27616C66.1252 6.76701 68.4472 6.65983 69.8291 4.57459C70.965 2.7543 70.5558 0.486766 68.3467-0.870625L57.3977-7.30008L57.3977-13.2228L56.2803-29.6746L70.1179-20.504L75.1967-17.5659L75.3223-4.90378C75.3579-2.31369 77.1326-0.755427 79.2715-0.882525C81.7969-1.00962 83.0155-2.96806 82.7613-5.46665L82.5078-13.3898L90.912-8.51969C93.2182-7.15518 95.5948-7.71991 96.8535-9.96147C98.1122-12.229 97.43-14.6354 95.1561-15.9447L86.8001-20.7518L93.7761-24.521C96.0201-25.5216 97.0976-27.5983 95.9959-29.8028C94.9715-31.758 92.7601-32.442 90.5225-31.2488L79.4747-25.009L74.355-27.9471L59.4163-35.2606L74.3621-42.5671L79.459-45.5265L90.5083-39.2686C92.7459-38.0571 95.0228-38.7846 96.0212-40.7138C97.1158-42.919 96.0312-44.9957 93.769-46.0216L86.8072-49.7695L95.1632-54.5766C97.4995-55.9411 98.1745-58.2442 96.8788-60.5559C95.6318-62.7352 93.193-63.3551 90.9191-62.0016L82.5078-57.1985L82.7542-65.0948C83.0265-67.5746 81.7898-69.5369 79.2944-69.6387C77.1365-69.7477 75.3579-68.2036 75.3223-65.6758L75.1896-52.9562L70.1179-49.9739L56.2803-40.8033L57.3977-57.3497L57.3977-63.2354L68.3467-69.6648C70.5558-71.0222 70.9468-73.2898 69.8291-75.1101C68.4654-77.1954 66.1252-77.3025 64.0803-75.8487L57.3977-71.6964L57.3977-81.3065C57.3977-84.0056 55.7769-85.8362 53.1166-85.8362C50.5926-85.8362 48.8795-83.9874 48.8795-81.3065L48.8795-71.6893L42.0946-75.8487C40.0567-77.3025 37.8229-77.1954 36.404-75.1101C35.2382-73.2898 35.7214-71.0293 37.8793-69.709L48.8795-63.2283L48.8795-57.3497L49.9671-40.7851L36.1523-49.9739L31.0436-52.9743L30.9179-65.6758C30.8823-68.2036 29.1037-69.7477 26.9758-69.6387C24.4732-69.5298 23.2319-67.5493 23.4861-65.113L23.7324-57.1985L15.3654-62.0016C13.1142-63.3109 10.6085-62.7352 9.36148-60.5559C8.06568-58.2442 8.77786-55.8859 11.0589-54.5766L19.4331-49.7695L12.4712-46.0216C10.2019-44.9957 9.14258-42.9821 10.2372-40.6886C11.2357-38.7775 13.4572-38.0571 15.739-39.2686L26.7631-45.4894L31.8782-42.5671L46.8239-35.2606L31.8853-27.9471L26.7884-25.0019L15.7177-31.2669C13.473-32.4783 11.2616-31.758 10.3002-29.8288C9.16857-27.5281 10.2019-25.5398 12.4641-24.521L19.4402-20.7518L11.0841-15.9447C8.80312-14.6283 8.07745-12.1848 9.36148-9.96858C10.6526-7.71991 13.1032-7.19219 15.3654-8.51969L23.7324-13.3156L23.479-5.48479C23.2066-2.96806 24.4732-0.991465 26.9687-0.882525C29.1077-0.773584 30.8823-2.33185 30.9179-4.90378L31.0806-17.6022L36.1523-20.5032L49.9671-29.7109L48.8795-13.2228L48.8795-7.30718L37.8793-0.863519C35.7214 0.493872 35.2563 2.7543 36.404 4.57459C37.8047 6.65983 40.0567 6.76701 42.0946 5.27616L48.8795 1.15379L48.8795 10.771C48.8795 13.4519 50.5926 15.3007 53.1166 15.3007Z"/>
  </g>
  <g id="Medium-M" transform="matrix(1 0 0 1 1693.93 1126)">
   <path d="M52.6126 14.7745C55.0625 14.7745 56.524 13.0999 56.524 10.6367L56.524 0.611038L63.9403 4.99464C65.8893 6.29272 68.0085 6.15552 69.2449 4.19283C70.2476 2.49699 69.8002 0.408662 67.7357-0.831752L56.524-7.30307L56.524-13.3562L55.4556-30.2457L69.6903-20.9023L74.891-17.8981L74.9172-4.97699C74.9149-2.57549 76.5129-1.055 78.4836-1.12695C80.8301-1.19889 81.9741-2.96834 81.8302-5.2956L81.7092-14.0098L90.4877-8.91531C92.5892-7.66627 94.7393-8.17476 95.8968-10.2214C97.0543-12.3097 96.4298-14.4945 94.3558-15.6898L85.6224-20.6992L93.2186-24.9859C95.2578-26.0065 96.1913-27.9149 95.1405-29.918C94.1469-31.7173 92.0591-32.2662 90.0056-31.1411L78.787-24.6828L73.5498-27.6871L58.2418-35.2606L73.5584-42.8256L78.7694-45.8557L89.9884-39.3871C92.0419-38.2517 94.2075-38.8298 95.1594-40.5873C96.2016-42.6133 95.2595-44.5217 93.21-45.5611L85.631-49.8221L94.3644-54.8315C96.5008-56.0805 97.1166-58.1665 95.9157-60.3069C94.7827-62.2912 92.5704-62.8533 90.4963-61.606L81.7092-56.5897L81.8216-65.2846C81.9758-67.5788 80.8215-69.3412 78.5099-69.3943C76.506-69.456 74.9149-67.9527 74.9172-65.6135L74.8824-52.6462L69.6903-49.5898L55.4556-40.2464L56.524-57.2256L56.524-63.2354L67.7357-69.7067C69.8002-70.9471 70.2374-73.0355 69.2449-74.7313C68.0188-76.694 65.8893-76.8312 63.9403-75.5766L56.524-71.1495L56.524-81.1752C56.524-83.6383 55.0625-85.313 52.6126-85.313C50.3117-85.313 48.7531-83.6281 48.7531-81.1752L48.7531-71.1409L41.2156-75.5766C39.2751-76.8312 37.2599-76.694 35.9801-74.7313C34.9425-73.0355 35.4769-70.9557 37.4807-69.7588L48.7531-63.2268L48.7531-57.2256L49.7866-40.2361L35.5782-49.5898L30.3427-52.6564L30.3164-65.6135C30.3188-67.9527 28.7277-69.456 26.7587-69.3943C24.4383-69.3326 23.2681-67.5599 23.412-65.2949L23.5245-56.5897L14.7894-61.606C12.7416-62.8013 10.451-62.2912 9.31801-60.3069C8.11703-58.1665 8.77637-56.0268 10.859-54.8315L19.6027-49.8221L12.0237-45.5611C9.96555-44.5217 9.04234-42.6986 10.0845-40.5685C11.0365-38.8212 13.1483-38.2517 15.2539-39.3871L26.454-45.8123L31.6752-42.8256L46.9918-35.2606L31.6838-27.6871L26.4729-24.6742L15.2281-31.1514C13.166-32.2868 11.0782-31.7173 10.1697-29.9597C9.08408-27.821 9.96555-26.0168 12.0151-24.9859L19.6113-20.6992L10.8779-15.6898C8.79524-14.4859 8.14157-12.2577 9.31801-10.23C10.503-8.17476 12.7399-7.70967 14.7894-8.91531L23.5245-13.923L23.4034-5.30587C23.2493-2.96834 24.4383-1.18861 26.7501-1.12695C28.7207-1.06528 30.3188-2.58577 30.3164-4.97699L30.3861-17.9186L35.5782-20.8794L49.7866-30.2663L48.7531-13.3562L48.7531-7.31166L37.4807-0.823151C35.4769 0.417263 34.9528 2.49699 35.9801 4.19283C37.2496 6.15552 39.2751 6.29272 41.2156 4.99464L48.7531 0.602438L48.7531 10.6367C48.7531 13.0896 50.3117 14.7745 52.6126 14.7745Z"/>
  </g>
  <g id="Regular-M" transform="matrix(1 0 0 1 1397.88 1126)">
   <path d="M51.9551 14.0882C54.1308 14.0882 55.3844 12.617 55.3844 10.4614L55.3844-0.10617L63.7578 4.62745C65.5817 5.67407 67.4363 5.49771 68.4829 3.69488C69.312 2.16137 68.8146 0.306786 66.9388-0.781048L55.3844-7.30697L55.3844-13.5303L54.38-30.9907L69.1326-21.422L74.4923-18.3314L74.3888-5.07249C74.337-2.91696 75.7047-1.44576 77.4558-1.44576C79.5691-1.44576 80.6158-2.96871 80.6158-5.07249L80.6675-14.8187L89.9343-9.43134C91.7688-8.33293 93.6234-8.76804 94.6489-10.5604C95.6744-12.4149 95.1252-14.3107 93.3118-15.3573L84.0863-20.6306L92.4913-25.5924C94.2635-26.6389 95.0091-28.3278 94.0248-30.0683C93.0712-31.6641 91.1447-32.0369 89.3313-31.0008L77.8899-24.2573L72.4996-27.3479L56.7099-35.2606L72.5102-43.1628L77.8699-46.285L89.3102-39.5416C91.1236-38.5055 93.1441-38.8889 94.0354-40.4224C95.0091-42.2146 94.2529-43.9034 92.4807-44.9606L84.0969-49.8907L93.3224-55.164C95.1981-56.2623 95.7367-58.0652 94.6595-59.9821C93.6752-61.7121 91.7582-62.1989 89.9449-61.0899L80.6675-55.7956L80.6053-65.5321C80.6053-67.5843 79.5586-69.086 77.4865-69.0755C75.6836-69.0755 74.337-67.6254 74.3888-65.5321L74.4817-52.2417L69.1326-49.0888L54.38-39.52L55.3844-57.0638L55.3844-63.2354L66.9388-69.7613C68.8146-70.8492 69.312-72.7038 68.4829-74.2373C67.4363-76.0401 65.5817-76.2165 63.7578-75.2216L55.3844-70.4362L55.3844-81.0038C55.3844-83.1594 54.1308-84.6306 51.9551-84.6306C49.9452-84.6306 48.5881-83.1594 48.5881-81.0038L48.5881-70.4256L40.069-75.2216C38.2557-76.2165 36.5256-76.0401 35.4273-74.2373C34.557-72.7038 35.1579-70.8597 36.9608-69.8237L48.5881-63.2249L48.5881-57.0638L49.5513-39.52L34.8293-49.0888L29.4285-52.2417L29.5319-65.5321C29.5837-67.6254 28.2371-69.0755 26.4755-69.0755C24.3928-69.0755 23.3155-67.5737 23.3155-65.5321L23.2532-55.7956L14.0382-61.0899C12.2555-62.1366 10.2456-61.7121 9.2613-59.9821C8.18402-58.0652 8.77442-56.2106 10.5983-55.164L19.8239-49.8907L11.44-44.9606C9.65723-43.9034 8.91158-42.3287 9.88534-40.4118C10.7767-38.8783 12.7453-38.5055 14.621-39.5416L26.0509-46.2333L31.4106-43.1628L47.2109-35.2606L31.4211-27.3479L26.0614-24.2468L14.5894-31.0008C12.7655-32.0369 10.839-31.6641 9.9994-30.1306C8.97387-28.2031 9.65723-26.6389 11.4294-25.5924L19.8344-20.6306L10.6089-15.3573C8.78497-14.3002 8.22521-12.3526 9.2613-10.5709C10.3079-8.76804 12.266-8.38465 14.0382-9.43134L23.2532-14.7151L23.3049-5.07249C23.3049-2.96871 24.3928-1.44576 26.465-1.44576C28.216-1.44576 29.5837-2.91696 29.5319-5.07249L29.4802-18.3314L34.8293-21.3701L49.5513-30.9907L48.5881-13.5303L48.5881-7.31751L36.9608-0.770497C35.1579 0.317337 34.557 2.16137 35.4273 3.69488C36.5256 5.49771 38.2557 5.67407 40.069 4.62745L48.5881-0.116719L48.5881 10.4614C48.5881 12.617 49.9452 14.0882 51.9551 14.0882Z"/>
  </g>
  <g id="Light-M" transform="matrix(1 0 0 1 1101.88 1126)">
   <path d="M51.2364 13.3867C52.8988 13.3867 53.8615 12.2577 53.8615 10.547L53.8615-1.80014L63.6894 3.84034C65.1368 4.66453 66.5637 4.50527 67.3878 3.11311C68.0458 1.92181 67.651 0.495004 66.1689-0.336162L53.8615-7.34118L53.8615-14.9676L53.148-31.8462L67.5755-22.8251L74.1501-19.0671L74.0808-4.91849C74.0461-3.20785 75.1058-2.07885 76.4634-2.07885C78.0634-2.07885 78.8876-3.24249 78.8876-4.91849L78.9222-16.3244L89.6777-10.0815C91.1528-9.22269 92.5797-9.55516 93.3485-10.9197C94.1173-12.3465 93.6879-13.7803 92.2681-14.6044L81.5197-20.7504L91.4304-26.5848C92.8433-27.4089 93.3836-28.7042 92.6217-30.0341C91.8393-31.2877 90.426-31.5578 89.0062-30.7612L76.6922-23.59L70.1383-27.3479L54.8105-35.2606L70.166-43.1457L76.7405-46.9866L88.9509-39.8154C90.3707-39.0188 91.9292-39.3166 92.6494-40.508C93.3836-41.8724 92.8156-43.1677 91.4028-44.0195L81.5473-49.7709L92.2957-55.9168C93.7779-56.7756 94.1796-58.1678 93.3762-59.657C92.6143-60.9592 91.1251-61.3262 89.7053-60.4397L78.9222-54.2385L78.86-65.7204C78.86-67.3618 78.0357-68.4701 76.4427-68.4424C75.0505-68.4424 74.0461-67.3687 74.0808-65.7204L74.1224-51.4889L67.5755-47.6686L53.148-38.6474L53.8615-55.6436L53.8615-63.2354L66.1689-70.2404C67.651-71.0716 68.0458-72.4984 67.3878-73.6897C66.5637-75.0819 65.1368-75.2412 63.6894-74.4516L53.8615-68.7764L53.8615-81.1236C53.8615-82.8343 52.8988-83.9633 51.2364-83.9633C49.7057-83.9633 48.6737-82.8343 48.6737-81.1236L48.6737-68.7488L38.6659-74.4516C37.2461-75.2412 35.9438-75.0819 35.0851-73.6897C34.4201-72.4984 34.8841-71.0992 36.2764-70.3027L48.6737-63.2077L48.6737-55.6436L49.3802-38.6474L34.932-47.6686L28.3505-51.4889L28.4197-65.7204C28.4544-67.3687 27.45-68.4424 26.0648-68.4424C24.4441-68.4424 23.6406-67.3341 23.6406-65.7204L23.5783-54.2385L12.8576-60.4397C11.417-61.264 9.88628-60.9592 9.12441-59.657C8.3209-58.1678 8.7573-56.741 10.2048-55.9168L20.9532-49.7709L11.0977-44.0195C9.65723-43.1677 9.11691-41.9694 9.85112-40.4803C10.5714-39.289 12.0951-39.0188 13.5773-39.8154L25.76-46.952L32.3346-43.1457L47.69-35.2606L32.3622-27.3479L25.7877-23.5623L13.4943-30.7612C12.0468-31.5578 10.6337-31.2877 9.94807-30.0963C9.17921-28.5795 9.65723-27.4089 11.0701-26.5848L20.9809-20.7504L10.2325-14.6044C8.78497-13.7526 8.32788-12.2842 9.12441-10.9474C9.94859-9.55516 11.4447-9.2573 12.8576-10.0815L23.5783-16.2551L23.6129-4.91849C23.6129-3.24249 24.4441-2.07885 26.0372-2.07885C27.3947-2.07885 28.4544-3.20785 28.4197-4.91849L28.3851-19.0671L34.932-22.7904L49.3802-31.8462L48.6737-14.9676L48.6737-7.36884L36.2764-0.3085C34.8841 0.522666 34.4201 1.92181 35.0851 3.11311C35.9438 4.50527 37.2461 4.66453 38.6659 3.84034L48.6737-1.82779L48.6737 10.547C48.6737 12.2577 49.7057 13.3867 51.2364 13.3867Z"/>
  </g>
  <g id="Thin-M" transform="matrix(1 0 0 1 806.111 1126)">
   <path d="M50.2859 12.4588C51.2694 12.4588 51.8474 11.7824 51.8474 10.6602L51.8474-4.04055L63.5989 2.79934C64.5485 3.32933 65.4095 3.1927 65.9395 2.34367C66.3711 1.60499 66.1121 0.743936 65.1505 0.252236L51.8474-7.38643L51.8474-16.8686L51.5186-32.9778L65.5161-24.6808L73.6974-20.0402L73.6735-4.71481C73.6615-3.59258 74.3138-2.91617 75.1508-2.91617C76.0719-2.91617 76.6019-3.60457 76.6019-4.71481L76.6139-18.3159L89.3382-10.9415C90.3381-10.3995 91.1992-10.5962 91.6285-11.395C92.0579-12.256 91.7869-13.0787 90.8876-13.6087L78.1251-20.9088L90.0273-27.8973C90.9649-28.4273 91.2337-29.2021 90.766-29.9888C90.2099-30.7898 89.4756-30.9241 88.5762-30.4444L75.108-22.7074L67.0153-27.3479L52.2985-35.2606L67.0655-43.1231L75.2469-47.9145L88.4757-40.1774C89.375-39.6977 90.3224-39.8824 90.8163-40.6211C91.2337-41.4198 90.9146-42.1946 89.977-42.7748L78.1753-49.6125L90.9379-56.9126C91.8996-57.4545 92.1203-58.3036 91.6789-59.227C91.2112-59.9634 90.2878-60.1721 89.3885-59.5798L76.6139-52.1791L76.5516-65.9693C76.5516-67.0676 76.0216-67.6554 75.0623-67.6051C74.2132-67.6051 73.6615-67.0293 73.6735-65.9693L73.6472-50.4931L65.5161-45.7902L51.5186-37.4932L51.8474-53.7652L51.8474-63.2354L65.1505-70.8741C66.1121-71.3658 66.3711-72.2268 65.9395-72.9655C65.4095-73.8145 64.5485-73.9512 63.5989-73.4332L51.8474-66.5813L51.8474-81.282C51.8474-82.4043 51.2694-83.0807 50.2859-83.0807C49.3889-83.0807 48.7869-82.4043 48.7869-81.282L48.7869-66.531L36.8102-73.4332C35.9109-73.9512 35.1744-73.8145 34.6324-72.9655C34.2391-72.2268 34.5221-71.4161 35.3711-70.9364L48.7869-63.1851L48.7869-53.7652L49.1539-37.4932L35.0678-45.7902L26.9248-50.4931L26.9487-65.9693C26.9607-67.0293 26.409-67.6051 25.5217-67.6051C24.512-67.6051 24.0706-67.0173 24.0706-65.9693L24.0083-52.1791L11.296-59.5798C10.3081-60.1098 9.41104-59.9634 8.94336-59.227C8.50195-58.3036 8.73467-57.4425 9.68429-56.9126L22.4469-49.6125L10.6451-42.7748C9.65723-42.1946 9.38847-41.4942 9.80586-40.5709C10.2998-39.8322 11.2352-39.6977 12.1968-40.1774L25.3753-47.9025L33.5567-43.1231L48.3237-35.2606L33.607-27.3479L25.4256-22.6571L12.0459-30.4444C11.0963-30.9241 10.3621-30.7898 9.88018-30.0511C9.45077-29.0774 9.65723-28.4273 10.5948-27.8973L22.4971-20.9088L9.73458-13.6087C8.78497-13.0284 8.46367-12.1936 8.94336-11.4452C9.47335-10.5962 10.3584-10.4115 11.296-10.9415L24.0083-18.2919L24.0203-4.71481C24.0203-3.60457 24.512-2.91617 25.4714-2.91617C26.3084-2.91617 26.9607-3.59258 26.9487-4.71481L26.9368-20.0402L35.0678-24.6688L49.1539-32.9778L48.7869-16.8686L48.7869-7.43671L35.3711 0.302529C34.5221 0.794229 34.2391 1.60499 34.6324 2.34367C35.1744 3.1927 35.9109 3.32933 36.8102 2.79934L48.7869-4.09083L48.7869 10.6602C48.7869 11.7824 49.3889 12.4588 50.2859 12.4588Z"/>
  </g>
  <g id="Ultralight-M" transform="matrix(1 0 0 1 509.881 1126)">
   <path d="M49.7991 11.9836C50.4348 11.9836 50.8158 11.539 50.8158 10.7181L50.8158-5.18807L63.5525 2.26614C64.2471 2.64544 64.8184 2.5204 65.1976 1.94957C65.5134 1.44271 65.3239 0.871438 64.6289 0.553611L50.8158-7.40961L50.8158-17.8423L50.684-33.5573L64.4613-25.6312L73.4656-20.5387L73.4648-4.61048C73.4644-3.78964 73.9081-3.34503 74.4786-3.34503C75.0519-3.34503 75.4312-3.79003 75.4312-4.61048L75.4316-19.3359L89.1643-11.3819C89.9208-11.0022 90.4921-11.1294 90.7475-11.6384C91.0031-12.2096 90.8133-12.7194 90.1805-13.0987L76.3864-20.9899L89.3087-28.5696C90.0029-28.9489 90.1325-29.4571 89.8155-29.9657C89.3753-30.5348 88.9887-30.5996 88.356-30.2821L74.2966-22.2553L65.4156-27.3479L51.0119-35.2606L65.4775-43.1115L74.4818-48.3897L88.2323-40.3629C88.865-40.0455 89.4994-40.1722 89.8774-40.6791C90.1325-41.1879 89.941-41.6961 89.2468-42.1373L76.4482-49.5314L90.2424-57.4226C90.9375-57.8023 91.0655-58.3731 90.8096-59.0068C90.4925-59.4533 89.8589-59.5809 89.2262-59.1394L75.4316-51.1243L75.3693-66.0968C75.3693-66.9168 74.99-67.2381 74.3552-67.1762C73.7844-67.1762 73.4644-66.8554 73.4648-66.0968L73.4037-49.9831L64.4613-44.8282L50.684-36.9021L50.8158-52.8032L50.8158-63.2354L64.6289-71.1986C65.3239-71.5165 65.5134-72.0877 65.1976-72.5946C64.8184-73.1654 64.2471-73.2905 63.5525-72.9116L50.8158-65.4569L50.8158-81.3632C50.8158-82.184 50.4348-82.6286 49.7991-82.6286C49.2266-82.6286 48.8448-82.184 48.8448-81.3632L48.8448-65.3951L35.8597-72.9116C35.227-73.2905 34.7803-73.1654 34.4006-72.5946C34.1464-72.0877 34.3366-71.5783 34.9075-71.2609L48.8448-63.1735L48.8448-52.8032L49.038-36.9021L35.1374-44.8282L26.1945-49.9831L26.1953-66.0968C26.1957-66.8554 25.8758-67.1762 25.2435-67.1762C24.5467-67.1762 24.2908-66.855 24.2908-66.0968L24.2285-51.1243L10.4962-59.1394C9.74016-59.5187 9.16763-59.4533 8.85063-59.0068C8.59467-58.3731 8.72308-57.8019 9.41769-57.4226L23.2119-49.5314L10.4133-42.1373C9.65723-41.6961 9.52756-41.2507 9.78267-40.6172C10.1607-40.1104 10.7947-40.0455 11.4897-40.3629L25.1783-48.3893L34.1826-43.1115L48.6482-35.2606L34.2445-27.3479L25.2402-22.1935L11.3041-30.2821C10.6095-30.5996 10.223-30.5348 9.8454-30.0279C9.58987-29.3324 9.65723-28.9489 10.3514-28.5696L23.2738-20.9899L9.47957-13.0987C8.78497-12.6575 8.53321-12.1472 8.85063-11.7002C9.22994-11.1294 9.80204-11.0026 10.4962-11.3819L24.2285-19.3351L24.2289-4.61048C24.2289-3.79003 24.5467-3.34503 25.1816-3.34503C25.752-3.34503 26.1957-3.78964 26.1953-4.61048L26.1949-20.5387L35.1374-25.6309L49.038-33.5573L48.8448-17.8423L48.8448-7.47148L34.9075 0.615495C34.3366 0.933323 34.1464 1.44271 34.4006 1.94957C34.7803 2.5204 35.227 2.64544 35.8597 2.26614L48.8448-5.24994L48.8448 10.7181C48.8448 11.539 49.2266 11.9836 49.7991 11.9836Z"/>
  </g>
  <g id="Black-S" transform="matrix(1 0 0 1 2889.58 696)">
   <path d="M43.7988 6.64062C46.7773 6.64062 48.7305 4.54102 48.7305 1.41602L48.7305-4.39453L50.8301-2.29492C52.832-0.292969 55.5176-0.244141 57.2266-2.39258C58.6914-4.3457 58.5449-6.88477 56.2012-8.44727L48.7305-13.3301L48.7305-17.4805L47.6562-28.418L56.7383-22.0215L60.2539-19.9707L60.791-11.1328C60.9863-8.30078 63.1348-6.93359 65.5273-7.27539C68.2617-7.61719 69.5312-9.96094 68.8477-12.6465L68.0664-15.4785L73.0957-12.5977C75.7812-11.0352 78.6133-11.7188 80.0293-14.3066C81.4453-16.8457 80.6641-19.6777 78.0273-21.1914L73.0469-24.1211L75.8789-24.8535C78.5156-25.5371 79.9805-27.8809 78.9062-30.4688C77.9785-32.666 75.7324-33.7891 73.1934-32.5684L65.2344-28.6133L61.6699-30.6641L51.6113-35.2539L61.6699-39.8438L65.2344-41.8945L73.1934-37.8906C75.7324-36.6211 77.9785-37.8418 78.9551-40.0879C80.0293-42.5781 78.5645-44.9219 75.8789-45.6543L73.0469-46.3867L78.0273-49.3164C80.7129-50.8789 81.4941-53.6133 80.0781-56.1523C78.6133-58.6914 75.7324-59.4238 73.0957-57.9102L68.0664-55.0293L68.8477-57.8125C69.5801-60.5469 68.2617-62.9395 65.5273-63.2324C63.1836-63.5254 60.9863-62.1582 60.791-59.375L60.2539-50.4395L56.7383-48.3887L47.6562-41.9922L48.7305-53.0273L48.7305-57.1777L56.2012-62.0605C58.5449-63.623 58.6426-66.1621 57.2266-68.1152C55.5664-70.2637 52.832-70.2148 50.8301-68.2129L48.7305-66.1133L48.7305-71.9238C48.7305-75.0488 46.7773-77.1484 43.7988-77.1484C40.8691-77.1484 38.8672-75 38.8672-71.9238L38.8672-66.1133L36.7676-68.2129C34.7656-70.2148 32.0801-70.2637 30.3711-68.1152C28.9062-66.1621 29.0527-63.623 31.3965-62.0605L38.8672-57.1777L38.8672-53.0273L39.9414-41.9434L30.8594-48.3887L27.3438-50.4883L26.8066-59.375C26.6113-62.1582 24.4141-63.5254 22.0703-63.2324C19.3359-62.9395 18.0664-60.498 18.75-57.8613L19.5312-55.0293L14.502-57.9102C11.8652-59.4238 8.98438-58.6914 7.51953-56.1523C6.10352-53.6133 6.88477-50.8301 9.52148-49.3164L14.5508-46.3867L11.7188-45.6543C9.0332-44.9219 7.61719-42.5293 8.69141-40.0391C9.66797-37.8418 11.8652-36.6211 14.4043-37.8906L22.3145-41.8945L25.9277-39.8438L35.9863-35.2539L25.9277-30.6641L22.3633-28.6133L14.4043-32.6172C11.8652-33.8867 9.61914-32.666 8.64258-30.4199C7.56836-27.9297 9.0332-25.5859 11.7188-24.8535L14.5508-24.1211L9.57031-21.1914C6.93359-19.6777 6.05469-16.8457 7.51953-14.3066C8.98438-11.7188 11.8164-11.0352 14.502-12.5977L19.5312-15.4785L18.75-12.6953C18.0176-9.96094 19.3359-7.56836 22.0703-7.27539C24.4629-6.98242 26.6113-8.34961 26.8066-11.1328L27.3438-20.0684L30.8594-22.1191L39.9414-28.5156L38.8672-17.4805L38.8672-13.3301L31.3965-8.44727C29.0527-6.88477 28.9551-4.3457 30.3711-2.39258C32.0312-0.244141 34.7656-0.292969 36.7676-2.29492L38.8672-4.39453L38.8672 1.41602C38.8672 4.49219 40.8691 6.64062 43.7988 6.64062Z"/>
  </g>
  <g id="Heavy-S" transform="matrix(1 0 0 1 2593.52 696)">
   <path d="M43.1534 5.96068C45.8899 5.96068 47.6472 4.04547 47.6472 1.20858L47.6472-4.98228L50.6342-2.60608C52.5439-0.857668 54.9875-0.854937 56.5121-2.87661C57.804-4.69144 57.5884-7.02306 55.406-8.44727L47.6472-13.3301L47.6472-17.492L46.6075-29.144L56.3119-22.4249L59.8505-20.3625L60.2378-11.2596C60.3755-8.64651 62.305-7.29085 64.5016-7.55198C67.0401-7.81311 68.229-9.92637 67.7068-12.416L67.1214-16.193L72.508-13.0932C74.9399-11.669 77.4954-12.2835 78.7962-14.6408C80.0969-16.9725 79.3849-19.5394 76.9901-20.9148L71.6524-24.0289L75.1989-25.4067C77.5821-26.1479 78.8626-28.2958 77.8344-30.6417C76.9298-32.6545 74.7989-33.5932 72.4789-32.4416L64.3816-28.2215L60.794-30.2838L50.1362-35.2539L60.794-40.2241L64.3701-42.2863L72.4789-38.0289C74.7989-36.8401 76.9413-37.8533 77.8718-39.892C78.8999-42.1747 77.6195-44.3226 75.1989-45.1011L71.6524-46.4789L76.9901-49.593C79.4337-51.0172 80.1457-53.4865 78.8335-55.8296C77.507-58.1382 74.9026-58.8015 72.508-57.4146L67.1214-54.3378L67.7068-58.066C68.2663-60.5815 67.0401-62.732 64.5132-62.9558C62.3423-63.1797 60.3755-61.824 60.2378-59.2598L59.8505-50.0822L56.3119-48.0084L46.6075-41.2892L47.6472-53.0273L47.6472-57.1777L55.406-62.0605C57.5884-63.4847 57.7667-65.8164 56.5121-67.6312C55.0248-69.6529 52.5439-69.6501 50.6342-67.9133L47.6472-65.5255L47.6472-71.7164C47.6472-74.5533 45.8899-76.4685 43.1534-76.4685C40.4888-76.4685 38.6713-74.516 38.6713-71.7164L38.6713-65.5255L35.6613-67.9133C33.7515-69.6501 31.331-69.6529 29.7949-67.6312C28.4913-65.8164 28.73-63.4847 30.901-62.072L38.6713-57.1777L38.6713-53.0273L39.6994-41.2519L30.0066-48.0084L26.4564-50.1195L26.069-59.2598C25.9314-61.824 23.9646-63.1797 21.8052-62.9558C19.2783-62.732 18.0779-60.5441 18.6002-58.1033L19.1855-54.3378L13.8105-57.4146C11.4273-58.79 8.79999-58.1382 7.47343-55.8296C6.16114-53.4865 6.88477-50.9684 9.27947-49.593L14.6545-46.4789L11.108-45.1011C8.68747-44.3226 7.44432-42.1605 8.47244-39.8547C9.40291-37.8533 11.4964-36.8401 13.8281-38.0289L21.8996-42.2748L25.5128-40.2241L36.1707-35.2539L25.5128-30.2838L21.9369-28.2215L13.8281-32.4789C11.508-33.6677 9.37713-32.6545 8.45819-30.6158C7.41854-28.31 8.68747-26.1852 11.108-25.4067L14.6545-24.0289L9.31677-20.9148C6.92207-19.5394 6.13536-16.9609 7.47343-14.6408C8.81151-12.2835 11.39-11.6806 13.8105-13.0932L19.1855-16.17L18.6002-12.4533C18.0406-9.92637 19.2783-7.7758 21.8052-7.55198C24.0019-7.32816 25.9314-8.68382 26.069-11.2596L26.4679-20.4372L30.0066-22.4879L39.6994-29.2186L38.6713-17.492L38.6713-13.3301L30.901-8.44727C28.73-7.02306 28.5287-4.69144 29.7949-2.87661C31.2936-0.854937 33.7515-0.857668 35.6613-2.60608L38.6713-4.98228L38.6713 1.20858C38.6713 4.00816 40.4888 5.96068 43.1534 5.96068Z"/>
  </g>
  <g id="Bold-S" transform="matrix(1 0 0 1 2297.54 696)">
   <path d="M42.4316 5.2002C44.8975 5.2002 46.4356 3.49122 46.4356 0.976564L46.4356-5.63965L50.4151-2.9541C52.2216-1.48926 54.3946-1.53809 55.7129-3.41797C56.8115-5.07812 56.5185-7.17773 54.5166-8.44727L46.4356-13.3301L46.4356-17.5049L45.4345-29.9561L55.835-22.876L59.3994-20.8008L59.6192-11.4013C59.6924-9.0332 61.3769-7.69043 63.3545-7.86133C65.6738-8.03223 66.7724-9.8877 66.4307-12.1582L66.0645-16.9922L71.8506-13.6475C73.999-12.3779 76.2451-12.9151 77.417-15.0147C78.5888-17.1142 77.9541-19.3847 75.8301-20.6055L70.0928-23.9258L74.4385-26.0254C76.5381-26.8311 77.6123-28.7598 76.6357-30.835C75.7569-32.6416 73.7548-33.3741 71.6797-32.2998L63.4277-27.7832L59.8144-29.8584L48.4863-35.2539L59.8144-40.6495L63.4033-42.7246L71.6797-38.1836C73.7548-37.0849 75.7813-37.8662 76.6602-39.6728C77.6367-41.7236 76.5625-43.6524 74.4385-44.4824L70.0928-46.582L75.8301-49.9024C78.0029-51.1719 78.6376-53.3447 77.4414-55.4688C76.2695-57.5196 73.9746-58.1055 71.8506-56.8604L66.0645-53.5645L66.4307-58.3496C66.7969-60.6202 65.6738-62.5 63.3789-62.6465C61.4013-62.793 59.6924-61.4502 59.6192-59.1309L59.3994-49.6826L55.835-47.583L45.4345-40.5029L46.4356-53.0273L46.4356-57.1777L54.5166-62.0605C56.5185-63.3301 56.7871-65.4297 55.7129-67.0898C54.419-68.9697 52.2216-69.0186 50.4151-67.5781L46.4356-64.8682L46.4356-71.4844C46.4356-73.999 44.8975-75.708 42.4316-75.708C40.0634-75.708 38.4522-73.9746 38.4522-71.4844L38.4522-64.8682L34.4239-67.5781C32.6172-69.0186 30.4932-68.9697 29.1504-67.0898C28.0273-65.4297 28.3691-63.3301 30.3467-62.085L38.4522-57.1777L38.4522-53.0273L39.4287-40.4785L29.0527-47.583L25.4639-49.707L25.2441-59.1309C25.1709-61.4502 23.462-62.793 21.5088-62.6465C19.2138-62.5 18.0908-60.5957 18.4326-58.374L18.7988-53.5645L13.0371-56.8604C10.9375-58.0811 8.59375-57.5196 7.42188-55.4688C6.22559-53.3447 6.88477-51.123 9.00878-49.9024L14.7705-46.582L10.4248-44.4824C8.30078-43.6524 7.25098-41.7481 8.22754-39.6484C9.10645-37.8662 11.084-37.0849 13.1836-38.1836L21.4355-42.7002L25.0488-40.6495L36.3769-35.2539L25.0488-29.8584L21.4599-27.7832L13.1836-32.3242C11.1084-33.4229 9.10644-32.6416 8.25196-30.8349C7.25098-28.7354 8.30078-26.8555 10.4248-26.0254L14.7705-23.9258L9.0332-20.6055C6.90918-19.3847 6.22559-17.0898 7.42188-15.0147C8.61816-12.9151 10.9131-12.4024 13.0371-13.6475L18.7988-16.9434L18.4326-12.1826C18.0664-9.8877 19.2138-8.00781 21.5088-7.86133C23.4864-7.71485 25.1709-9.05761 25.2441-11.4013L25.4883-20.8496L29.0527-22.9004L39.4287-30.0048L38.4522-17.5049L38.4522-13.3301L30.3467-8.44727C28.3691-7.17773 28.0518-5.07812 29.1504-3.41797C30.4687-1.53809 32.6172-1.48926 34.4239-2.9541L38.4522-5.63965L38.4522 0.976564C38.4522 3.4668 40.0634 5.2002 42.4316 5.2002Z"/>
  </g>
  <g id="Semibold-S" transform="matrix(1 0 0 1 2001.33 696)">
   <path d="M41.934 4.67588C44.2132 4.67588 45.6002 3.10909 45.6002 0.816603L45.6002-6.09287L50.264-3.19404C51.9995-1.92471 53.9858-2.00908 55.1619-3.79121C56.1272-5.34473 55.781-7.28437 53.9034-8.44727L45.6002-13.3301L45.6002-17.5138L44.6259-30.5159L55.5061-23.187L59.0884-21.103L59.1926-11.4991C59.2214-9.2998 60.7371-7.96592 62.5635-8.07461C64.7318-8.1833 65.7683-9.86103 65.5509-11.9805L65.3357-17.5432L71.3974-14.0296C73.3503-12.8667 75.3831-13.3505 76.4661-15.2724C77.5491-17.212 76.9677-19.2781 75.0303-20.3922L69.0175-23.8547L73.9141-26.452C75.8182-27.302 76.7503-29.0797 75.8092-30.9683C74.9482-32.6327 73.035-33.223 71.1287-32.202L62.7701-27.481L59.1391-29.5651L47.3488-35.2539L59.1391-40.9427L62.7368-43.0268L71.1287-38.2903C73.035-37.2538 74.9815-37.8751 75.8248-39.5218C76.7658-41.4126 75.8338-43.1902 73.9141-44.0558L69.0175-46.6531L75.0303-50.1156C77.0165-51.2785 77.5979-53.247 76.4816-55.2199C75.4164-57.093 73.3348-57.6256 71.3974-56.4782L65.3357-53.0312L65.5509-58.5451C65.7838-60.6468 64.7318-62.34 62.5969-62.4332C60.7526-62.5263 59.2214-61.1925 59.1926-59.042L59.0884-49.4072L55.5061-47.2897L44.6259-39.9609L45.6002-53.0273L45.6002-57.1777L53.9034-62.0605C55.781-63.2234 56.1117-65.1631 55.1619-66.7166C54.0013-68.4988 51.9995-68.5831 50.264-67.3471L45.6002-64.4149L45.6002-71.3244C45.6002-73.6169 44.2132-75.1837 41.934-75.1837C39.7702-75.1837 38.3011-73.6014 38.3011-71.3244L38.3011-64.4149L33.5707-67.3471C31.8352-68.5831 29.9155-68.4988 28.7061-66.7166C27.7074-65.1631 28.1203-63.2234 29.9646-62.0938L38.3011-57.1777L38.3011-53.0273L39.2421-39.9453L28.3951-47.2897L24.7796-49.4227L24.6753-59.042C24.6466-61.1925 23.1154-62.5263 21.3044-62.4332C19.1694-62.34 18.0997-60.6313 18.3171-58.5606L18.5322-53.0312L12.5039-56.4782C10.5998-57.5923 8.45156-57.093 7.38633-55.2199C6.27002-53.247 6.88477-51.2297 8.82216-50.1156L14.8505-46.6531L9.95382-44.0558C8.03418-43.1902 7.11768-41.4637 8.05869-39.5063C8.90205-37.8751 10.7996-37.2538 12.7393-38.2903L21.1156-42.9935L24.7289-40.9427L36.5191-35.2539L24.7289-29.5651L21.1311-27.481L12.7393-32.2175C10.8329-33.254 8.91982-32.6327 8.10977-30.986C7.13545-29.0286 8.03418-27.3176 9.95382-26.452L14.8505-23.8547L8.83769-20.3922C6.90029-19.2781 6.28779-17.1787 7.38633-15.2724C8.48486-13.3505 10.5843-12.9 12.5039-14.0296L18.5322-17.4766L18.3171-11.996C18.0842-9.86103 19.1694-8.16778 21.3044-8.07461C23.1309-7.98145 24.6466-9.31533 24.6753-11.4991L24.8129-21.134L28.3951-23.1847L39.2421-30.5469L38.3011-17.5138L38.3011-13.3301L29.9646-8.44727C28.1203-7.28437 27.7229-5.34473 28.7061-3.79121C29.8999-2.00908 31.8352-1.92471 33.5707-3.19404L38.3011-6.09287L38.3011 0.816603C38.3011 3.09356 39.7702 4.67588 41.934 4.67588Z"/>
  </g>
  <g id="Medium-S" transform="matrix(1 0 0 1 1704.99 696)">
   <path d="M41.5567 4.27832C43.6943 4.27832 44.9668 2.81934 44.9668 0.695313L44.9668-6.43653L50.1494-3.37598C51.831-2.25489 53.6758-2.36621 54.7441-4.07422C55.6084-5.54688 55.2217-7.36523 53.4385-8.44727L44.9668-13.3301L44.9668-17.5205L44.0127-30.9404L55.2568-23.4229L58.8525-21.3321L58.8692-11.5732C58.8642-9.50195 60.2519-8.17481 61.9638-8.23633C64.0175-8.29786 65.0068-9.84082 64.8838-11.8457L64.7832-17.961L71.0537-14.3194C72.8584-13.2373 74.7295-13.6807 75.7451-15.4678C76.7607-17.2861 76.2197-19.1973 74.4238-20.2304L68.2022-23.8008L73.5166-26.7754C75.2724-27.6592 76.0967-29.3223 75.1826-31.0694C74.335-32.626 72.4892-33.1084 70.7109-32.1279L62.2715-27.2519L58.627-29.3428L46.4863-35.2539L58.627-41.1651L62.2315-43.2559L70.7109-38.3711C72.4892-37.3818 74.375-37.8818 75.1914-39.4072C76.1054-41.1767 75.2812-42.8398 73.5166-43.7324L68.2022-46.707L74.4238-50.2774C76.2686-51.3593 76.8095-53.1729 75.7539-55.0313C74.7695-56.7696 72.8496-57.2617 71.0537-56.1884L64.7832-52.6269L64.8838-58.6933C65.0157-60.667 64.0175-62.2187 62.0039-62.2714C60.2607-62.3242 58.8642-60.9971 58.8692-58.9746L58.8525-49.1983L55.2568-47.0674L44.0127-39.5498L44.9668-53.0273L44.9668-57.1777L53.4385-62.0605C55.2217-63.1426 55.5996-64.961 54.7441-66.4336C53.6846-68.1416 51.831-68.253 50.1494-67.1719L44.9668-64.0713L44.9668-71.2031C44.9668-73.3271 43.6943-74.7861 41.5567-74.7861C39.5478-74.7861 38.1865-73.3183 38.1865-71.2031L38.1865-64.0713L32.9238-67.1719C31.2422-68.253 29.4775-68.1416 28.3692-66.4336C27.4648-64.961 27.9316-63.1426 29.6748-62.1006L38.1865-57.1777L38.1865-53.0273L39.1006-39.541L27.8965-47.0674L24.2608-49.207L24.2441-58.9746C24.249-60.9971 22.8526-62.3242 21.1494-62.2714C19.1357-62.2187 18.1064-60.6582 18.2295-58.7021L18.3301-52.6269L12.0996-56.1884C10.3438-57.2217 8.34375-56.7696 7.35938-55.0313C6.30371-53.1729 6.88477-51.3105 8.68066-50.2774L14.9111-46.707L9.59669-43.7324C7.83203-42.8398 7.01661-41.2481 7.93066-39.3984C8.74707-37.8818 10.5839-37.3818 12.4024-38.3711L20.873-43.2158L24.4863-41.1651L36.627-35.2539L24.4863-29.3428L20.8818-27.2519L12.4024-32.1367C10.624-33.126 8.77832-32.626 8.00195-31.1006C7.04785-29.251 7.83203-27.668 9.59669-26.7754L14.9111-23.8008L8.68945-20.2304C6.89356-19.1973 6.33496-17.2461 7.35938-15.4678C8.38379-13.6807 10.335-13.2773 12.0996-14.3194L18.3301-17.8809L18.2295-11.8545C18.0976-9.84082 19.1357-8.28907 21.1494-8.23633C22.8614-8.1836 24.249-9.51074 24.2441-11.5732L24.3008-21.3496L27.8965-23.4004L39.1006-30.958L38.1865-17.5205L38.1865-13.3301L29.6748-8.44727C27.9316-7.36523 27.4736-5.54688 28.3692-4.07422C29.4687-2.36621 31.2422-2.25489 32.9238-3.37598L38.1865-6.43653L38.1865 0.695313C38.1865 2.81055 39.5478 4.27832 41.5567 4.27832Z"/>
  </g>
  <g id="Regular-S" transform="matrix(1 0 0 1 1408.78 696)">
   <path d="M41.0645 3.75977C43.0176 3.75977 44.1406 2.44141 44.1406 0.537109L44.1406-6.88477L50-3.61328C51.6113-2.68555 53.2715-2.83203 54.1992-4.44336C54.9316-5.81055 54.4922-7.4707 52.832-8.44727L44.1406-13.3301L44.1406-17.5293L43.2129-31.4941L54.9316-23.7305L58.5449-21.6309L58.4473-11.6699C58.3984-9.76562 59.6191-8.44727 61.1816-8.44727C63.0859-8.44727 64.0137-9.81445 64.0137-11.6699L64.0625-18.5059L70.6055-14.6973C72.2168-13.7207 73.877-14.1113 74.8047-15.7227C75.7324-17.3828 75.2441-19.0918 73.6328-20.0195L67.1387-23.7305L72.998-27.1973C74.5605-28.125 75.2441-29.6387 74.3652-31.2012C73.5352-32.6172 71.7773-32.959 70.166-32.0312L61.6211-26.9531L57.959-29.0527L45.3613-35.2539L57.959-41.4551L61.5723-43.5547L70.166-38.4766C71.7773-37.5488 73.584-37.8906 74.3652-39.2578C75.2441-40.8691 74.5605-42.3828 72.998-43.3105L67.1387-46.7773L73.6328-50.4883C75.293-51.4648 75.7812-53.0762 74.8047-54.7852C73.9258-56.3477 72.2168-56.7871 70.6055-55.8105L64.0625-52.0996L64.0137-58.8867C64.0137-60.6934 63.0859-62.0605 61.2305-62.0605C59.6191-62.0605 58.3984-60.7422 58.4473-58.8867L58.5449-48.9258L54.9316-46.7773L43.2129-39.0137L44.1406-53.0273L44.1406-57.1777L52.832-62.0605C54.4922-63.0371 54.9316-64.6973 54.1992-66.0645C53.2715-67.6758 51.6113-67.8223 50-66.9434L44.1406-63.623L44.1406-71.0449C44.1406-72.9492 43.0176-74.2676 41.0645-74.2676C39.2578-74.2676 38.0371-72.9492 38.0371-71.0449L38.0371-63.623L32.0801-66.9434C30.4688-67.8223 28.9062-67.6758 27.9297-66.0645C27.1484-64.6973 27.6855-63.0371 29.2969-62.1094L38.0371-57.1777L38.0371-53.0273L38.916-39.0137L27.2461-46.7773L23.584-48.9258L23.6816-58.8867C23.7305-60.7422 22.5098-62.0605 20.9473-62.0605C19.0918-62.0605 18.1152-60.6934 18.1152-58.8867L18.0664-52.0996L11.5723-55.8105C10.0098-56.7383 8.20312-56.3477 7.32422-54.7852C6.34766-53.0762 6.88477-51.416 8.49609-50.4883L14.9902-46.7773L9.13086-43.3105C7.56836-42.3828 6.88477-40.9668 7.76367-39.2578C8.54492-37.8906 10.3027-37.5488 11.9629-38.4766L20.5566-43.5059L24.1699-41.4551L36.7676-35.2539L24.1699-29.0527L20.5566-26.9531L11.9629-32.0312C10.3516-32.959 8.59375-32.6172 7.86133-31.25C6.93359-29.541 7.56836-28.125 9.13086-27.1973L14.9902-23.7305L8.49609-20.0195C6.88477-19.0918 6.39648-17.334 7.32422-15.7227C8.25195-14.1113 10.0098-13.7695 11.5723-14.6973L18.0664-18.4082L18.1152-11.6699C18.1152-9.81445 19.0918-8.44727 20.9473-8.44727C22.5098-8.44727 23.7305-9.76562 23.6816-11.6699L23.6328-21.6309L27.2461-23.6816L38.916-31.4941L38.0371-17.5293L38.0371-13.3301L29.2969-8.44727C27.6855-7.4707 27.1484-5.81055 27.9297-4.44336C28.9062-2.83203 30.4688-2.68555 32.0801-3.61328L38.0371-6.88477L38.0371 0.537109C38.0371 2.44141 39.2578 3.75977 41.0645 3.75977Z"/>
  </g>
  <g id="Light-S" transform="matrix(1 0 0 1 1112.7 696)">
   <path d="M40.4287 3.13917C41.9278 3.13917 42.7935 2.12354 42.7935 0.612792L42.7935-8.38328L49.9395-4.30956C51.2178-3.57861 52.4995-3.70995 53.2305-4.958C53.8115-6.02246 53.4629-7.3042 52.1509-8.05372L42.7935-13.3604L42.7935-18.8008L42.1231-32.2509L53.5542-24.9717L58.2422-22.2818L58.1748-11.5337C58.1411-10.0229 59.0893-9.00731 60.3037-9.00731C61.7539-9.00731 62.4849-10.0566 62.4849-11.5337L62.5186-19.8379L70.3784-15.2725C71.6719-14.5078 72.9537-14.8076 73.6543-16.0406C74.355-17.3223 73.9726-18.6226 72.7095-19.3535L64.8682-23.8364L72.0595-28.0752C73.3042-28.8061 73.8061-29.9717 73.124-31.1709C72.4454-32.2842 71.1416-32.5352 69.8784-31.8193L60.5615-26.3628L55.8701-29.0527L43.6811-35.2539L55.8853-41.44L60.5733-44.1753L69.8481-38.7188C71.1113-38.0029 72.5093-38.269 73.1391-39.3335C73.8061-40.5664 73.289-41.7319 72.0444-42.478L64.8833-46.6714L72.7246-51.1543C74.0367-51.9189 74.4038-53.167 73.6695-54.4976C72.9873-55.6817 71.6567-56.0151 70.3936-55.2353L62.5186-50.7222L62.4698-59.0532C62.4698-60.4966 61.7388-61.5156 60.3072-61.5005C59.0591-61.5005 58.1411-60.5151 58.1748-59.0532L58.227-48.2598L53.5542-45.521L42.1231-38.2417L42.7935-51.771L42.7935-57.1777L52.1509-62.4843C53.4629-63.2339 53.8115-64.5156 53.2305-65.5801C52.4995-66.8281 51.2178-66.9595 49.9395-66.2622L42.7935-62.1548L42.7935-71.1509C42.7935-72.6616 41.9278-73.6773 40.4287-73.6773C39.0459-73.6773 38.1128-72.6616 38.1128-71.1509L38.1128-62.1396L30.8389-66.2622C29.5757-66.9595 28.3916-66.8281 27.627-65.5801C27.0273-64.5156 27.4433-63.249 28.6914-62.5332L38.1128-57.1626L38.1128-51.771L38.7646-38.2417L27.3369-45.521L22.6304-48.2598L22.6977-59.0532C22.7315-60.5151 21.8135-61.5005 20.584-61.5005C19.1372-61.5005 18.4028-60.4815 18.4028-59.0532L18.354-50.7222L10.5279-55.2353C9.2681-55.9663 7.88525-55.6817 7.20313-54.4976C6.46875-53.167 6.86963-51.8852 8.14795-51.1543L15.9892-46.6714L8.82813-42.478C7.56836-41.7319 7.06641-40.6489 7.7334-39.3184C8.36328-38.2539 9.72752-38.0029 11.0396-38.7188L20.2993-44.1416L24.9873-41.44L37.1914-35.2539L25.0024-29.0527L20.3144-26.3476L10.9942-31.8193C9.71585-32.5352 8.41211-32.2842 7.81592-31.2197C7.11523-29.874 7.56836-28.8061 8.81299-28.0752L16.0044-23.8364L8.16309-19.3535C6.88477-18.6074 6.4873-17.2734 7.20313-16.0557C7.93408-14.8076 9.28323-14.5415 10.5279-15.2725L18.354-19.7705L18.3877-11.5337C18.3877-10.0566 19.1372-9.00731 20.5689-9.00731C21.7832-9.00731 22.7315-10.0229 22.6977-11.5337L22.6641-22.2818L27.3369-24.938L38.7646-32.2509L38.1128-18.8008L38.1128-13.3755L28.6914-8.03858C27.4433-7.28906 27.0273-6.02246 27.627-4.958C28.3916-3.70995 29.5757-3.57861 30.8389-4.30956L38.1128-8.39841L38.1128 0.612792C38.1128 2.12354 39.0459 3.13917 40.4287 3.13917Z"/>
  </g>
  <g id="Thin-S" transform="matrix(1 0 0 1 816.817 696)">
   <path d="M39.5879 2.31837C40.4864 2.31837 41.0118 1.70313 41.0118 0.712889L41.0118-10.3652L49.8594-5.23045C50.6973-4.75975 51.4785-4.87108 51.9492-5.63866C52.3301-6.30273 52.1016-7.08399 51.25-7.53321L41.0118-13.4004L41.0118-20.4824L40.6817-33.2519L51.7324-26.6133L57.8418-23.1426L57.8145-11.3535C57.8008-10.3633 58.3887-9.74802 59.1426-9.74802C59.9922-9.74802 60.4629-10.3769 60.4629-11.3535L60.4766-21.5996L70.0781-16.0332C70.9511-15.5488 71.7325-15.7285 72.1328-16.461C72.5332-17.2422 72.291-18.002 71.4883-18.4727L61.8653-23.9765L70.8183-29.2363C71.6426-29.707 71.9043-30.4121 71.4824-31.1309C71.004-31.8438 70.3008-31.9746 69.498-31.539L59.1602-25.582L53.1074-29.0527L41.459-35.2539L53.1426-41.42L59.252-44.9961L69.4277-39.0391C70.2305-38.6035 71.0879-38.7695 71.5176-39.4336C71.9043-40.166 71.6074-40.8711 70.7832-41.377L61.9004-46.5313L71.5234-52.0351C72.3751-52.5195 72.5821-53.2871 72.168-54.1172C71.7461-54.8008 70.916-54.9941 70.1133-54.4746L60.4766-48.9004L60.4278-59.2734C60.4278-60.2363 59.9571-60.7949 59.086-60.7598C58.3184-60.7598 57.8008-60.2148 57.8145-59.2734L57.8066-47.379L51.7324-43.8594L40.6817-37.2207L41.0118-50.1094L41.0118-57.1777L51.25-63.0449C52.1016-63.4941 52.3301-64.2754 51.9492-64.9394C51.4785-65.707 50.6973-65.8184 49.8594-65.3613L41.0118-60.2129L41.0118-71.291C41.0118-72.2812 40.4864-72.8965 39.5879-72.8965C38.7656-72.8965 38.2129-72.2812 38.2129-71.291L38.2129-60.1778L29.1973-65.3613C28.3946-65.8184 27.7109-65.707 27.2266-64.9394C26.8672-64.2754 27.123-63.5293 27.8907-63.0937L38.2129-57.1426L38.2129-50.1094L38.5644-37.2207L27.4571-43.8594L21.3692-47.379L21.3965-59.2734C21.4102-60.2148 20.8926-60.7598 20.1035-60.7598C19.1972-60.7598 18.7832-60.2012 18.7832-59.2734L18.7344-48.9004L9.14651-54.4746C8.28713-54.9453 7.46485-54.8008 7.04297-54.1172C6.6289-53.2871 6.84961-52.5058 7.68751-52.0351L17.3105-46.5313L8.42774-41.377C7.56836-40.8711 7.30664-40.2285 7.69336-39.3985C8.12305-38.7344 8.9668-38.6035 9.81838-39.0391L19.959-44.9824L26.0684-41.42L37.752-35.2539L26.1035-29.0527L19.9941-25.5469L9.71291-31.539C8.87502-31.9746 8.17188-31.8438 7.75586-31.1797C7.35546-30.3144 7.56836-29.707 8.39258-29.2363L17.3457-23.9765L7.72266-18.4727C6.88477-17.9668 6.60742-17.1933 7.04297-16.4961C7.51368-15.7285 8.32229-15.5625 9.14651-16.0332L18.7344-21.5723L18.748-11.3535C18.748-10.3769 19.1972-9.74802 20.0684-9.74802C20.8223-9.74802 21.4102-10.3633 21.3965-11.3535L21.3828-23.1426L27.4571-26.5996L38.5644-33.2519L38.2129-20.4824L38.2129-13.4355L27.8907-7.49805C27.123-7.04883 26.8672-6.30273 27.2266-5.63866C27.7109-4.87108 28.3946-4.75975 29.1973-5.23045L38.2129-10.4003L38.2129 0.712889C38.2129 1.70313 38.7656 2.31837 39.5879 2.31837Z"/>
  </g>
  <g id="Ultralight-S" transform="matrix(1 0 0 1 520.531 696)">
   <path d="M39.1572 1.89796C39.7481 1.89796 40.0992 1.4878 40.0992 0.764158L40.0992-11.3803L49.8184-5.70213C50.4307-5.36472 50.9556-5.4658 51.293-5.98729C51.5713-6.44628 51.4043-6.9712 50.7886-7.26661L40.0992-13.4209L40.0992-21.3437L39.9434-33.7646L50.7993-27.4541L57.6367-23.5835L57.6299-11.2612C57.6265-10.5376 58.0298-10.1274 58.5479-10.1274C59.0899-10.1274 59.4273-10.541 59.4273-11.2612L59.4307-22.5019L69.9243-16.4228C70.582-16.082 71.107-16.2002 71.3535-16.6763C71.6001-17.2012 71.4297-17.6841 70.8628-18.0215L60.3272-24.0483L70.1826-29.831C70.7915-30.1684 70.9302-30.6377 70.6416-31.1104C70.2657-31.6182 69.8701-31.6875 69.3032-31.3955L58.4424-25.1821L51.6924-29.0527L40.3208-35.2539L51.7378-41.4097L58.5752-45.4165L69.2124-39.2031C69.7793-38.9111 70.3599-39.0259 70.687-39.4849C70.9302-39.9609 70.7461-40.4302 70.1372-40.813L60.3726-46.4595L70.9082-52.4863C71.524-52.8271 71.649-53.3486 71.399-53.9224C71.1104-54.3496 70.5366-54.4712 69.9697-54.085L59.4307-47.9673L59.3819-59.3862C59.3819-60.103 59.0445-60.4258 58.4605-60.3804C57.939-60.3804 57.6265-60.061 57.6299-59.3862L57.5913-46.9278L50.7993-43.0083L39.9434-36.6978L40.0992-49.2583L40.0992-57.1777L50.7886-63.332C51.4043-63.6274 51.5713-64.1523 51.293-64.6113C50.9556-65.1328 50.4307-65.2339 49.8184-64.8999L40.0992-59.2183L40.0992-71.3628C40.0992-72.0864 39.7481-72.4966 39.1572-72.4966C38.6221-72.4966 38.2642-72.0864 38.2642-71.3628L38.2642-59.1729L28.3565-64.8999C27.7896-65.2339 27.3623-65.1328 27.0215-64.6113C26.7852-64.1523 26.959-63.6728 27.4805-63.3808L38.2642-57.1323L38.2642-49.2583L38.4619-36.6978L27.5186-43.0083L20.7232-46.9278L20.73-59.3862C20.7334-60.061 20.4209-60.3804 19.8574-60.3804C19.228-60.3804 18.978-60.0576 18.978-59.3862L18.9292-47.9673L8.43899-54.085C7.78469-54.4224 7.24952-54.3496 6.96094-53.9224C6.71093-53.3486 6.83936-52.8237 7.45167-52.4863L17.9873-46.4595L8.22266-40.813C7.56836-40.4302 7.42968-40.0132 7.67285-39.4395C8-38.9805 8.57716-38.9111 9.19289-39.2031L19.7847-45.4131L26.6221-41.4097L38.0391-35.2539L26.6675-29.0527L19.8301-25.1367L9.05666-31.3955C8.44435-31.6875 8.04883-31.6182 7.7251-31.1592C7.47851-30.54 7.56836-30.1684 8.17725-29.831L18.0327-24.0483L7.49708-18.0215C6.88477-17.6387 6.66894-17.1523 6.96094-16.7217C7.29835-16.2002 7.8301-16.0854 8.43899-16.4228L18.9292-22.4951L18.9326-11.2612C18.9326-10.541 19.228-10.1274 19.812-10.1274C20.3301-10.1274 20.7334-10.5376 20.73-11.2612L20.7266-23.5835L27.5186-27.4507L38.4619-33.7646L38.2642-21.3437L38.2642-13.4663L27.4805-7.2212C26.959-6.92579 26.7852-6.44628 27.0215-5.98729C27.3623-5.4658 27.7896-5.36472 28.3565-5.70213L38.2642-11.4257L38.2642 0.764158C38.2642 1.4878 38.6221 1.89796 39.1572 1.89796Z"/>
  </g>
 </g>
</svg>
