<?xml version="1.0" encoding="UTF-8"?>
<!--Generator: Apple Native CoreSVG 175.5-->
<!DOCTYPE svg
PUBLIC "-//W3C//DTD SVG 1.1//EN"
       "http://www.w3.org/Graphics/SVG/1.1/DTD/svg11.dtd">
<svg version="1.1" xmlns="http://www.w3.org/2000/svg" xmlns:xlink="http://www.w3.org/1999/xlink" width="3300" height="2200">
 <!--glyph: "", point size: 100.0, font version: "18.0d12e2", template writer version: "101"-->
 <g id="Notes">
  <rect height="2200" id="artboard" style="fill:white;opacity:1" width="3300" x="0" y="0"/>
  <line style="fill:none;stroke:black;opacity:1;stroke-width:0.5;" x1="263" x2="3036" y1="292" y2="292"/>
  <text style="stroke:none;fill:black;font-family:sans-serif;font-size:13;font-weight:bold;" transform="matrix(1 0 0 1 263 322)">Weight/Scale Variations</text>
  <text style="stroke:none;fill:black;font-family:sans-serif;font-size:13;text-anchor:middle;" transform="matrix(1 0 0 1 559.711 322)">Ultralight</text>
  <text style="stroke:none;fill:black;font-family:sans-serif;font-size:13;text-anchor:middle;" transform="matrix(1 0 0 1 856.422 322)">Thin</text>
  <text style="stroke:none;fill:black;font-family:sans-serif;font-size:13;text-anchor:middle;" transform="matrix(1 0 0 1 1153.13 322)">Light</text>
  <text style="stroke:none;fill:black;font-family:sans-serif;font-size:13;text-anchor:middle;" transform="matrix(1 0 0 1 1449.84 322)">Regular</text>
  <text style="stroke:none;fill:black;font-family:sans-serif;font-size:13;text-anchor:middle;" transform="matrix(1 0 0 1 1746.56 322)">Medium</text>
  <text style="stroke:none;fill:black;font-family:sans-serif;font-size:13;text-anchor:middle;" transform="matrix(1 0 0 1 2043.27 322)">Semibold</text>
  <text style="stroke:none;fill:black;font-family:sans-serif;font-size:13;text-anchor:middle;" transform="matrix(1 0 0 1 2339.98 322)">Bold</text>
  <text style="stroke:none;fill:black;font-family:sans-serif;font-size:13;text-anchor:middle;" transform="matrix(1 0 0 1 2636.69 322)">Heavy</text>
  <text style="stroke:none;fill:black;font-family:sans-serif;font-size:13;text-anchor:middle;" transform="matrix(1 0 0 1 2933.4 322)">Black</text>
  <line style="fill:none;stroke:black;opacity:1;stroke-width:0.5;" x1="263" x2="3036" y1="1903" y2="1903"/>
  <g transform="matrix(1 0 0 1 263 1933)">
   <path d="M9.24805 0.830078C13.5547 0.830078 17.1387-2.74414 17.1387-7.05078C17.1387-11.3574 13.5449-14.9316 9.23828-14.9316C4.94141-14.9316 1.36719-11.3574 1.36719-7.05078C1.36719-2.74414 4.95117 0.830078 9.24805 0.830078ZM9.24805-0.654297C5.70312-0.654297 2.87109-3.49609 2.87109-7.05078C2.87109-10.6055 5.69336-13.4473 9.23828-13.4473C12.793-13.4473 15.6445-10.6055 15.6445-7.05078C15.6445-3.49609 12.8027-0.654297 9.24805-0.654297ZM5.6543-7.05078C5.6543-6.62109 5.95703-6.32812 6.40625-6.32812L8.50586-6.32812L8.50586-4.20898C8.50586-3.76953 8.79883-3.4668 9.22852-3.4668C9.67773-3.4668 9.9707-3.76953 9.9707-4.20898L9.9707-6.32812L12.0898-6.32812C12.5293-6.32812 12.832-6.62109 12.832-7.05078C12.832-7.49023 12.5293-7.79297 12.0898-7.79297L9.9707-7.79297L9.9707-9.90234C9.9707-10.3516 9.67773-10.6543 9.22852-10.6543C8.79883-10.6543 8.50586-10.3516 8.50586-9.90234L8.50586-7.79297L6.40625-7.79297C5.95703-7.79297 5.6543-7.49023 5.6543-7.05078Z"/>
  </g>
  <g transform="matrix(1 0 0 1 281.867 1933)">
   <path d="M11.709 2.91016C17.1582 2.91016 21.6699-1.61133 21.6699-7.05078C21.6699-12.5 17.1484-17.0117 11.6992-17.0117C6.25977-17.0117 1.74805-12.5 1.74805-7.05078C1.74805-1.61133 6.26953 2.91016 11.709 2.91016ZM11.709 1.25C7.09961 1.25 3.41797-2.44141 3.41797-7.05078C3.41797-11.6602 7.08984-15.3516 11.6992-15.3516C16.3086-15.3516 20.0098-11.6602 20.0098-7.05078C20.0098-2.44141 16.3184 1.25 11.709 1.25ZM7.17773-7.05078C7.17773-6.57227 7.50977-6.25 8.00781-6.25L10.8789-6.25L10.8789-3.36914C10.8789-2.88086 11.2109-2.53906 11.6895-2.53906C12.1777-2.53906 12.5195-2.87109 12.5195-3.36914L12.5195-6.25L15.4004-6.25C15.8887-6.25 16.2305-6.57227 16.2305-7.05078C16.2305-7.53906 15.8887-7.88086 15.4004-7.88086L12.5195-7.88086L12.5195-10.752C12.5195-11.25 12.1777-11.5918 11.6895-11.5918C11.2109-11.5918 10.8789-11.25 10.8789-10.752L10.8789-7.88086L8.00781-7.88086C7.50977-7.88086 7.17773-7.53906 7.17773-7.05078Z"/>
  </g>
  <g transform="matrix(1 0 0 1 305.646 1933)">
   <path d="M14.9707 5.66406C21.9336 5.66406 27.6953-0.0976562 27.6953-7.05078C27.6953-14.0137 21.9238-19.7754 14.9609-19.7754C8.00781-19.7754 2.25586-14.0137 2.25586-7.05078C2.25586-0.0976562 8.01758 5.66406 14.9707 5.66406ZM14.9707 3.84766C8.93555 3.84766 4.08203-1.01562 4.08203-7.05078C4.08203-13.0957 8.92578-17.9492 14.9609-17.9492C21.0059-17.9492 25.8691-13.0957 25.8691-7.05078C25.8691-1.01562 21.0156 3.84766 14.9707 3.84766ZM9.19922-7.05078C9.19922-6.5332 9.57031-6.17188 10.1172-6.17188L14.0625-6.17188L14.0625-2.2168C14.0625-1.67969 14.4336-1.29883 14.9512-1.29883C15.4883-1.29883 15.8594-1.66992 15.8594-2.2168L15.8594-6.17188L19.8145-6.17188C20.3516-6.17188 20.7324-6.5332 20.7324-7.05078C20.7324-7.59766 20.3613-7.96875 19.8145-7.96875L15.8594-7.96875L15.8594-11.9141C15.8594-12.4609 15.4883-12.8418 14.9512-12.8418C14.4336-12.8418 14.0625-12.4609 14.0625-11.9141L14.0625-7.96875L10.1172-7.96875C9.57031-7.96875 9.19922-7.59766 9.19922-7.05078Z"/>
  </g>
  <text style="stroke:none;fill:black;font-family:sans-serif;font-size:13;font-weight:bold;" transform="matrix(1 0 0 1 263 1953)">Design Variations</text>
  <text style="stroke:none;fill:black;font-family:sans-serif;font-size:13;" transform="matrix(1 0 0 1 263 1971)">Symbols are supported in up to nine weights and three scales.</text>
  <text style="stroke:none;fill:black;font-family:sans-serif;font-size:13;" transform="matrix(1 0 0 1 263 1989)">For optimal layout with text and other symbols, vertically align</text>
  <text style="stroke:none;fill:black;font-family:sans-serif;font-size:13;" transform="matrix(1 0 0 1 263 2007)">symbols with the adjacent text.</text>
  <line style="fill:none;stroke:#00AEEF;stroke-width:0.5;opacity:1.0;" x1="776" x2="776" y1="1919" y2="1933"/>
  <g transform="matrix(1 0 0 1 776 1933)">
   <path d="M3.31055 0.15625C3.82812 0.15625 4.08203-0.0390625 4.26758-0.585938L5.52734-4.0332L11.2891-4.0332L12.5488-0.585938C12.7344-0.0390625 12.9883 0.15625 13.4961 0.15625C14.0137 0.15625 14.3457-0.15625 14.3457-0.644531C14.3457-0.810547 14.3164-0.966797 14.2383-1.17188L9.6582-13.3691C9.43359-13.9648 9.0332-14.2676 8.4082-14.2676C7.80273-14.2676 7.39258-13.9746 7.17773-13.3789L2.59766-1.16211C2.51953-0.957031 2.49023-0.800781 2.49023-0.634766C2.49023-0.146484 2.80273 0.15625 3.31055 0.15625ZM6.00586-5.51758L8.37891-12.0898L8.42773-12.0898L10.8008-5.51758Z"/>
  </g>
  <line style="fill:none;stroke:#00AEEF;stroke-width:0.5;opacity:1.0;" x1="793.197" x2="793.197" y1="1919" y2="1933"/>
  <text style="stroke:none;fill:black;font-family:sans-serif;font-size:13;font-weight:bold;" transform="matrix(1 0 0 1 776 1953)">Margins</text>
  <text style="stroke:none;fill:black;font-family:sans-serif;font-size:13;" transform="matrix(1 0 0 1 776 1971)">Leading and trailing margins on the left and right side of each symbol</text>
  <text style="stroke:none;fill:black;font-family:sans-serif;font-size:13;" transform="matrix(1 0 0 1 776 1989)">can be adjusted by modifying the x-location of the margin guidelines.</text>
  <text style="stroke:none;fill:black;font-family:sans-serif;font-size:13;" transform="matrix(1 0 0 1 776 2007)">Modifications are automatically applied proportionally to all</text>
  <text style="stroke:none;fill:black;font-family:sans-serif;font-size:13;" transform="matrix(1 0 0 1 776 2025)">scales and weights.</text>
  <g transform="matrix(1 0 0 1 1289 1933)">
   <path d="M2.8418 1.86523L4.54102 3.57422C5.40039 4.44336 6.38672 4.38477 7.31445 3.35938L18.0078-8.42773L17.041-9.4043L6.42578 2.27539C6.07422 2.67578 5.74219 2.77344 5.27344 2.30469L4.10156 1.14258C3.63281 0.683594 3.74023 0.341797 4.14062-0.0195312L15.6152-10.8203L14.6387-11.7871L3.04688-0.898438C2.06055 0.0195312 1.98242 0.996094 2.8418 1.86523ZM9.25781-16.3281C8.83789-15.918 8.80859-15.3418 9.04297-14.9512C9.27734-14.5898 9.73633-14.3555 10.3809-14.5215C11.8457-14.8633 13.3691-14.9219 14.7949-13.9844L14.209-12.5293C13.8672-11.6992 14.043-11.1133 14.5801-10.5664L16.875-8.25195C17.3633-7.76367 17.7734-7.74414 18.3398-7.8418L19.4043-8.03711L20.0684-7.36328L20.0293-6.80664C19.9902-6.30859 20.1172-5.92773 20.6055-5.44922L21.3672-4.70703C21.8457-4.22852 22.4609-4.19922 22.9297-4.66797L25.8398-7.58789C26.3086-8.05664 26.2891-8.65234 25.8105-9.13086L25.0391-9.89258C24.5605-10.3711 24.1895-10.5273 23.7109-10.4883L23.1348-10.4395L22.4902-11.0742L22.7344-12.1973C22.8613-12.7637 22.7051-13.2031 22.1191-13.7891L19.9219-15.9766C16.582-19.2969 12.1484-19.2188 9.25781-16.3281ZM10.752-15.957C13.1836-17.7344 16.4746-17.4316 18.7012-15.2051L21.1328-12.793C21.3672-12.5586 21.4062-12.373 21.3379-12.0312L21.0156-10.5469L22.5195-9.0625L23.5059-9.12109C23.7598-9.13086 23.8379-9.11133 24.0332-8.91602L24.6094-8.33984L22.168-5.89844L21.5918-6.47461C21.3965-6.66992 21.3672-6.74805 21.377-7.01172L21.4453-7.98828L19.9512-9.47266L18.4277-9.21875C18.1055-9.15039 17.959-9.17969 17.7148-9.41406L15.7129-11.416C15.459-11.6504 15.4297-11.8164 15.5859-12.1875L16.4648-14.2773C14.9023-15.7324 12.8711-16.3574 10.8398-15.7617C10.6836-15.7227 10.625-15.8496 10.752-15.957Z"/>
  </g>
  <text style="stroke:none;fill:black;font-family:sans-serif;font-size:13;font-weight:bold;" transform="matrix(1 0 0 1 1289 1953)">Exporting</text>
  <text style="stroke:none;fill:black;font-family:sans-serif;font-size:13;" transform="matrix(1 0 0 1 1289 1971)">Symbols should be outlined when exporting to ensure the</text>
  <text style="stroke:none;fill:black;font-family:sans-serif;font-size:13;" transform="matrix(1 0 0 1 1289 1989)">design is preserved when submitting to Xcode.</text>
  <text id="template-version" style="stroke:none;fill:black;font-family:sans-serif;font-size:13;text-anchor:end;" transform="matrix(1 0 0 1 3036 1933)">Template v.4.0</text>
  <text style="stroke:none;fill:black;font-family:sans-serif;font-size:13;text-anchor:end;" transform="matrix(1 0 0 1 3036 1951)">Requires Xcode 14 or greater</text>
  <text id="descriptive-name" style="stroke:none;fill:black;font-family:sans-serif;font-size:13;text-anchor:end;" transform="matrix(1 0 0 1 3036 1969)">Generated from custom.windshield.rear.and.heat.waves</text>
  <text style="stroke:none;fill:black;font-family:sans-serif;font-size:13;text-anchor:end;" transform="matrix(1 0 0 1 3036 1987)">Typeset at 100 points</text>
  <text style="stroke:none;fill:black;font-family:sans-serif;font-size:13;" transform="matrix(1 0 0 1 263 726)">Small</text>
  <text style="stroke:none;fill:black;font-family:sans-serif;font-size:13;" transform="matrix(1 0 0 1 263 1156)">Medium</text>
  <text style="stroke:none;fill:black;font-family:sans-serif;font-size:13;" transform="matrix(1 0 0 1 263 1586)">Large</text>
 </g>
 <g id="Guides">
  <g id="H-reference" style="fill:#27AAE1;stroke:none;" transform="matrix(1 0 0 1 339 696)">
   <path d="M0.993654 0L3.63775 0L29.3281-67.1323L30.0303-67.1323L30.0303-70.459L28.1226-70.459ZM11.6885-24.4799L46.9815-24.4799L46.2315-26.7285L12.4385-26.7285ZM55.1196 0L57.7637 0L30.6382-70.459L29.4326-70.459L29.4326-67.1323Z"/>
  </g>
  <line id="Baseline-S" style="fill:none;stroke:#27AAE1;opacity:1;stroke-width:0.5;" x1="263" x2="3036" y1="696" y2="696"/>
  <line id="Capline-S" style="fill:none;stroke:#27AAE1;opacity:1;stroke-width:0.5;" x1="263" x2="3036" y1="625.541" y2="625.541"/>
  <g id="H-reference" style="fill:#27AAE1;stroke:none;" transform="matrix(1 0 0 1 339 1126)">
   <path d="M0.993654 0L3.63775 0L29.3281-67.1323L30.0303-67.1323L30.0303-70.459L28.1226-70.459ZM11.6885-24.4799L46.9815-24.4799L46.2315-26.7285L12.4385-26.7285ZM55.1196 0L57.7637 0L30.6382-70.459L29.4326-70.459L29.4326-67.1323Z"/>
  </g>
  <line id="Baseline-M" style="fill:none;stroke:#27AAE1;opacity:1;stroke-width:0.5;" x1="263" x2="3036" y1="1126" y2="1126"/>
  <line id="Capline-M" style="fill:none;stroke:#27AAE1;opacity:1;stroke-width:0.5;" x1="263" x2="3036" y1="1055.54" y2="1055.54"/>
  <g id="H-reference" style="fill:#27AAE1;stroke:none;" transform="matrix(1 0 0 1 339 1556)">
   <path d="M0.993654 0L3.63775 0L29.3281-67.1323L30.0303-67.1323L30.0303-70.459L28.1226-70.459ZM11.6885-24.4799L46.9815-24.4799L46.2315-26.7285L12.4385-26.7285ZM55.1196 0L57.7637 0L30.6382-70.459L29.4326-70.459L29.4326-67.1323Z"/>
  </g>
  <line id="Baseline-L" style="fill:none;stroke:#27AAE1;opacity:1;stroke-width:0.5;" x1="263" x2="3036" y1="1556" y2="1556"/>
  <line id="Capline-L" style="fill:none;stroke:#27AAE1;opacity:1;stroke-width:0.5;" x1="263" x2="3036" y1="1485.54" y2="1485.54"/>
  <line id="left-margin-Regular-M" style="fill:none;stroke:#00AEEF;stroke-width:0.5;opacity:1.0;" x1="1377.61" x2="1377.61" y1="1030.79" y2="1150.12"/>
  <line id="right-margin-Regular-M" style="fill:none;stroke:#00AEEF;stroke-width:0.5;opacity:1.0;" x1="1522.08" x2="1522.08" y1="1030.79" y2="1150.12"/>
 </g>
 <g id="Symbols">
  <g id="Black-L" transform="matrix(1 0 0 1 2836.28 1556)">
   <path d="M39.914-10.5747L154.323-10.5747C169.021-10.5747 178.153-19.631 178.153-34.0878L178.153-79.5181C178.153-93.975 169.021-103.052 154.323-103.052L39.914-103.052C25.2379-103.052 16.084-93.9773 16.084-79.5181L16.084-34.0878C16.084-19.6286 25.2379-10.5747 39.914-10.5747ZM40.0749-28.8035C36.5183-28.8035 34.3128-31.0257 34.3128-34.724L34.3128-78.9028C34.3128-82.5802 36.5183-84.8025 40.0749-84.8025L154.162-84.8025C157.714-84.8025 159.925-82.5802 159.925-78.9028L159.925-34.724C159.925-31.0257 157.714-28.8035 154.162-28.8035ZM46.4348-57.2432C44.6453-54.6361 46.3312-51.0737 49.7-51.0737L71.6928-51.0737C75.042-51.0737 76.7487-54.6361 74.9384-57.2432L64.252-72.8458C63.3555-74.1641 62.1419-74.9172 60.686-74.9172C59.2301-74.9172 58.0373-74.1641 57.1212-72.8458ZM69.7068 22.1675C66.5913 18.0089 65.6418 15.6291 65.6418 11.3372C65.6418 0.459147 76.0159-4.87961 76.0159-20.1362C76.0159-34.155 66.0046-37.2825 66.0046-52.8973L66.0046-56.0596L55.3674-56.0596L55.3674-52.8973C55.3674-31.7248 65.3787-30.1052 65.3787-20.1362C65.3787-7.6511 55.0046-3.5442 55.0046 12.1086C55.0046 18.1592 56.8579 23.0041 61.1338 28.4583C65.6578 34.1934 74.2335 28.2223 69.7068 22.1675ZM82.8779-57.2432C81.0674-54.6361 82.7742-51.0737 86.1223-51.0737L108.115-51.0737C111.485-51.0737 113.17-54.6361 111.381-57.2432L100.695-72.8458C99.7776-74.1641 98.5641-74.9172 97.1289-74.9172C95.673-74.9172 94.4595-74.1641 93.5421-72.8458ZM106.15 22.1675C103.034 18.0089 102.085 15.6291 102.085 11.3372C102.085 0.459147 112.459-4.87961 112.459-20.1362C112.459-34.155 102.448-37.2825 102.448-52.8973L102.448-56.0596L91.8105-56.0596L91.8105-52.8973C91.8105-31.7248 101.822-30.1052 101.822-20.1362C101.822-7.6511 91.4475-3.5442 91.4475 12.1086C91.4475 18.1592 93.28 23.0041 97.5559 28.4583C102.08 34.1934 110.676 28.2223 106.15 22.1675ZM119.32-57.2432C117.51-54.6361 119.195-51.0737 122.565-51.0737L144.558-51.0737C147.907-51.0737 149.613-54.6361 147.802-57.2432L137.138-72.8458C136.221-74.1641 135.007-74.9172 133.551-74.9172C132.116-74.9172 130.903-74.1641 129.985-72.8458ZM142.572 22.1675C139.456 18.0089 138.507 15.6291 138.507 11.3372C138.507 0.459147 148.881-4.87961 148.881-20.1362C148.881-34.155 138.87-37.2825 138.87-52.8973L138.87-56.0596L128.233-56.0596L128.233-52.8973C128.233-31.7248 138.264-30.1052 138.264-20.1362C138.264-7.6511 127.889-3.5442 127.889 12.1086C127.889 18.1592 129.723 23.0041 133.999 28.4583C138.522 34.1934 147.099 28.2223 142.572 22.1675Z"/>
  </g>
  <g id="Heavy-L" transform="matrix(1 0 0 1 2540.54 1556)">
   <path d="M38.8761-11.6176L153.409-11.6176C167.701-11.6176 176.201-20.0602 176.201-34.1104L176.201-80.0546C176.201-94.1049 167.701-102.578 153.409-102.578L38.8761-102.578C24.6203-102.578 16.084-94.1161 16.084-80.0546L16.084-34.1104C16.084-20.049 24.6203-11.6176 38.8761-11.6176ZM39.037-27.7793C34.7793-27.7793 32.2457-30.2972 32.2457-34.7201L32.2457-79.4751C32.2457-83.8679 34.7793-86.3858 39.037-86.3858L153.249-86.3858C157.484-86.3858 160.045-83.8679 160.045-79.4751L160.045-34.7201C160.045-30.2972 157.484-27.7793 153.249-27.7793ZM45.8536-57.5554C44.1777-55.1077 45.7318-51.7401 48.9467-51.7401L70.8506-51.7401C74.0409-51.7401 75.6253-55.1077 73.9191-57.5554L63.2681-73.1624C62.4218-74.4355 61.276-75.1345 59.8836-75.1345C58.4911-75.1345 57.3756-74.4355 56.5046-73.1624ZM68.5098 21.5975C65.4037 17.4571 64.4173 15.0365 64.4173 10.6756C64.4173-0.240375 74.7914-5.78832 74.7914-20.838C74.7914-34.6008 64.8645-37.7631 64.8645-53.3193L64.8645-56.3614L54.9026-56.3614L54.9026-53.3193C54.9026-32.6047 64.8295-30.8224 64.8295-20.838C64.8295-8.31931 54.4553-3.93592 54.4553 11.3935C54.4553 17.4205 56.3219 22.1759 60.4863 27.4828C64.708 32.8389 72.7717 27.2931 68.5098 21.5975ZM82.1279-57.5554C80.4217-55.1077 82.006-51.7401 85.1908-51.7401L107.095-51.7401C110.315-51.7401 111.864-55.1077 110.193-57.5554L99.5424-73.1624C98.6658-74.4355 97.5201-75.1345 96.1578-75.1345C94.7653-75.1345 93.6196-74.4355 92.743-73.1624ZM104.784 21.5975C101.678 17.4571 100.691 15.0365 100.691 10.6756C100.691-0.240375 111.066-5.78832 111.066-20.838C111.066-34.6008 101.139-37.7631 101.139-53.3193L101.139-56.3614L91.1769-56.3614L91.1769-53.3193C91.1769-32.6047 101.104-30.8224 101.104-20.838C101.104-8.31931 90.7295-3.93592 90.7295 11.3935C90.7295 17.4205 92.5659 22.1759 96.7303 27.4828C100.952 32.8389 109.046 27.2931 104.784 21.5975ZM118.397-57.5554C116.696-55.1077 118.245-51.7401 121.465-51.7401L143.369-51.7401C146.559-51.7401 148.138-55.1077 146.432-57.5554L135.817-73.1624C134.94-74.4355 133.794-75.1345 132.402-75.1345C131.039-75.1345 129.894-74.4355 129.017-73.1624ZM141.028 21.5975C137.922 17.4571 136.935 15.0365 136.935 10.6756C136.935-0.240375 147.31-5.78832 147.31-20.838C147.31-34.6008 137.383-37.7631 137.383-53.3193L137.383-56.3614L127.421-56.3614L127.421-53.3193C127.421-32.6047 137.372-30.8224 137.372-20.838C137.372-8.31931 126.998-3.93592 126.998 11.3935C126.998 17.4205 128.84 22.1759 133.005 27.4828C137.221 32.8389 145.29 27.2931 141.028 21.5975Z"/>
  </g>
  <g id="Bold-L" transform="matrix(1 0 0 1 2245.04 1556)">
   <path d="M37.5704-12.9234L152.309-12.9234C166.042-12.9234 173.796-20.6501 173.796-34.1411L173.796-80.6708C173.796-94.1619 166.042-101.927 152.309-101.927L37.5704-101.927C23.8893-101.927 16.084-94.1884 16.084-80.6708L16.084-34.1411C16.084-20.6236 23.8893-12.9234 37.5704-12.9234ZM37.7313-26.4891C32.5904-26.4891 29.6496-29.3831 29.6496-34.705L29.6496-80.1448C29.6496-85.4288 32.5904-88.3229 37.7313-88.3229L152.149-88.3229C157.237-88.3229 160.244-85.4288 160.244-80.1448L160.244-34.705C160.244-29.3831 157.237-26.4891 152.149-26.4891ZM45.1687-57.9769C43.6386-55.729 45.0238-52.622 48.0318-52.622L69.7907-52.622C72.7739-52.622 74.1972-55.729 72.6291-57.9769L62.039-73.5916C61.2541-74.8034 60.2004-75.4258 58.8923-75.4258C57.5841-75.4258 56.5684-74.8034 55.7587-73.5916ZM66.9299 20.7565C63.8316 16.6391 62.8066 14.1648 62.8066 9.72686C62.8066-1.21293 73.1807-7.09659 73.1807-21.848C73.1807-35.2359 63.3911-38.4666 63.3911-53.8716L63.3911-56.79L54.3934-56.79L54.3934-53.8716C54.3934-33.8299 64.183-31.8254 64.183-21.848C64.183-9.31304 53.8089-4.49456 53.8089 10.3608C53.8089 16.372 55.6983 20.9899 59.6871 26.0677C63.4876 30.8954 70.8019 25.9244 66.9299 20.7565ZM81.2354-57.9769C79.6673-55.729 81.0906-52.622 84.0605-52.622L105.819-52.622C108.841-52.622 110.213-55.729 108.696-57.9769L98.1058-73.5916C97.2828-74.8034 96.2292-75.4258 94.9589-75.4258C93.6508-75.4258 92.5971-74.8034 91.7742-73.5916ZM102.997 20.7565C99.8982 16.6391 98.8732 14.1648 98.8732 9.72686C98.8732-1.21293 109.247-7.09659 109.247-21.848C109.247-35.2359 99.4578-38.4666 99.4578-53.8716L99.4578-56.79L90.4602-56.79L90.4602-53.8716C90.4602-33.8299 100.25-31.8254 100.25-21.848C100.25-9.31304 89.8755-4.49456 89.8755 10.3608C89.8755 16.372 91.727 20.9899 95.7158 26.0677C99.5163 30.8954 106.869 25.9244 102.997 20.7565ZM117.289-57.9769C115.734-55.729 117.106-52.622 120.127-52.622L141.886-52.622C144.869-52.622 146.279-55.729 144.711-57.9769L134.172-73.5916C133.35-74.8034 132.296-75.4258 130.988-75.4258C129.717-75.4258 128.664-74.8034 127.841-73.5916ZM139.025 20.7565C135.927 16.6391 134.902 14.1648 134.902 9.72686C134.902-1.21293 145.276-7.09659 145.276-21.848C145.276-35.2359 135.487-38.4666 135.487-53.8716L135.487-56.79L126.489-56.79L126.489-53.8716C126.489-33.8299 136.303-31.8254 136.303-21.848C136.303-9.31304 125.929-4.49456 125.929 10.3608C125.929 16.372 127.794 20.9899 131.783 26.0677C135.57 30.8954 142.897 25.9244 139.025 20.7565Z"/>
  </g>
  <g id="Semibold-L" transform="matrix(1 0 0 1 1949.16 1556)">
   <path d="M36.6703-13.8237L151.551-13.8237C164.898-13.8237 172.137-21.0567 172.137-34.1622L172.137-81.0956C172.137-94.2012 164.898-101.478 151.551-101.478L36.6703-101.478C23.3854-101.478 16.084-94.2382 16.084-81.0956L16.084-34.1622C16.084-21.0198 23.3854-13.8237 36.6703-13.8237ZM36.8312-25.5996C31.0814-25.5996 27.8599-28.753 27.8599-34.6946L27.8599-80.6065C27.8599-86.5049 31.0814-89.6583 36.8312-89.6583L151.391-89.6583C157.066-89.6583 160.38-86.5049 160.38-80.6065L160.38-34.6946C160.38-28.753 157.066-25.5996 151.391-25.5996ZM44.6965-58.2675C43.2669-56.1573 44.5357-53.2299 47.4011-53.2299L69.06-53.2299C71.9004-53.2299 73.2127-56.1573 71.7397-58.2675L61.1917-73.8874C60.4492-75.0569 59.4588-75.6266 58.2089-75.6266C56.9588-75.6266 56.0119-75.0569 55.2445-73.8874ZM65.8407 20.1767C62.7478 16.0752 61.6961 13.5638 61.6961 9.07278C61.6961-1.8834 72.0703-7.99851 72.0703-22.5442C72.0703-35.6738 62.3753-38.9517 62.3753-54.2524L62.3753-57.0855L54.0424-57.0855L54.0424-54.2524C54.0424-34.6745 63.7373-32.5169 63.7373-22.5442C63.7373-9.99812 53.3632-4.87969 53.3632 9.64881C53.3632 15.6491 55.2683 20.1723 59.1361 25.0922C62.6463 29.5556 69.4439 24.9809 65.8407 20.1767ZM80.6201-58.2675C79.1472-56.1573 80.4594-53.2299 83.2813-53.2299L104.94-53.2299C107.824-53.2299 109.074-56.1573 107.663-58.2675L97.1154-73.8874C96.3295-75.0569 95.3392-75.6266 94.1325-75.6266C92.8825-75.6266 91.8922-75.0569 91.1063-73.8874ZM101.764 20.1767C98.6714 16.0752 97.6198 13.5638 97.6198 9.07278C97.6198-1.8834 107.994-7.99851 107.994-22.5442C107.994-35.6738 98.299-38.9517 98.299-54.2524L98.299-57.0855L89.9661-57.0855L89.9661-54.2524C89.9661-34.6745 99.661-32.5169 99.661-22.5442C99.661-9.99812 89.2868-4.87969 89.2868 9.64881C89.2868 15.6491 91.1486 20.1723 95.0164 25.0922C98.5265 29.5556 105.368 24.9809 101.764 20.1767ZM116.525-58.2675C115.071-56.1573 116.321-53.2299 119.205-53.2299L140.864-53.2299C143.704-53.2299 144.998-56.1573 143.525-58.2675L133.039-73.8874C132.253-75.0569 131.263-75.6266 130.013-75.6266C128.806-75.6266 127.816-75.0569 127.03-73.8874ZM137.645 20.1767C134.552 16.0752 133.5 13.5638 133.5 9.07278C133.5-1.8834 143.874-7.99851 143.874-22.5442C143.874-35.6738 134.179-38.9517 134.179-54.2524L134.179-57.0855L125.846-57.0855L125.846-54.2524C125.846-34.6745 135.566-32.5169 135.566-22.5442C135.566-9.99812 125.192-4.87969 125.192 9.64881C125.192 15.6491 127.072 20.1723 130.94 25.0922C134.432 29.5556 141.248 24.9809 137.645 20.1767Z"/>
  </g>
  <g id="Medium-L" transform="matrix(1 0 0 1 1653.08 1556)">
   <path d="M35.9878-14.5063L150.976-14.5063C164.031-14.5063 170.88-21.365 170.88-34.1782L170.88-81.4178C170.88-94.231 164.031-101.137 150.976-101.137L35.9878-101.137C23.0033-101.137 16.084-94.276 16.084-81.4178L16.084-34.1782C16.084-21.3201 23.0033-14.5063 35.9878-14.5063ZM36.1487-24.9251C29.9373-24.9251 26.5029-28.2752 26.5029-34.6868L26.5029-80.9566C26.5029-87.3208 29.9373-90.6709 36.1487-90.6709L150.816-90.6709C156.937-90.6709 160.484-87.3208 160.484-80.9566L160.484-34.6868C160.484-28.2752 156.937-24.9251 150.816-24.9251ZM44.3384-58.4879C42.9851-56.482 44.1656-53.6909 46.9228-53.6909L68.506-53.6909C71.2381-53.6909 72.4662-56.482 71.0654-58.4879L60.5492-74.1118C59.8388-75.2492 58.8966-75.7789 57.6907-75.7789C56.4847-75.7789 55.5899-75.2492 54.8546-74.1118ZM65.0149 19.737C61.9261 15.6476 60.8542 13.1082 60.8542 8.57682C60.8542-2.39178 71.2283-8.68238 71.2283-23.0721C71.2283-36.0058 61.6051-39.3194 61.6051-54.5411L61.6051-57.3095L53.7762-57.3095L53.7762-54.5411C53.7762-35.315 63.3993-33.0412 63.3993-23.0721C63.3993-10.5176 53.0252-5.1717 53.0252 9.10896C53.0252 15.101 54.9423 19.5523 58.7183 24.3524C62.0083 28.5397 68.4143 24.2655 65.0149 19.737ZM80.1536-58.4879C78.7528-56.482 79.9809-53.6909 82.6905-53.6909L104.274-53.6909C107.053-53.6909 108.211-56.482 106.881-58.4879L96.3644-74.1118C95.6066-75.2492 94.6643-75.7789 93.5058-75.7789C92.2999-75.7789 91.3577-75.2492 90.5999-74.1118ZM100.83 19.737C97.7412 15.6476 96.6693 13.1082 96.6693 8.57682C96.6693-2.39178 107.043-8.68238 107.043-23.0721C107.043-36.0058 97.4204-39.3194 97.4204-54.5411L97.4204-57.3095L89.5914-57.3095L89.5914-54.5411C89.5914-35.315 99.2146-33.0412 99.2146-23.0721C99.2146-10.5176 88.8404-5.1717 88.8404 9.10896C88.8404 15.101 90.71 19.5523 94.486 24.3524C97.776 28.5397 104.229 24.2655 100.83 19.737ZM115.946-58.4879C114.568-56.482 115.726-53.6909 118.506-53.6909L140.089-53.6909C142.821-53.6909 144.027-56.482 142.626-58.4879L132.18-74.1118C131.422-75.2492 130.48-75.7789 129.274-75.7789C128.115-75.7789 127.173-75.2492 126.415-74.1118ZM136.598 19.737C133.509 15.6476 132.437 13.1082 132.437 8.57682C132.437-2.39178 142.811-8.68238 142.811-23.0721C142.811-36.0058 133.188-39.3194 133.188-54.5411L133.188-57.3095L125.359-57.3095L125.359-54.5411C125.359-35.315 135.007-33.0412 135.007-23.0721C135.007-10.5176 124.633-5.1717 124.633 9.10896C124.633 15.101 126.525 19.5523 130.301 24.3524C133.569 28.5397 139.997 24.2655 136.598 19.737Z"/>
  </g>
  <g id="Regular-L" transform="matrix(1 0 0 1 1357.19 1556)">
   <path d="M35.0976-15.3966L150.227-15.3966C162.9-15.3966 169.24-21.7672 169.24-34.1991L169.24-81.8379C169.24-94.2699 162.9-100.693 150.227-100.693L35.0976-100.693C22.5048-100.693 16.084-94.3253 16.084-81.8379L16.084-34.1991C16.084-21.7119 22.5048-15.3966 35.0976-15.3966ZM35.2585-24.0454C28.4449-24.0454 24.7329-27.6519 24.7329-34.6765L24.7329-81.4132C24.7329-88.3851 28.4449-91.9916 35.2585-91.9916L150.066-91.9916C156.769-91.9916 160.619-88.3851 160.619-81.4132L160.619-34.6765C160.619-27.6519 156.769-24.0454 150.066-24.0454ZM43.8714-58.7753C42.6175-56.9056 43.6829-54.2922 46.299-54.2922L67.7834-54.2922C70.3742-54.2922 71.4925-56.9056 70.1858-58.7753L59.7112-74.4044C59.0427-75.5 58.1632-75.9775 57.0148-75.9775C55.8663-75.9775 55.0396-75.5 54.346-74.4044ZM63.9377 19.1636C60.8542 15.0898 59.756 12.5139 59.756 7.92992C59.756-3.05488 70.1301-9.57438 70.1301-23.7607C70.1301-36.4389 60.6005-39.7991 60.6005-54.9177L60.6005-57.6017L53.429-57.6017L53.429-54.9177C53.429-36.1503 62.9586-33.725 62.9586-23.7607C62.9586-11.1951 52.5844-5.55259 52.5844 8.40481C52.5844 14.3861 54.5171 18.7436 58.1734 23.3876C61.1763 27.2146 67.0712 23.3323 63.9377 19.1636ZM79.5451-58.7753C78.2384-56.9056 79.3567-54.2922 81.9199-54.2922L103.404-54.2922C106.048-54.2922 107.086-56.9056 105.859-58.7753L95.3849-74.4044C94.6637-75.5 93.7841-75.9775 92.6884-75.9775C91.5401-75.9775 90.6605-75.5 89.9393-74.4044ZM99.6115 19.1636C96.5278 15.0898 95.4296 12.5139 95.4296 7.92992C95.4296-3.05488 105.804-9.57438 105.804-23.7607C105.804-36.4389 96.2743-39.7991 96.2743-54.9177L96.2743-57.6017L89.1028-57.6017L89.1028-54.9177C89.1028-36.1503 98.6323-33.725 98.6323-23.7607C98.6323-11.1951 88.2581-5.55259 88.2581 8.40481C88.2581 14.3861 90.138 18.7436 93.7943 23.3876C96.7971 27.2146 102.745 23.3323 99.6115 19.1636ZM115.191-58.7753C113.912-56.9056 114.95-54.2922 117.594-54.2922L139.078-54.2922C141.669-54.2922 142.759-56.9056 141.453-58.7753L131.059-74.4044C130.337-75.5 129.458-75.9775 128.309-75.9775C127.214-75.9775 126.334-75.5 125.613-74.4044ZM135.232 19.1636C132.149 15.0898 131.05 12.5139 131.05 7.92992C131.05-3.05488 141.425-9.57438 141.425-23.7607C141.425-36.4389 131.895-39.7991 131.895-54.9177L131.895-57.6017L124.724-57.6017L124.724-54.9177C124.724-36.1503 134.278-33.725 134.278-23.7607C134.278-11.1951 123.904-5.55259 123.904 8.40481C123.904 14.3861 125.812 18.7436 129.468 23.3876C132.443 27.2146 138.366 23.3323 135.232 19.1636Z"/>
  </g>
  <g id="Light-L" transform="matrix(1 0 0 1 1061.27 1556)">
   <path d="M34.067-16.3891L149.673-16.3891C161.602-16.3891 167.655-22.5497 167.655-34.2373L167.655-81.9524C167.655-93.64 161.602-99.8344 149.673-99.8344L34.067-99.8344C22.2186-99.8344 16.084-93.7336 16.084-81.9524L16.084-34.2373C16.084-22.4563 22.2186-16.3891 34.067-16.3891ZM34.2278-23.0149C26.7081-23.0149 22.7098-26.9458 22.7098-34.6002L22.7098-81.6231C22.7098-89.2439 26.7081-93.175 34.2278-93.175L149.512-93.175C156.845-93.175 161.077-89.2439 161.077-81.6231L161.077-34.6002C161.077-26.9458 156.845-23.0149 149.512-23.0149ZM43.6233-59.2906C42.503-57.5736 43.4157-55.2656 45.7837-55.2656L66.9436-55.2656C69.3246-55.2656 70.2711-57.5736 69.117-59.2906L58.7951-74.9388C58.1648-75.9581 57.3997-76.321 56.3468-76.321C55.2937-76.321 54.5624-75.9581 53.9452-74.9388ZM62.22 17.7131C59.1174 13.6584 58.0383 11.0252 58.0383 6.44127C58.0383-4.40989 68.4124-11.6546 68.4124-25.3638C68.4124-37.4122 59.1882-40.9824 59.1882-55.4902L59.1882-58.2506L53.5054-58.2506L53.5054-55.4902C53.5054-37.868 62.7295-35.1565 62.7295-25.3638C62.7295-12.951 52.3554-6.41141 52.3554 6.74441C52.3554 12.802 54.3454 16.8924 57.639 21.0783C60.0502 24.161 64.6855 20.9848 62.22 17.7131ZM79.1634-59.2906C78.0094-57.5736 78.9559-55.2656 81.29-55.2656L102.45-55.2656C104.865-55.2656 105.731-57.5736 104.657-59.2906L94.3353-74.9388C93.6712-75.9581 92.9062-76.321 91.8869-76.321C90.8339-76.321 90.0689-75.9581 89.4049-74.9388ZM97.7602 17.7131C94.6574 13.6584 93.5784 11.0252 93.5784 6.44127C93.5784-4.40989 103.952-11.6546 103.952-25.3638C103.952-37.4122 94.7284-40.9824 94.7284-55.4902L94.7284-58.2506L89.0455-58.2506L89.0455-55.4902C89.0455-37.868 98.2697-35.1565 98.2697-25.3638C98.2697-12.951 87.8955-6.41141 87.8955 6.74441C87.8955 12.802 89.8517 16.8924 93.1454 21.0783C95.5566 24.161 100.226 20.9848 97.7602 17.7131ZM114.657-59.2906C113.549-57.5736 114.416-55.2656 116.83-55.2656L137.99-55.2656C140.371-55.2656 141.271-57.5736 140.117-59.2906L129.875-74.9388C129.211-75.9581 128.446-76.321 127.393-76.321C126.374-76.321 125.609-75.9581 124.945-74.9388ZM133.267 17.7131C130.164 13.6584 129.085 11.0252 129.085 6.44127C129.085-4.40989 139.459-11.6546 139.459-25.3638C139.459-37.4122 130.235-40.9824 130.235-55.4902L130.235-58.2506L124.552-58.2506L124.552-55.4902C124.552-37.868 133.763-35.1565 133.763-25.3638C133.763-12.951 123.389-6.41141 123.389 6.74441C123.389 12.802 125.392 16.8924 128.686 21.0783C131.05 24.161 135.732 20.9848 133.267 17.7131Z"/>
  </g>
  <g id="Thin-L" transform="matrix(1 0 0 1 765.6 1556)">
   <path d="M32.704-17.7016L148.941-17.7016C159.886-17.7016 165.56-23.5846 165.56-34.2877L165.56-82.1039C165.56-92.807 159.886-98.6986 148.941-98.6986L32.704-98.6986C21.84-98.6986 16.084-92.9511 16.084-82.1039L16.084-34.2877C16.084-23.4407 21.84-17.7016 32.704-17.7016ZM32.8647-21.6518C24.4111-21.6518 20.0341-26.0118 20.0341-34.4992L20.0341-81.9008C20.0341-90.3798 24.4111-94.74 32.8647-94.74L148.78-94.74C156.946-94.74 161.683-90.3798 161.683-81.9008L161.683-34.4992C161.683-26.0118 156.946-21.6518 148.78-21.6518ZM43.2951-59.9721C42.3515-58.4571 43.0624-56.5529 45.1021-56.5529L65.833-56.5529C67.9363-56.5529 68.6556-58.4571 67.7034-59.9721L57.5835-75.6456C57.0036-76.5639 56.3901-76.7753 55.4633-76.7753C54.5365-76.7753 53.9313-76.5639 53.4151-75.6456ZM59.9482 15.7947C56.8204 11.7653 55.7665 9.05634 55.7665 4.47241C55.7665-6.20201 66.1406-14.406 66.1406-27.4841C66.1406-38.6996 57.3203-42.5474 57.3203-56.2475L57.3203-59.1088L53.6064-59.1088L53.6064-56.2475C53.6064-40.1398 62.4266-37.0496 62.4266-27.4841C62.4266-15.2732 52.0525-7.54727 52.0525 4.54839C52.0525 10.7069 54.1182 14.4439 56.9322 18.024C58.5609 20.1223 61.5302 17.88 59.9482 15.7947ZM78.6585-59.9721C77.7065-58.4571 78.4258-56.5529 80.457-56.5529L101.188-56.5529C103.3-56.5529 103.938-58.4571 103.067-59.9721L92.947-75.6456C92.3587-76.5639 91.7451-76.7753 90.8267-76.7753C89.8999-76.7753 89.2864-76.5639 88.6982-75.6456ZM95.3117 15.7947C92.1837 11.7653 91.1299 9.05634 91.1299 4.47241C91.1299-6.20201 101.504-14.406 101.504-27.4841C101.504-38.6996 92.6838-42.5474 92.6838-56.2475L92.6838-59.1088L88.9698-59.1088L88.9698-56.2475C88.9698-40.1398 97.7901-37.0496 97.7901-27.4841C97.7901-15.2732 87.416-7.54727 87.416 4.54839C87.416 10.7069 89.473 14.4439 92.2872 18.024C93.9158 20.1223 96.8937 17.88 95.3117 15.7947ZM113.95-59.9721C113.07-58.4571 113.709-56.5529 115.82-56.5529L136.551-56.5529C138.655-56.5529 139.302-58.4571 138.35-59.9721L128.31-75.6456C127.722-76.5639 127.109-76.7753 126.182-76.7753C125.263-76.7753 124.65-76.5639 124.061-75.6456ZM130.667 15.7947C127.539 11.7653 126.485 9.05634 126.485 4.47241C126.485-6.20201 136.859-14.406 136.859-27.4841C136.859-38.6996 128.039-42.5474 128.039-56.2475L128.039-59.1088L124.325-59.1088L124.325-56.2475C124.325-40.1398 133.082-37.0496 133.082-27.4841C133.082-15.2732 122.707-7.54727 122.707 4.54839C122.707 10.7069 124.836 14.4439 127.651 18.024C129.207 20.1223 132.249 17.88 130.667 15.7947Z"/>
  </g>
  <g id="Ultralight-L" transform="matrix(1 0 0 1 469.424 1556)">
   <path d="M32.0058-18.3739L148.566-18.3739C159.006-18.3739 164.487-24.1147 164.487-34.3136L164.487-82.1815C164.487-92.3804 159.006-98.1168 148.566-98.1168L32.0058-98.1168C21.6461-98.1168 16.084-92.5503 16.084-82.1815L16.084-34.3136C16.084-23.9449 21.6461-18.3739 32.0058-18.3739ZM32.1666-20.9537C23.2346-20.9537 18.6637-25.5334 18.6637-34.4475L18.6637-82.043C18.6637-90.9616 23.2346-95.5416 32.1666-95.5416L148.405-95.5416C156.998-95.5416 161.993-90.9616 161.993-82.043L161.993-34.4475C161.993-25.5334 156.998-20.9537 148.405-20.9537ZM43.127-60.3211C42.2739-58.9096 42.8814-57.2123 44.753-57.2123L65.2641-57.2123C67.2252-57.2123 67.8282-58.9096 66.9794-60.3211L56.963-76.0076C56.4089-76.8743 55.8729-77.008 55.0108-77.008C54.1486-77.008 53.6081-76.8743 53.1436-76.0076ZM58.7846 14.8122C55.6439 10.7957 54.6029 8.0479 54.6029 3.46397C54.6029-7.11992 64.977-15.8152 64.977-28.5701C64.977-39.3589 56.3636-43.349 56.3636-56.6354L56.3636-59.5484L53.6581-59.5484L53.6581-56.6354C53.6581-41.3034 62.2715-38.0193 62.2715-28.5701C62.2715-16.4627 51.8974-8.12905 51.8974 3.42361C51.8974 9.63383 54.0018 13.1898 56.5702 16.4596C57.7981 18.0537 59.9141 16.2898 58.7846 14.8122ZM78.4-60.3211C77.5514-58.9096 78.1543-57.2123 80.0303-57.2123L100.542-57.2123C102.498-57.2123 103.021-58.9096 102.252-60.3211L92.2359-76.0076C91.6864-76.8743 91.1504-77.008 90.2837-77.008C89.4215-77.008 88.8856-76.8743 88.3362-76.0076ZM94.0576 14.8122C90.9167 10.7957 89.8759 8.0479 89.8759 3.46397C89.8759-7.11992 100.25-15.8152 100.25-28.5701C100.25-39.3589 91.6366-43.349 91.6366-56.6354L91.6366-59.5484L88.931-59.5484L88.931-56.6354C88.931-41.3034 97.5444-38.0193 97.5444-28.5701C97.5444-16.4627 87.1703-8.12905 87.1703 3.42361C87.1703 9.63383 89.2791 13.1898 91.8477 16.4596C93.0754 18.0537 95.1871 16.2898 94.0576 14.8122ZM113.588-60.3211C112.824-58.9096 113.347-57.2123 115.303-57.2123L135.814-57.2123C137.775-57.2123 138.293-58.9096 137.445-60.3211L127.509-76.0076C126.959-76.8743 126.423-77.008 125.561-77.008C124.694-77.008 124.159-76.8743 123.609-76.0076ZM129.335 14.8122C126.194 10.7957 125.153 8.0479 125.153 3.46397C125.153-7.11992 135.527-15.8152 135.527-28.5701C135.527-39.3589 126.914-43.349 126.914-56.6354L126.914-59.5484L124.208-59.5484L124.208-56.6354C124.208-41.3034 132.732-38.0193 132.732-28.5701C132.732-16.4627 122.358-8.12905 122.358 3.42361C122.358 9.63383 124.552 13.1898 127.121 16.4596C128.263 18.0537 130.465 16.2898 129.335 14.8122Z"/>
  </g>
  <g id="Black-M" transform="matrix(1 0 0 1 2857.42 1126)">
   <path d="M31.6755-15.3665L120.271-15.3665C131.907-15.3665 139.486-22.8819 139.486-34.3307L139.486-69.0962C139.486-80.5451 131.907-88.0659 120.271-88.0659L31.6755-88.0659C20.0449-88.0659 12.4609-80.5445 12.4609-69.0962L12.4609-34.3307C12.4609-22.8824 20.0449-15.3665 31.6755-15.3665ZM31.8001-30.9915C29.5515-30.9915 28.086-32.5031 28.086-34.8308L28.086-68.6016C28.086-70.9238 29.5515-72.4354 31.8001-72.4354L120.146-72.4354C122.396-72.4354 123.86-70.9238 123.86-68.6016L123.86-34.8308C123.86-32.5031 122.396-30.9915 120.146-30.9915ZM36.4409-52.0859C34.9749-49.9498 36.3737-47.0639 39.0823-47.0639L56.1535-47.0639C58.8563-47.0639 60.2605-49.9498 58.7891-52.0859L50.5002-64.1727C49.7677-65.2226 48.7847-65.8369 47.6151-65.8369C46.4456-65.8369 45.4681-65.2226 44.7297-64.1727ZM54.8008 9.5317C52.3764 6.29678 51.6751 4.48038 51.6751 1.21449C51.6751-7.1624 59.7124-11.217 59.7124-23.1502C59.7124-34.1458 51.925-36.5674 51.925-48.6324L51.925-51.196L43.3052-51.196L43.3052-48.6324C43.3052-31.9907 51.0926-30.8371 51.0926-23.1502C51.0926-13.527 43.0553-10.4613 43.0553 1.83487C43.0553 6.55328 44.4876 10.3474 47.8469 14.6376C51.5315 19.3057 58.4449 14.4098 54.8008 9.5317ZM64.8018-52.0859C63.3302-49.9498 64.7345-47.0639 67.4377-47.0639L84.5088-47.0639C87.2171-47.0639 88.6162-49.9498 87.1499-52.0859L78.861-64.1727C78.123-65.2226 77.1401-65.8369 75.9759-65.8369C74.8064-65.8369 73.8234-65.2226 73.0853-64.1727ZM83.1616 9.5317C80.7372 6.29678 80.0359 4.48038 80.0359 1.21449C80.0359-7.1624 88.0732-11.217 88.0732-23.1502C88.0732-34.1458 80.2858-36.5674 80.2858-48.6324L80.2858-51.196L71.6661-51.196L71.6661-48.6324C71.6661-31.9907 79.4535-30.8371 79.4535-23.1502C79.4535-13.527 71.4161-10.4613 71.4161 1.83487C71.4161 6.55328 72.8429 10.3474 76.2023 14.6376C79.8868 19.3057 86.8057 14.4098 83.1616 9.5317ZM93.1629-52.0859C91.691-49.9498 93.0902-47.0639 95.7985-47.0639L112.87-47.0639C115.572-47.0639 116.977-49.9498 115.505-52.0859L107.222-64.1727C106.484-65.2226 105.501-65.8369 104.331-65.8369C103.167-65.8369 102.184-65.2226 101.446-64.1727ZM111.517 9.5317C109.093 6.29678 108.391 4.48038 108.391 1.21449C108.391-7.1624 116.429-11.217 116.429-23.1502C116.429-34.1458 108.641-36.5674 108.641-48.6324L108.641-51.196L100.021-51.196L100.021-48.6324C100.021-31.9907 107.815-30.8371 107.815-23.1502C107.815-13.527 99.7773-10.4613 99.7773 1.83487C99.7773 6.55328 101.204 10.3474 104.563 14.6376C108.248 19.3057 115.161 14.4098 111.517 9.5317Z"/>
  </g>
  <g id="Heavy-M" transform="matrix(1 0 0 1 2561.59 1126)">
   <path d="M30.7559-16.2945L119.429-16.2945C130.736-16.2945 137.724-23.2292 137.724-34.3493L137.724-69.6101C137.724-80.7302 130.736-87.6813 119.429-87.6813L30.7559-87.6813C19.4676-87.6813 12.4609-80.7347 12.4609-69.6101L12.4609-34.3493C12.4609-23.2247 19.4676-16.2945 30.7559-16.2945ZM30.8805-30.0854C28.0117-30.0854 26.2519-31.8561 26.2519-34.8341L26.2519-69.1417C26.2519-72.1033 28.0117-73.874 30.8805-73.874L119.304-73.874C122.164-73.874 123.935-72.1033 123.935-69.1417L123.935-34.8341C123.935-31.8561 122.164-30.0854 119.304-30.0854ZM35.8956-52.3436C34.5284-50.3492 35.8124-47.6255 38.3934-47.6255L55.4076-47.6255C57.9745-47.6255 59.2749-50.3492 57.8913-52.3436L49.6229-64.4329C48.9359-65.4456 48.0086-66.0177 46.8923-66.0177C45.776-66.0177 44.8652-65.4456 44.164-64.4329ZM53.7891 9.10831C51.3757 5.88942 50.6365 4.0384 50.6365 0.70514C50.6365-7.72123 58.6738-11.9135 58.6738-23.6883C58.6738-34.4918 50.9408-36.928 50.9408-48.9921L50.9408-51.4312L42.8438-51.4312L42.8438-48.9921C42.8438-32.6925 50.5768-31.4061 50.5768-23.6883C50.5768-14.0182 42.5396-10.765 42.5396 1.28904C42.5396 5.97724 43.9795 9.70863 47.2633 13.897C50.7069 18.2633 57.236 13.718 53.7891 9.10831ZM64.1039-52.3436C62.7201-50.3492 64.0206-47.6255 66.5853-47.6255L83.5994-47.6255C86.1827-47.6255 87.4645-50.3492 86.0994-52.3436L77.8311-64.4329C77.1276-65.4456 76.2005-66.0177 75.1005-66.0177C73.9841-66.0177 73.0569-65.4456 72.3535-64.4329ZM81.9973 9.10831C79.5838 5.88942 78.8447 4.0384 78.8447 0.70514C78.8447-7.72123 86.882-11.9135 86.882-23.6883C86.882-34.4918 79.149-36.928 79.149-48.9921L79.149-51.4312L71.0521-51.4312L71.0521-48.9921C71.0521-32.6925 78.7851-31.4061 78.7851-23.6883C78.7851-14.0182 70.7477-10.765 70.7477 1.28904C70.7477 5.97724 72.1712 9.70863 75.4551 13.897C78.8987 18.2633 85.4442 13.718 81.9973 9.10831ZM92.3098-52.3436C90.9283-50.3492 92.2101-47.6255 94.7934-47.6255L111.808-47.6255C114.374-47.6255 115.673-50.3492 114.289-52.3436L106.039-64.4329C105.336-65.4456 104.409-66.0177 103.292-66.0177C102.192-66.0177 101.265-65.4456 100.562-64.4329ZM110.189 9.10831C107.776 5.88942 107.036 4.0384 107.036 0.70514C107.036-7.72123 115.074-11.9135 115.074-23.6883C115.074-34.4918 107.341-36.928 107.341-48.9921L107.341-51.4312L99.2438-51.4312L99.2438-48.9921C99.2438-32.6925 106.991-31.4061 106.991-23.6883C106.991-14.0182 98.9537-10.765 98.9537 1.28904C98.9537 5.97724 100.379 9.70863 103.663 13.897C107.105 18.2633 113.636 13.718 110.189 9.10831Z"/>
  </g>
  <g id="Bold-M" transform="matrix(1 0 0 1 2265.87 1126)">
   <path d="M29.7272-17.3326L118.487-17.3326C129.426-17.3326 135.753-23.6178 135.753-34.3701L135.753-70.185C135.753-80.9373 129.426-87.2512 118.487-87.2512L29.7272-87.2512C18.8217-87.2512 12.4609-80.9475 12.4609-70.185L12.4609-34.3701C12.4609-23.6076 18.8217-17.3326 29.7272-17.3326ZM29.8518-29.0718C26.2893-29.0718 24.2002-31.1322 24.2002-34.8377L24.2002-69.746C24.2002-73.4229 26.2893-75.4833 29.8518-75.4833L118.362-75.4833C121.904-75.4833 124.019-73.4229 124.019-69.746L124.019-34.8377C124.019-31.1322 121.904-29.0718 118.362-29.0718ZM35.2857-52.6318C34.0289-50.796 35.1845-48.2537 37.6228-48.2537L54.5733-48.2537C56.9882-48.2537 58.1724-50.796 56.887-52.6318L48.6415-64.724C48.0054-65.6952 47.1406-66.2199 46.0838-66.2199C45.0269-66.2199 44.1907-65.6952 43.5311-64.724ZM52.6574 8.63469C50.2562 5.43373 49.4747 3.54399 49.4747 0.135357C49.4747-8.34636 57.512-12.6925 57.512-24.2904C57.512-34.8788 49.8398-37.3314 49.8398-49.3945L49.8398-51.6942L42.3277-51.6942L42.3277-49.3945C42.3277-33.4774 49.9999-32.0426 49.9999-24.2904C49.9999-14.5677 41.9626-11.1047 41.9626 0.678443C41.9626 5.33286 43.4111 8.99406 46.6104 13.0686C49.7845 17.0972 55.8836 12.9441 52.6574 8.63469ZM63.3231-52.6318C62.0377-50.796 63.2219-48.2537 65.6317-48.2537L82.5821-48.2537C85.0256-48.2537 86.1761-50.796 84.9244-52.6318L76.6789-64.724C76.0142-65.6952 75.1494-66.2199 74.1212-66.2199C73.0644-66.2199 72.1995-65.6952 71.5348-64.724ZM80.6949 8.63469C78.2936 5.43373 77.5121 3.54399 77.5121 0.135357C77.5121-8.34636 85.5494-12.6925 85.5494-24.2904C85.5494-34.8788 77.8772-37.3314 77.8772-49.3945L77.8772-51.6942L70.3652-51.6942L70.3652-49.3945C70.3652-33.4774 78.0374-32.0426 78.0374-24.2904C78.0374-14.5677 70-11.1047 70 0.678443C70 5.33286 71.4199 8.99406 74.6192 13.0686C77.7933 17.0972 83.921 12.9441 80.6949 8.63469ZM91.3554-52.6318C90.0751-50.796 91.2256-48.2537 93.6691-48.2537L110.62-48.2537C113.034-48.2537 114.214-50.796 112.928-52.6318L104.716-64.724C104.052-65.6952 103.187-66.2199 102.13-66.2199C101.102-66.2199 100.237-65.6952 99.5722-64.724ZM108.704 8.63469C106.302 5.43373 105.521 3.54399 105.521 0.135357C105.521-8.34636 113.558-12.6925 113.558-24.2904C113.558-34.8788 105.886-37.3314 105.886-49.3945L105.886-51.6942L98.374-51.6942L98.374-49.3945C98.374-33.4774 106.07-32.0426 106.07-24.2904C106.07-14.5677 98.0324-11.1047 98.0324 0.678443C98.0324 5.33286 99.4573 8.99406 102.657 13.0686C105.826 17.0972 111.93 12.9441 108.704 8.63469Z"/>
  </g>
  <g id="Semibold-M" transform="matrix(1 0 0 1 1969.84 1126)">
   <path d="M29.018-18.0482L117.837-18.0482C128.523-18.0482 134.394-23.8857 134.394-34.3844L134.394-70.5813C134.394-81.08 128.523-86.9546 117.837-86.9546L29.018-86.9546C18.3765-86.9546 12.4609-81.0943 12.4609-70.5813L12.4609-34.3844C12.4609-23.8715 18.3765-18.0482 29.018-18.0482ZM29.1427-28.373C25.1019-28.373 22.7858-30.6332 22.7858-34.8402L22.7858-70.1625C22.7858-74.3325 25.1019-76.5927 29.1427-76.5927L117.712-76.5927C121.725-76.5927 124.076-74.3325 124.076-70.1625L124.076-34.8402C124.076-30.6332 121.725-28.373 117.712-28.373ZM34.8652-52.8306C33.6845-51.104 34.7516-48.6868 37.0916-48.6868L53.9981-48.6868C56.3082-48.6868 57.4123-51.104 56.1946-52.8306L47.9649-64.9247C47.364-65.8672 46.5421-66.3593 45.5263-66.3593C44.5105-66.3593 43.7258-65.8672 43.0948-64.9247ZM51.8772 8.30817C49.4844 5.11958 48.6737 3.20314 48.6737-0.257447C48.6737-8.77732 56.711-13.2296 56.711-24.7054C56.711-35.1456 49.0808-37.6095 49.0808-49.6718L49.0808-51.8756L41.9719-51.8756L41.9719-49.6718C41.9719-34.0186 49.6021-32.4815 49.6021-24.7054C49.6021-14.9466 41.5648-11.3389 41.5648 0.257502C41.5648 4.88863 43.0192 8.50144 46.1603 12.4975C49.1486 16.2933 54.9513 12.4106 51.8772 8.30817ZM62.7849-52.8306C61.5672-51.104 62.6713-48.6868 64.9743-48.6868L81.8808-48.6868C84.2279-48.6868 85.2879-51.104 84.1143-52.8306L75.8847-64.9247C75.2466-65.8672 74.4248-66.3593 73.446-66.3593C72.4303-66.3593 71.6084-65.8672 70.9704-64.9247ZM79.797 8.30817C77.4041 5.11958 76.5934 3.20314 76.5934-0.257447C76.5934-8.77732 84.6307-13.2296 84.6307-24.7054C84.6307-35.1456 77.0005-37.6095 77.0005-49.6718L77.0005-51.8756L69.8917-51.8756L69.8917-49.6718C69.8917-34.0186 77.5219-32.4815 77.5219-24.7054C77.5219-14.9466 69.4845-11.3389 69.4845 0.257502C69.4845 4.88863 70.9019 8.50144 74.043 12.4975C77.0312 16.2933 82.871 12.4106 79.797 8.30817ZM90.6975-52.8306C89.4868-51.104 90.5469-48.6868 92.894-48.6868L109.801-48.6868C112.111-48.6868 113.208-51.104 111.99-52.8306L103.804-64.9247C103.166-65.8672 102.345-66.3593 101.329-66.3593C100.35-66.3593 99.5282-65.8672 98.8901-64.9247ZM107.68 8.30817C105.287 5.11958 104.476 3.20314 104.476-0.257447C104.476-8.77732 112.513-13.2296 112.513-24.7054C112.513-35.1456 104.883-37.6095 104.883-49.6718L104.883-51.8756L97.7743-51.8756L97.7743-49.6718C97.7743-34.0186 105.434-32.4815 105.434-24.7054C105.434-14.9466 97.3972-11.3389 97.3972 0.257502C97.3972 4.88863 98.8216 8.50144 101.963 12.4975C104.944 16.2933 110.754 12.4106 107.68 8.30817Z"/>
  </g>
  <g id="Medium-M" transform="matrix(1 0 0 1 1673.64 1126)">
   <path d="M28.4803-18.5908L117.345-18.5908C127.838-18.5908 133.364-24.0889 133.364-34.3953L133.364-70.8818C133.364-81.1883 127.838-86.7297 117.345-86.7297L28.4803-86.7297C18.0389-86.7297 12.4609-81.2055 12.4609-70.8818L12.4609-34.3953C12.4609-24.0717 18.0389-18.5908 28.4803-18.5908ZM28.6049-27.8431C24.2015-27.8431 21.7133-30.2548 21.7133-34.8421L21.7133-70.4784C21.7133-75.0223 24.2015-77.4339 28.6049-77.4339L117.22-77.4339C121.589-77.4339 124.12-75.0223 124.12-70.4784L124.12-34.8421C124.12-30.2548 121.589-27.8431 117.22-27.8431ZM34.5463-52.9812C33.4234-51.3376 34.4234-49.0152 36.6888-49.0152L53.562-49.0152C55.7926-49.0152 56.836-51.3376 55.6697-52.9812L47.4519-65.0769C46.8776-65.9976 46.0883-66.4651 45.1037-66.4651C44.119-66.4651 43.3732-65.9976 42.764-65.0769ZM51.2856 8.0606C48.8993 4.88138 48.0664 2.94469 48.0664-0.555288C48.0664-9.10409 56.1037-13.6368 56.1037-25.0201C56.1037-35.3479 48.5052-37.8204 48.5052-49.8822L48.5052-52.0131L41.7021-52.0131L41.7021-49.8822C41.7021-34.4289 49.3005-32.8142 49.3005-25.0201C49.3005-15.2338 41.2633-11.5165 41.2633-0.0616729C41.2633 4.55179 42.7221 8.12792 45.819 12.0644C48.6664 15.6837 54.2444 12.0061 51.2856 8.0606ZM62.3768-52.9812C61.2104-51.3376 62.2539-49.0152 64.4758-49.0152L81.349-49.0152C83.6231-49.0152 84.6144-51.3376 83.5001-52.9812L75.2824-65.0769C74.6646-65.9976 73.8754-66.4651 72.9341-66.4651C71.9495-66.4651 71.1602-65.9976 70.5424-65.0769ZM79.1162 8.0606C76.7297 4.88138 75.8968 2.94469 75.8968-0.555288C75.8968-9.10409 83.9341-13.6368 83.9341-25.0201C83.9341-35.3479 76.3358-37.8204 76.3358-49.8822L76.3358-52.0131L69.5326-52.0131L69.5326-49.8822C69.5326-34.4289 77.131-32.8142 77.131-25.0201C77.131-15.2338 69.0937-11.5165 69.0937-0.0616729C69.0937 4.55179 70.5091 8.12792 73.6061 12.0644C76.4534 15.6837 82.0748 12.0061 79.1162 8.0606ZM90.1987-52.9812C89.0408-51.3376 90.0323-49.0152 92.3063-49.0152L109.18-49.0152C111.41-49.0152 112.445-51.3376 111.279-52.9812L103.113-65.0769C102.495-65.9976 101.706-66.4651 100.721-66.4651C99.7799-66.4651 98.9908-65.9976 98.3729-65.0769ZM106.903 8.0606C104.517 4.88138 103.684 2.94469 103.684-0.555288C103.684-9.10409 111.721-13.6368 111.721-25.0201C111.721-35.3479 104.123-37.8204 104.123-49.8822L104.123-52.0131L97.3196-52.0131L97.3196-49.8822C97.3196-34.4289 104.953-32.8142 104.953-25.0201C104.953-15.2338 96.9156-11.5165 96.9156-0.0616729C96.9156 4.55179 98.3395 8.12792 101.437 12.0644C104.275 15.6837 109.862 12.0061 106.903 8.0606Z"/>
  </g>
  <g id="Regular-M" transform="matrix(1 0 0 1 1377.61 1126)">
   <path d="M27.7789-19.2986L116.702-19.2986C126.945-19.2986 132.02-24.3538 132.02-34.4095L132.02-71.2737C132.02-81.3295 126.945-86.4364 116.702-86.4364L27.7789-86.4364C17.5986-86.4364 12.4609-81.3506 12.4609-71.2737L12.4609-34.4095C12.4609-24.3327 17.5986-19.2986 27.7789-19.2986ZM27.9035-27.152C23.0271-27.152 20.3144-29.7613 20.3144-34.8446L20.3144-70.8903C20.3144-75.9219 23.0271-78.5312 27.9035-78.5312L116.578-78.5312C121.412-78.5312 124.177-75.9219 124.177-70.8903L124.177-34.8446C124.177-29.7613 121.412-27.152 116.578-27.152ZM34.1304-53.1778C33.0828-51.6422 33.9952-49.4435 36.1634-49.4435L52.9931-49.4435C55.12-49.4435 56.0843-51.6422 54.9849-53.1778L46.7828-65.2754C46.2432-66.1677 45.4965-66.6029 44.5524-66.6029C43.6082-66.6029 42.9134-66.1677 42.3325-65.2754ZM50.514 7.73767C48.136 4.57068 47.2743 2.60759 47.2743-0.943776C47.2743-9.53031 55.3115-14.168 55.3115-25.4306C55.3115-35.6118 47.7546-38.0955 47.7546-50.1565L47.7546-52.1924L41.3502-52.1924L41.3502-50.1565C41.3502-34.9641 48.9071-33.2482 48.9071-25.4306C48.9071-15.6085 40.8699-11.7482 40.8699-0.477988C40.8699 4.11245 42.3346 7.64071 45.3739 11.4996C48.0375 14.8887 53.3224 11.4785 50.514 7.73767ZM61.8444-53.1778C60.7451-51.6422 61.7093-49.4435 63.8257-49.4435L80.6554-49.4435C82.8341-49.4435 83.736-51.6422 82.6989-53.1778L74.4969-65.2754C73.9054-66.1677 73.1587-66.6029 72.2664-66.6029C71.3223-66.6029 70.5756-66.1677 69.9842-65.2754ZM78.2281 7.73767C75.85 4.57068 74.9883 2.60759 74.9883-0.943776C74.9883-9.53031 83.0255-14.168 83.0255-25.4306C83.0255-35.6118 75.4687-38.0955 75.4687-50.1565L75.4687-52.1924L69.0643-52.1924L69.0643-50.1565C69.0643-34.9641 76.6212-33.2482 76.6212-25.4306C76.6212-15.6085 68.5839-11.7482 68.5839-0.477988C68.5839 4.11245 69.9968 7.64071 73.0362 11.4996C75.6997 14.8887 81.0364 11.4785 78.2281 7.73767ZM89.548-53.1778C88.4591-51.6422 89.361-49.4435 91.5397-49.4435L108.369-49.4435C110.496-49.4435 111.45-51.6422 110.351-53.1778L102.211-65.2754C101.62-66.1677 100.873-66.6029 99.9287-66.6029C99.0363-66.6029 98.2897-66.1677 97.6983-65.2754ZM105.89 7.73767C103.512 4.57068 102.651 2.60759 102.651-0.943776C102.651-9.53031 110.688-14.168 110.688-25.4306C110.688-35.6118 103.131-38.0955 103.131-50.1565L103.131-52.1924L96.7265-52.1924L96.7265-50.1565C96.7265-34.9641 104.325-33.2482 104.325-25.4306C104.325-15.6085 96.2874-11.7482 96.2874-0.477988C96.2874 4.11245 97.7108 7.64071 100.75 11.4996C103.403 14.8887 108.699 11.4785 105.89 7.73767Z"/>
  </g>
  <g id="Light-M" transform="matrix(1 0 0 1 1081.6 1126)">
   <path d="M26.8549-20.1884L116.206-20.1884C125.781-20.1884 130.599-25.0553 130.599-34.4437L130.599-71.3764C130.599-80.7648 125.781-85.6664 116.206-85.6664L26.8549-85.6664C17.3419-85.6664 12.4609-80.8202 12.4609-71.3764L12.4609-34.4437C12.4609-25 17.3419-20.1884 26.8549-20.1884ZM26.9795-26.228C21.47-26.228 18.5006-29.1281 18.5006-34.7761L18.5006-71.0785C18.5006-76.6919 21.47-79.5921 26.9795-79.5921L116.081-79.5921C121.48-79.5921 124.588-76.6919 124.588-71.0785L124.588-34.7761C124.588-29.1281 121.48-26.228 116.081-26.228ZM33.908-53.6397C32.9801-52.2411 33.7557-50.3162 35.7014-50.3162L52.2403-50.3162C54.1789-50.3162 54.9892-52.2411 54.0267-53.6397L45.9615-65.7545C45.456-66.5784 44.812-66.9109 43.9535-66.9109C43.0949-66.9109 42.4856-66.5784 41.9732-65.7545ZM48.974 6.43724C46.5789 3.28736 45.7343 1.27294 45.7343-2.27843C45.7343-10.7452 53.7715-16.033 53.7715-26.8679C53.7715-36.4845 46.4884-39.1564 46.4884-50.6698L46.4884-52.7742L41.4186-52.7742L41.4186-50.6698C41.4186-36.5041 48.7018-34.5316 48.7018-26.8679C48.7018-17.1827 40.6645-12.5181 40.6645-1.96662C40.6645 2.69224 42.1806 5.98095 44.8948 9.42917C47.0279 12.1509 51.1835 9.37385 48.974 6.43724ZM61.5022-53.6397C60.5398-52.2411 61.35-50.3162 63.261-50.3162L79.7999-50.3162C81.7733-50.3162 82.5211-52.2411 81.6209-53.6397L73.5558-65.7545C73.0157-66.5784 72.3717-66.9109 71.5477-66.9109C70.6892-66.9109 70.0452-66.5784 69.5052-65.7545ZM76.5684 6.43724C74.1731 3.28736 73.3285 1.27294 73.3285-2.27843C73.3285-10.7452 81.3658-16.033 81.3658-26.8679C81.3658-36.4845 74.0827-39.1564 74.0827-50.6698L74.0827-52.7742L69.0129-52.7742L69.0129-50.6698C69.0129-36.5041 76.2961-34.5316 76.2961-26.8679C76.2961-17.1827 68.2588-12.5181 68.2588-1.96662C68.2588 2.69224 69.7402 5.98095 72.4544 9.42917C74.5875 12.1509 78.7777 9.37385 76.5684 6.43724ZM89.0689-53.6397C88.134-52.2411 88.8819-50.3162 90.8552-50.3162L107.394-50.3162C109.333-50.3162 110.115-52.2411 109.153-53.6397L101.15-65.7545C100.61-66.5784 99.966-66.9109 99.1074-66.9109C98.2835-66.9109 97.6395-66.5784 97.0994-65.7545ZM104.128 6.43724C101.733 3.28736 100.888 1.27294 100.888-2.27843C100.888-10.7452 108.925-16.033 108.925-26.8679C108.925-36.4845 101.642-39.1564 101.642-50.6698L101.642-52.7742L96.5725-52.7742L96.5725-50.6698C96.5725-36.5041 103.863-34.5316 103.863-26.8679C103.863-17.1827 95.8254-12.5181 95.8254-1.96662C95.8254 2.69224 97.3344 5.98095 100.049 9.42917C102.154 12.1509 106.337 9.37385 104.128 6.43724Z"/>
  </g>
  <g id="Thin-M" transform="matrix(1 0 0 1 785.831 1126)">
   <path d="M25.6329-21.3652L115.55-21.3652C124.242-21.3652 128.721-25.9832 128.721-34.4889L128.721-71.5122C128.721-80.0179 124.242-84.6481 115.55-84.6481L25.6329-84.6481C17.0025-84.6481 12.4609-80.1186 12.4609-71.5122L12.4609-34.4889C12.4609-25.8826 17.0025-21.3652 25.6329-21.3652ZM25.7574-25.006C19.4106-25.006 16.1018-28.2908 16.1018-34.6856L16.1018-71.3275C16.1018-77.7103 19.4106-80.9952 25.7574-80.9952L115.425-80.9952C121.571-80.9952 125.131-77.7103 125.131-71.3275L125.131-34.6856C125.131-28.2908 121.571-25.006 115.425-25.006ZM33.6137-54.2507C32.8443-53.0332 33.4389-51.4703 35.0904-51.4703L51.2445-51.4703C52.9343-51.4703 53.5408-53.0332 52.7594-54.2507L44.8752-66.3882C44.415-67.1216 43.9068-67.3182 43.1614-67.3182C42.416-67.3182 41.9198-67.1216 41.498-66.3882ZM46.9373 4.71731C44.5195 1.59007 43.6975-0.492249 43.6975-4.04361C43.6975-12.3519 51.7348-18.4997 51.7348-28.7688C51.7348-37.6386 44.8137-40.5595 44.8137-51.3487L44.8137-53.5436L41.5092-53.5436L41.5092-51.3487C41.5092-38.5408 48.4303-36.2289 48.4303-28.7688C48.4303-19.2647 40.393-13.5365 40.393-3.93546C40.393 0.813901 41.9769 3.78578 44.2611 6.69087C45.6927 8.53005 48.3546 6.59028 46.9373 4.71731ZM61.0496-54.2507C60.2682-53.0332 60.8748-51.4703 62.5141-51.4703L78.6684-51.4703C80.3702-51.4703 80.9143-53.0332 80.1952-54.2507L72.3111-66.3882C71.8389-67.1216 71.3307-67.3182 70.5973-67.3182C69.8519-67.3182 69.3437-67.1216 68.8715-66.3882ZM74.3732 4.71731C71.9553 1.59007 71.1334-0.492249 71.1334-4.04361C71.1334-12.3519 79.1706-18.4997 79.1706-28.7688C79.1706-37.6386 72.2496-40.5595 72.2496-51.3487L72.2496-53.5436L68.9451-53.5436L68.9451-51.3487C68.9451-38.5408 75.8661-36.2289 75.8661-28.7688C75.8661-19.2647 67.8288-13.5365 67.8288-3.93546C67.8288 0.813901 69.4007 3.78578 71.685 6.69087C73.1165 8.53005 75.7905 6.59028 74.3732 4.71731ZM88.4352-54.2507C87.704-53.0332 88.2483-51.4703 89.95-51.4703L106.104-51.4703C107.794-51.4703 108.35-53.0332 107.569-54.2507L99.7469-66.3882C99.2748-67.1216 98.7666-67.3182 98.0211-67.3182C97.2877-67.3182 96.7795-67.1216 96.3073-66.3882ZM101.797 4.71731C99.3791 1.59007 98.5571-0.492249 98.5571-4.04361C98.5571-12.3519 106.594-18.4997 106.594-28.7688C106.594-37.6386 99.6734-40.5595 99.6734-51.3487L99.6734-53.5436L96.3688-53.5436L96.3688-51.3487C96.3688-38.5408 103.252-36.2289 103.252-28.7688C103.252-19.2647 95.2143-13.5365 95.2143-3.93546C95.2143 0.813901 96.8365 3.78578 99.1209 6.69087C100.502 8.53005 103.214 6.59028 101.797 4.71731Z"/>
  </g>
  <g id="Ultralight-M" transform="matrix(1 0 0 1 489.601 1126)">
   <path d="M25.0069-21.9679L115.214-21.9679C123.454-21.9679 127.759-26.4584 127.759-34.5121L127.759-71.5818C127.759-79.6354 123.454-84.1265 115.214-84.1265L25.0069-84.1265C16.8286-84.1265 12.4609-79.7593 12.4609-71.5818L12.4609-34.5121C12.4609-26.3347 16.8286-21.9679 25.0069-21.9679ZM25.1315-24.3801C18.3558-24.3801 14.8731-27.8619 14.8731-34.6393L14.8731-71.455C14.8731-78.232 18.3558-81.7139 25.1315-81.7139L115.089-81.7139C121.617-81.7139 125.409-78.232 125.409-71.455L125.409-34.6393C125.409-27.8619 121.617-24.3801 115.089-24.3801ZM33.463-54.5637C32.7748-53.4389 33.2766-52.0615 34.7774-52.0615L50.7345-52.0615C52.2968-52.0615 52.799-53.4389 52.1102-54.5637L44.3189-66.7127C43.8818-67.3998 43.4432-67.5268 42.7557-67.5268C42.0682-67.5268 41.63-67.3998 41.2545-66.7127ZM45.8941 3.83638C43.4647 0.720728 42.6543-1.39637 42.6543-4.94773C42.6543-13.1748 50.6916-19.7632 50.6916-29.7425C50.6916-38.2298 43.956-41.2781 43.956-51.6965L43.956-53.9377L41.5556-53.9377L41.5556-51.6965C41.5556-39.5841 48.2912-37.0983 48.2912-29.7425C48.2912-20.3311 40.2539-14.0581 40.2539-4.9439C40.2539-0.148175 41.8726 2.66142 43.9365 5.28832C45.0088 6.67544 46.9057 5.16455 45.8941 3.83638ZM60.8178-54.5637C60.1291-53.4389 60.6314-52.0615 62.1316-52.0615L78.0889-52.0615C79.6515-52.0615 80.0913-53.4389 79.465-54.5637L71.6736-66.7127C71.2361-67.3998 70.7975-67.5268 70.1104-67.5268C69.423-67.5268 68.9843-67.3998 68.547-66.7127ZM73.2488 3.83638C70.8193 0.720728 70.009-1.39637 70.009-4.94773C70.009-13.1748 78.0463-19.7632 78.0463-29.7425C78.0463-38.2298 71.3107-41.2781 71.3107-51.6965L71.3107-53.9377L68.9103-53.9377L68.9103-51.6965C68.9103-39.5841 75.6459-37.0983 75.6459-29.7425C75.6459-20.3311 67.6086-14.0581 67.6086-4.9439C67.6086-0.148175 69.2268 2.66142 71.2909 5.28832C72.363 6.67544 74.2604 5.16455 73.2488 3.83638ZM88.1106-54.5637C87.4837-53.4389 87.9237-52.0615 89.4863-52.0615L105.443-52.0615C107.006-52.0615 107.446-53.4389 106.757-54.5637L99.0282-66.7127C98.5909-67.3998 98.1522-67.5268 97.4648-67.5268C96.7777-67.5268 96.3391-67.3998 95.9016-66.7127ZM100.603 3.83638C98.1736 0.720728 97.3632-1.39637 97.3632-4.94773C97.3632-13.1748 105.401-19.7632 105.401-29.7425C105.401-38.2298 98.6649-41.2781 98.6649-51.6965L98.6649-53.9377L96.2645-53.9377L96.2645-51.6965C96.2645-39.5841 102.939-37.0983 102.939-29.7425C102.939-20.3311 94.9014-14.0581 94.9014-4.9439C94.9014-0.148175 96.5815 2.66142 98.6456 5.28832C99.6559 6.67544 101.615 5.16455 100.603 3.83638Z"/>
  </g>
  <g id="Black-S" transform="matrix(1 0 0 1 2873.63 696)">
   <path d="M25.0488-19.4336L94.4824-19.4336C103.662-19.4336 109.766-25.4883 109.766-34.5215L109.766-61.6211C109.766-70.6543 103.662-76.709 94.4824-76.709L25.0488-76.709C15.8691-76.709 9.76562-70.6543 9.76562-61.6211L9.76562-34.5215C9.76562-25.4883 15.8691-19.4336 25.0488-19.4336ZM25.1465-32.1289C23.5352-32.1289 22.4609-33.252 22.4609-34.9121L22.4609-61.2305C22.4609-62.8906 23.5352-64.0137 25.1465-64.0137L94.3848-64.0137C95.9961-64.0137 97.0703-62.8906 97.0703-61.2305L97.0703-34.9121C97.0703-33.252 95.9961-32.1289 94.3848-32.1289ZM28.7109-48.3887C27.5391-46.6797 28.6621-44.3848 30.8105-44.3848L44.1895-44.3848C46.3379-44.3848 47.4609-46.6797 46.2891-48.3887L39.7949-57.8613C39.209-58.6914 38.4277-59.1797 37.5-59.1797C36.5723-59.1797 35.791-58.6914 35.2051-57.8613ZM43.1641-0.0976562C41.2598-2.63672 40.7227-4.05273 40.7227-6.5918C40.7227-13.1348 47.0215-16.3086 47.0215-25.6836C47.0215-34.3262 40.918-36.2305 40.918-45.6543L40.918-47.7051L34.082-47.7051L34.082-45.6543C34.082-32.5684 40.1855-31.6895 40.1855-25.6836C40.1855-18.1641 33.8867-15.7715 33.8867-6.10352C33.8867-2.39258 35.0098 0.585938 37.6465 3.95508C40.5762 7.66602 46.0449 3.75977 43.1641-0.0976562ZM50.9766-48.3887C49.8047-46.6797 50.9277-44.3848 53.0762-44.3848L66.4551-44.3848C68.6035-44.3848 69.7266-46.6797 68.5547-48.3887L62.0605-57.8613C61.4746-58.6914 60.6934-59.1797 59.7656-59.1797C58.8379-59.1797 58.0566-58.6914 57.4707-57.8613ZM65.4297-0.0976562C63.5254-2.63672 62.9883-4.05273 62.9883-6.5918C62.9883-13.1348 69.2871-16.3086 69.2871-25.6836C69.2871-34.3262 63.1836-36.2305 63.1836-45.6543L63.1836-47.7051L56.3477-47.7051L56.3477-45.6543C56.3477-32.5684 62.4512-31.6895 62.4512-25.6836C62.4512-18.1641 56.1523-15.7715 56.1523-6.10352C56.1523-2.39258 57.2754 0.585938 59.9121 3.95508C62.8418 7.66602 68.3105 3.75977 65.4297-0.0976562ZM73.2422-48.3887C72.0703-46.6797 73.1934-44.3848 75.3418-44.3848L88.7207-44.3848C90.8691-44.3848 91.9922-46.6797 90.8203-48.3887L84.3262-57.8613C83.7402-58.6914 82.959-59.1797 82.0312-59.1797C81.1035-59.1797 80.3223-58.6914 79.7363-57.8613ZM87.6953-0.0976562C85.791-2.63672 85.2539-4.05273 85.2539-6.5918C85.2539-13.1348 91.5527-16.3086 91.5527-25.6836C91.5527-34.3262 85.4492-36.2305 85.4492-45.6543L85.4492-47.7051L78.6133-47.7051L78.6133-45.6543C78.6133-32.5684 84.7168-31.6895 84.7168-25.6836C84.7168-18.1641 78.418-15.7715 78.418-6.10352C78.418-2.39258 79.541 0.585938 82.1777 3.95508C85.1074 7.66602 90.5762 3.75977 87.6953-0.0976562Z"/>
  </g>
  <g id="Heavy-S" transform="matrix(1 0 0 1 2577.58 696)">
   <path d="M24.3804-20.1136L93.8255-20.1136C102.809-20.1136 108.441-25.6957 108.441-34.533L108.441-62.0475C108.441-70.8848 102.809-76.4785 93.8255-76.4785L24.3804-76.4785C15.4081-76.4785 9.76562-70.8848 9.76562-62.0475L9.76562-34.533C9.76562-25.6957 15.4081-20.1136 24.3804-20.1136ZM24.4781-31.472C22.4173-31.472 21.1241-32.7795 21.1241-34.9236L21.1241-61.6684C21.1241-63.801 22.4173-65.1085 24.4781-65.1085L93.7279-65.1085C95.7887-65.1085 97.0818-63.801 97.0818-61.6684L97.0818-34.9236C97.0818-32.7795 95.7887-31.472 93.7279-31.472ZM28.273-48.55C27.1703-46.9448 28.2126-44.7536 30.2804-44.7536L43.6478-44.7536C45.704-44.7536 46.7579-46.9448 45.6437-48.55L39.1495-58.0226C38.5982-58.8297 37.8515-59.2949 36.9584-59.2949C36.0652-59.2949 35.33-58.8297 34.7672-58.0226ZM42.4957-0.293572C40.6029-2.82111 40.0312-4.26017 40.0312-6.85686C40.0312-13.4575 46.33-16.6659 46.33-25.9602C46.33-34.5106 40.238-36.4034 40.238-45.8963L40.238-47.8319L33.6786-47.8319L33.6786-45.8963C33.6786-32.9717 39.7706-32.0122 39.7706-25.9602C39.7706-18.3831 33.4718-15.9328 33.4718-6.38011C33.4718-2.70374 34.5949 0.251728 37.2086 3.5863C40 7.12437 45.2843 3.43708 42.4957-0.293572ZM50.4234-48.55C49.3092-46.9448 50.363-44.7536 52.4193-44.7536L65.7867-44.7536C67.8544-44.7536 68.8968-46.9448 67.7941-48.55L61.2999-58.0226C60.737-58.8297 59.9904-59.2949 59.1087-59.2949C58.2156-59.2949 57.4689-58.8297 56.906-58.0226ZM64.646-0.293572C62.7533-2.82111 62.1816-4.26017 62.1816-6.85686C62.1816-13.4575 68.4804-16.6659 68.4804-25.9602C68.4804-34.5106 62.3884-36.4034 62.3884-45.8963L62.3884-47.8319L55.8291-47.8319L55.8291-45.8963C55.8291-32.9717 61.9211-32.0122 61.9211-25.9602C61.9211-18.3831 55.6222-15.9328 55.6222-6.38011C55.6222-2.70374 56.7338 0.251728 59.3474 3.5863C62.1388 7.12437 67.4346 3.43708 64.646-0.293572ZM72.5738-48.55C71.4595-46.9448 72.5019-44.7536 74.5697-44.7536L87.937-44.7536C89.9932-44.7536 91.0472-46.9448 89.9329-48.55L83.4503-58.0226C82.8874-58.8297 82.1408-59.2949 81.2475-59.2949C80.3659-59.2949 79.6193-58.8297 79.0564-58.0226ZM86.7849-0.293572C84.8921-2.82111 84.3204-4.26017 84.3204-6.85686C84.3204-13.4575 90.6192-16.6659 90.6192-25.9602C90.6192-34.5106 84.5273-36.4034 84.5273-45.8963L84.5273-47.8319L77.9679-47.8319L77.9679-45.8963C77.9679-32.9717 84.0714-32.0122 84.0714-25.9602C84.0714-18.3831 77.7726-15.9328 77.7726-6.38011C77.7726-2.70374 78.8841 0.251728 81.4978 3.5863C84.2892 7.12437 89.5736 3.43708 86.7849-0.293572Z"/>
  </g>
  <g id="Bold-S" transform="matrix(1 0 0 1 2281.62 696)">
   <path d="M23.6328-20.874L93.0908-20.874C101.855-20.874 106.958-25.9278 106.958-34.5459L106.958-62.5244C106.958-71.1426 101.855-76.2207 93.0908-76.2207L23.6328-76.2207C14.8925-76.2207 9.76562-71.1426 9.76562-62.5244L9.76562-34.5459C9.76562-25.9278 14.8925-20.874 23.6328-20.874ZM23.7305-30.7373C21.167-30.7373 19.6289-32.251 19.6289-34.9365L19.6289-62.1582C19.6289-64.8193 21.167-66.333 23.7305-66.333L92.9932-66.333C95.5566-66.333 97.0947-64.8193 97.0947-62.1582L97.0947-34.9365C97.0947-32.251 95.5566-30.7373 92.9932-30.7373ZM27.7832-48.7305C26.7578-47.2412 27.71-45.1661 29.6875-45.1661L43.042-45.1661C44.9951-45.1661 45.9717-47.2412 44.9219-48.7305L38.4277-58.2031C37.915-58.9844 37.207-59.4239 36.3525-59.4239C35.498-59.4239 34.8145-58.9844 34.2774-58.2031ZM41.7481-0.512695C39.8682-3.02734 39.2578-4.49219 39.2578-7.15332C39.2578-13.8184 45.5566-17.0654 45.5566-26.2695C45.5566-34.7168 39.4776-36.5967 39.4776-46.167L39.4776-47.9737L33.2275-47.9737L33.2275-46.167C33.2275-33.4228 39.3066-32.373 39.3066-26.2695C39.3066-18.6279 33.0078-16.1133 33.0078-6.68946C33.0078-3.05176 34.1309-0.12207 36.7187 3.17383C39.3555 6.51855 44.4336 3.07617 41.7481-0.512695ZM49.8047-48.7305C48.7549-47.2412 49.7315-45.1661 51.6846-45.1661L65.0391-45.1661C67.0166-45.1661 67.9688-47.2412 66.9434-48.7305L60.4492-58.2031C59.9121-58.9844 59.2041-59.4239 58.374-59.4239C57.5195-59.4239 56.8115-58.9844 56.2744-58.2031ZM63.7696-0.512695C61.8896-3.02734 61.2793-4.49219 61.2793-7.15332C61.2793-13.8184 67.5781-17.0654 67.5781-26.2695C67.5781-34.7168 61.499-36.5967 61.499-46.167L61.499-47.9737L55.249-47.9737L55.249-46.167C55.249-33.4228 61.3281-32.373 61.3281-26.2695C61.3281-18.6279 55.0293-16.1133 55.0293-6.68946C55.0293-3.05176 56.1279-0.12207 58.7158 3.17383C61.3526 6.51855 66.4551 3.07617 63.7696-0.512695ZM71.8262-48.7305C70.7763-47.2412 71.7286-45.1661 73.7061-45.1661L87.0605-45.1661C89.0136-45.1661 89.9903-47.2412 88.9404-48.7305L82.4707-58.2031C81.9336-58.9844 81.2256-59.4239 80.371-59.4239C79.541-59.4239 78.833-58.9844 78.2959-58.2031ZM85.7666-0.512695C83.8867-3.02734 83.2764-4.49219 83.2764-7.15332C83.2764-13.8184 89.5752-17.0654 89.5752-26.2695C89.5752-34.7168 83.4961-36.5967 83.4961-46.167L83.4961-47.9737L77.2461-47.9737L77.2461-46.167C77.2461-33.4228 83.3496-32.373 83.3496-26.2695C83.3496-18.6279 77.0508-16.1133 77.0508-6.68946C77.0508-3.05176 78.1494-0.12207 80.7373 3.17383C83.374 6.51855 88.4521 3.07617 85.7666-0.512695Z"/>
  </g>
  <g id="Semibold-S" transform="matrix(1 0 0 1 1985.42 696)">
   <path d="M23.1174-21.3984L92.5843-21.3984C101.198-21.3984 105.936-26.0877 105.936-34.5548L105.936-62.8532C105.936-71.3203 101.198-76.043 92.5843-76.043L23.1174-76.043C14.5371-76.043 9.76562-71.3203 9.76562-62.8532L9.76562-34.5548C9.76562-26.0877 14.5371-21.3984 23.1174-21.3984ZM23.2151-30.2308C20.305-30.2308 18.5981-31.8866 18.5981-34.9454L18.5981-62.4959C18.5981-65.5213 20.305-67.1772 23.2151-67.1772L92.4867-67.1772C95.3967-67.1772 97.1036-65.5213 97.1036-62.4959L97.1036-34.9454C97.1036-31.8866 95.3967-30.2308 92.4867-30.2308ZM27.4455-48.8549C26.4735-47.4456 27.3634-45.4504 29.2787-45.4504L42.6243-45.4504C44.5063-45.4504 45.4296-47.4456 44.4242-48.8549L37.93-58.3275C37.4441-59.091 36.7627-59.5127 35.9349-59.5127C35.107-59.5127 34.459-59.091 33.9396-58.3275ZM41.2326-0.663769C39.3617-3.16953 38.7246-4.65215 38.7246-7.35771C38.7246-14.0672 45.0234-17.3409 45.0234-26.4828C45.0234-34.859 38.9532-36.73 38.9532-46.3536L38.9532-48.0714L32.9165-48.0714L32.9165-46.3536C32.9165-33.7339 38.9867-32.6219 38.9867-26.4828C38.9867-18.7968 32.6879-16.2377 32.6879-6.90274C32.6879-3.2917 33.811-0.379785 36.381 2.88945C38.9112 6.10088 43.8471 2.82735 41.2326-0.663769ZM49.3781-48.8549C48.3728-47.4456 49.296-45.4504 51.1781-45.4504L64.5236-45.4504C66.439-45.4504 67.3289-47.4456 66.3568-48.8549L59.8627-58.3275C59.3434-59.091 58.662-59.5127 57.8675-59.5127C57.0397-59.5127 56.3583-59.091 55.8389-58.3275ZM63.1653-0.663769C61.2942-3.16953 60.6572-4.65215 60.6572-7.35771C60.6572-14.0672 66.956-17.3409 66.956-26.4828C66.956-34.859 60.8859-36.73 60.8859-46.3536L60.8859-48.0714L54.8491-48.0714L54.8491-46.3536C54.8491-33.7339 60.9194-32.6219 60.9194-26.4828C60.9194-18.7968 54.6205-16.2377 54.6205-6.90274C54.6205-3.2917 55.7103-0.379785 58.2803 2.88945C60.8105 6.10088 65.7797 2.82735 63.1653-0.663769ZM71.3108-48.8549C70.3054-47.4456 71.1953-45.4504 73.1106-45.4504L86.4563-45.4504C88.3383-45.4504 89.2615-47.4456 88.2561-48.8549L81.7953-58.3275C81.276-59.091 80.5946-59.5127 79.7668-59.5127C78.9723-59.5127 78.291-59.091 77.7716-58.3275ZM85.0646-0.663769C83.1935-3.16953 82.5565-4.65215 82.5565-7.35771C82.5565-14.0672 88.8554-17.3409 88.8554-26.4828C88.8554-34.859 82.7852-36.73 82.7852-46.3536L82.7852-48.0714L76.7484-48.0714L76.7484-46.3536C76.7484-33.7339 82.8519-32.6219 82.8519-26.4828C82.8519-18.7968 76.5531-16.2377 76.5531-6.90274C76.5531-3.2917 77.6429-0.379785 80.213 2.88945C82.743 6.10088 87.679 2.82735 85.0646-0.663769Z"/>
  </g>
  <g id="Medium-S" transform="matrix(1 0 0 1 1689.09 696)">
   <path d="M22.7266-21.7959L92.2002-21.7959C100.699-21.7959 105.161-26.209 105.161-34.5615L105.161-63.1025C105.161-71.4551 100.699-75.9082 92.2002-75.9082L22.7266-75.9082C14.2676-75.9082 9.76562-71.4551 9.76562-63.1025L9.76562-34.5615C9.76562-26.209 14.2676-21.7959 22.7266-21.7959ZM22.8243-29.8467C19.6514-29.8467 17.8164-31.6104 17.8164-34.9521L17.8164-62.7519C17.8164-66.0537 19.6514-67.8174 22.8243-67.8174L92.1026-67.8174C95.2754-67.8174 97.1103-66.0537 97.1103-62.7519L97.1103-34.9521C97.1103-31.6104 95.2754-29.8467 92.1026-29.8467ZM27.1895-48.9493C26.2578-47.6006 27.1006-45.6661 28.9688-45.6661L42.3076-45.6661C44.1357-45.6661 45.0185-47.6006 44.0469-48.9493L37.5527-58.4219C37.0869-59.1718 36.4258-59.5801 35.6182-59.5801C34.8105-59.5801 34.1895-59.1718 33.6836-58.4219ZM40.8418-0.77832C38.9776-3.27734 38.3203-4.77344 38.3203-7.51269C38.3203-14.2559 44.6191-17.5498 44.6191-26.6446C44.6191-34.9668 38.5557-36.8311 38.5557-46.4951L38.5557-48.1455L32.6806-48.1455L32.6806-46.4951C32.6806-33.9697 38.7441-32.8105 38.7441-26.6446C38.7441-18.9248 32.4453-16.3321 32.4453-7.06445C32.4453-3.47364 33.5684-0.575195 36.125 2.67383C38.5743 5.78418 43.4024 2.63867 40.8418-0.77832ZM49.0547-48.9493C48.083-47.6006 48.9659-45.6661 50.794-45.6661L64.1328-45.6661C66.001-45.6661 66.8437-47.6006 65.9121-48.9493L59.418-58.4219C58.9121-59.1718 58.2509-59.5801 57.4834-59.5801C56.6758-59.5801 56.0146-59.1718 55.5088-58.4219ZM62.7071-0.77832C60.8428-3.27734 60.1855-4.77344 60.1855-7.51269C60.1855-14.2559 66.4843-17.5498 66.4843-26.6446C66.4843-34.9668 60.4209-36.8311 60.4209-46.4951L60.4209-48.1455L54.5459-48.1455L54.5459-46.4951C54.5459-33.9697 60.6094-32.8105 60.6094-26.6446C60.6094-18.9248 54.3105-16.3321 54.3105-7.06445C54.3105-3.47364 55.3936-0.575195 57.9502 2.67383C60.3994 5.78418 65.2676 2.63867 62.7071-0.77832ZM70.92-48.9493C69.9482-47.6006 70.791-45.6661 72.6592-45.6661L85.9981-45.6661C87.8262-45.6661 88.709-47.6006 87.7373-48.9493L81.2832-58.4219C80.7774-59.1718 80.1162-59.5801 79.3086-59.5801C78.541-59.5801 77.8799-59.1718 77.374-58.4219ZM84.5322-0.77832C82.6679-3.27734 82.0107-4.77344 82.0107-7.51269C82.0107-14.2559 88.3096-17.5498 88.3096-26.6446C88.3096-34.9668 82.2461-36.8311 82.2461-46.4951L82.2461-48.1455L76.3711-48.1455L76.3711-46.4951C76.3711-33.9697 82.4746-32.8105 82.4746-26.6446C82.4746-18.9248 76.1758-16.3321 76.1758-7.06445C76.1758-3.47364 77.2588-0.575195 79.8154 2.67383C82.2646 5.78418 87.0928 2.63867 84.5322-0.77832Z"/>
  </g>
  <g id="Regular-S" transform="matrix(1 0 0 1 1392.89 696)">
   <path d="M22.2168-22.3145L91.6992-22.3145C100.049-22.3145 104.15-26.3672 104.15-34.5703L104.15-63.4277C104.15-71.6309 100.049-75.7324 91.6992-75.7324L22.2168-75.7324C13.916-75.7324 9.76562-71.6309 9.76562-63.4277L9.76562-34.5703C9.76562-26.3672 13.916-22.3145 22.2168-22.3145ZM22.3145-29.3457C18.7988-29.3457 16.7969-31.25 16.7969-34.9609L16.7969-63.0859C16.7969-66.748 18.7988-68.6523 22.3145-68.6523L91.6016-68.6523C95.1172-68.6523 97.1191-66.748 97.1191-63.0859L97.1191-34.9609C97.1191-31.25 95.1172-29.3457 91.6016-29.3457ZM26.8555-49.0723C25.9766-47.8027 26.7578-45.9473 28.5645-45.9473L41.8945-45.9473C43.6523-45.9473 44.4824-47.8027 43.5547-49.0723L37.0605-58.5449C36.6211-59.2773 35.9863-59.668 35.2051-59.668C34.4238-59.668 33.8379-59.2773 33.3496-58.5449ZM40.332-0.927734C38.4766-3.41797 37.793-4.93164 37.793-7.71484C37.793-14.502 44.0918-17.8223 44.0918-26.8555C44.0918-35.1074 38.0371-36.9629 38.0371-46.6797L38.0371-48.2422L32.373-48.2422L32.373-46.6797C32.373-34.2773 38.4277-33.0566 38.4277-26.8555C38.4277-19.0918 32.1289-16.4551 32.1289-7.27539C32.1289-3.71094 33.252-0.830078 35.791 2.39258C38.1348 5.37109 42.8223 2.39258 40.332-0.927734ZM48.6328-49.0723C47.7051-47.8027 48.5352-45.9473 50.293-45.9473L63.623-45.9473C65.4297-45.9473 66.2109-47.8027 65.332-49.0723L58.8379-58.5449C58.3496-59.2773 57.7148-59.668 56.9824-59.668C56.2012-59.668 55.5664-59.2773 55.0781-58.5449ZM62.1094-0.927734C60.2539-3.41797 59.5703-4.93164 59.5703-7.71484C59.5703-14.502 65.8691-17.8223 65.8691-26.8555C65.8691-35.1074 59.8145-36.9629 59.8145-46.6797L59.8145-48.2422L54.1504-48.2422L54.1504-46.6797C54.1504-34.2773 60.2051-33.0566 60.2051-26.8555C60.2051-19.0918 53.9062-16.4551 53.9062-7.27539C53.9062-3.71094 54.9805-0.830078 57.5195 2.39258C59.8633 5.37109 64.5996 2.39258 62.1094-0.927734ZM70.4102-49.0723C69.4824-47.8027 70.2637-45.9473 72.0703-45.9473L85.4004-45.9473C87.1582-45.9473 87.9883-47.8027 87.0605-49.0723L80.6152-58.5449C80.127-59.2773 79.4922-59.668 78.7109-59.668C77.9785-59.668 77.3438-59.2773 76.8555-58.5449ZM83.8379-0.927734C81.9824-3.41797 81.2988-4.93164 81.2988-7.71484C81.2988-14.502 87.5977-17.8223 87.5977-26.8555C87.5977-35.1074 81.543-36.9629 81.543-46.6797L81.543-48.2422L75.8789-48.2422L75.8789-46.6797C75.8789-34.2773 81.9824-33.0566 81.9824-26.8555C81.9824-19.0918 75.6836-16.4551 75.6836-7.27539C75.6836-3.71094 76.7578-0.830078 79.2969 2.39258C81.6406 5.37109 86.3281 2.39258 83.8379-0.927734Z"/>
  </g>
  <g id="Light-S" transform="matrix(1 0 0 1 1096.81 696)">
   <path d="M21.3994-23.1016L91.2602-23.1016C99.0197-23.1016 102.894-26.9878 102.894-34.6006L102.894-63.5185C102.894-71.1314 99.0197-75.0513 91.2602-75.0513L21.3994-75.0513C13.689-75.0513 9.76562-71.1617 9.76562-63.5185L9.76562-34.6006C9.76562-26.9575 13.689-23.1016 21.3994-23.1016ZM21.4971-28.5283C17.4214-28.5283 15.1924-30.6899 15.1924-34.9004L15.1924-63.2524C15.1924-67.4292 17.4214-69.5908 21.4971-69.5908L91.1626-69.5908C95.1777-69.5908 97.4824-67.4292 97.4824-63.2524L97.4824-34.9004C97.4824-30.6899 95.1777-28.5283 91.1626-28.5283ZM26.6587-49.481C25.8858-48.3325 26.5459-46.7193 28.1558-46.7193L41.2285-46.7193C42.8198-46.7193 43.5137-48.3325 42.707-49.481L36.334-58.9687C35.9248-59.6406 35.3808-59.9404 34.6753-59.9404C33.9697-59.9404 33.4595-59.6406 33.0317-58.9687ZM38.9697-2.07812C37.0992-4.55321 36.4307-6.11229 36.4307-8.89549C36.4307-15.5767 42.7295-19.4722 42.7295-28.127C42.7295-35.8794 36.917-37.9014 36.917-47.1338L36.917-48.7568L32.4336-48.7568L32.4336-47.1338C32.4336-35.6396 38.2461-34.1919 38.2461-28.127C38.2461-20.4844 31.9473-17.1362 31.9473-8.59226C31.9473-4.96728 33.1158-2.29833 35.3672 0.56105C37.2417 2.94924 40.9302 0.530777 38.9697-2.07812ZM48.3301-49.481C47.5235-48.3325 48.2173-46.7193 49.7935-46.7193L62.8662-46.7193C64.4912-46.7193 65.1362-48.3325 64.3784-49.481L58.0054-58.9687C57.5625-59.6406 57.0185-59.9404 56.3467-59.9404C55.6411-59.9404 55.0972-59.6406 54.6543-58.9687ZM60.6411-2.07812C58.7705-4.55321 58.1021-6.11229 58.1021-8.89549C58.1021-15.5767 64.4009-19.4722 64.4009-28.127C64.4009-35.8794 58.5884-37.9014 58.5884-47.1338L58.5884-48.7568L54.105-48.7568L54.105-47.1338C54.105-35.6396 59.9175-34.1919 59.9175-28.127C59.9175-20.4844 53.6186-17.1362 53.6186-8.59226C53.6186-4.96728 54.7534-2.29833 57.0049 0.56105C58.8794 2.94924 62.6016 0.530777 60.6411-2.07812ZM69.9864-49.481C69.1948-48.3325 69.8399-46.7193 71.4648-46.7193L84.5376-46.7193C86.1289-46.7193 86.8076-48.3325 86.001-49.481L79.6767-58.9687C79.2339-59.6406 78.69-59.9404 77.9844-59.9404C77.3125-59.9404 76.7686-59.6406 76.3257-58.9687ZM82.2788-2.07812C80.4082-4.55321 79.7397-6.11229 79.7397-8.89549C79.7397-15.5767 86.0386-19.4722 86.0386-28.127C86.0386-35.8794 80.2261-37.9014 80.2261-47.1338L80.2261-48.7568L75.7427-48.7568L75.7427-47.1338C75.7427-35.6396 81.5737-34.1919 81.5737-28.127C81.5737-20.4844 75.2749-17.1362 75.2749-8.59226C75.2749-4.96728 76.4248-2.29833 78.6763 0.56105C80.5356 2.94924 84.2393 0.530777 82.2788-2.07812Z"/>
  </g>
  <g id="Thin-S" transform="matrix(1 0 0 1 800.924 696)">
   <path d="M20.3184-24.1426L90.6797-24.1426C97.6583-24.1426 101.232-27.8086 101.232-34.6406L101.232-63.6387C101.232-70.4707 97.6583-74.1504 90.6797-74.1504L20.3184-74.1504C13.3887-74.1504 9.76562-70.5411 9.76562-63.6387L9.76562-34.6406C9.76562-27.7383 13.3887-24.1426 20.3184-24.1426ZM20.416-27.4473C15.5996-27.4473 13.0703-29.9492 13.0703-34.8203L13.0703-63.4726C13.0703-68.3301 15.5996-70.832 20.416-70.832L90.5821-70.832C95.2578-70.832 97.9629-68.3301 97.9629-63.4726L97.9629-34.8203C97.9629-29.9492 95.2578-27.4473 90.5821-27.4473ZM26.3984-50.0215C25.7656-49.0332 26.2656-47.7403 27.6153-47.7403L40.3477-47.7403C41.7188-47.7403 42.2324-49.0332 41.5859-50.0215L35.3731-59.5293C35.0039-60.1211 34.5801-60.3007 33.9746-60.3007C33.3691-60.3007 32.959-60.1211 32.6113-59.5293ZM37.1679-3.59959C35.2774-6.05466 34.6289-7.6738 34.6289-10.457C34.6289-16.998 40.9277-21.6542 40.9277-29.8086C40.9277-36.9004 35.4356-39.1426 35.4356-47.7344L35.4356-49.4375L32.5137-49.4375L32.5137-47.7344C32.5137-37.4414 38.0058-35.6933 38.0058-29.8086C38.0058-22.3261 31.707-18.0371 31.707-10.3339C31.707-6.62888 32.9356-4.24021 34.8066-1.8613C36.0606-0.25386 38.4277-1.93161 37.1679-3.59959ZM47.9297-50.0215C47.2832-49.0332 47.7969-47.7403 49.1328-47.7403L61.8653-47.7403C63.25-47.7403 63.7148-49.0332 63.1172-50.0215L56.9044-59.5293C56.5215-60.1211 56.0977-60.3007 55.5059-60.3007C54.9004-60.3007 54.4766-60.1211 54.0938-59.5293ZM58.6992-3.59959C56.8086-6.05466 56.1602-7.6738 56.1602-10.457C56.1602-16.998 62.459-21.6542 62.459-29.8086C62.459-36.9004 56.9669-39.1426 56.9669-47.7344L56.9669-49.4375L54.045-49.4375L54.045-47.7344C54.045-37.4414 59.5371-35.6933 59.5371-29.8086C59.5371-22.3261 53.2383-18.0371 53.2383-10.3339C53.2383-6.62888 54.4531-4.24021 56.3242-1.8613C57.5781-0.25386 59.959-1.93161 58.6992-3.59959ZM69.4258-50.0215C68.8144-49.0332 69.2793-47.7403 70.6641-47.7403L83.3965-47.7403C84.7676-47.7403 85.2461-49.0332 84.5996-50.0215L78.4355-59.5293C78.0528-60.1211 77.6289-60.3007 77.0235-60.3007C76.4317-60.3007 76.0079-60.1211 75.625-59.5293ZM80.2168-3.59959C78.3262-6.05466 77.6777-7.6738 77.6777-10.457C77.6777-16.998 83.9766-21.6542 83.9766-29.8086C83.9766-36.9004 78.4844-39.1426 78.4844-47.7344L78.4844-49.4375L75.5625-49.4375L75.5625-47.7344C75.5625-37.4414 81.0332-35.6933 81.0332-29.8086C81.0332-22.3261 74.7344-18.0371 74.7344-10.3339C74.7344-6.62888 75.9844-4.24021 77.8555-1.8613C79.0742-0.25386 81.4766-1.93161 80.2168-3.59959Z"/>
  </g>
  <g id="Ultralight-S" transform="matrix(1 0 0 1 504.638 696)">
   <path d="M19.7647-24.6758L90.3823-24.6758C96.961-24.6758 100.381-28.229 100.381-34.6611L100.381-63.7002C100.381-70.1323 96.961-73.689 90.3823-73.689L19.7647-73.689C13.2349-73.689 9.76562-70.2232 9.76562-63.7002L9.76562-34.6611C9.76562-28.1382 13.2349-24.6758 19.7647-24.6758ZM19.8623-26.8936C14.6665-26.8936 11.9834-29.5698 11.9834-34.7793L11.9834-63.5854C11.9834-68.7915 14.6665-71.4678 19.8623-71.4678L90.2847-71.4678C95.2988-71.4678 98.209-68.7915 98.209-63.5854L98.209-34.7793C98.209-29.5698 95.2988-26.8936 90.2847-26.8936ZM26.2651-50.2983C25.7041-49.3921 26.1221-48.2632 27.3384-48.2632L39.8965-48.2632C41.1548-48.2632 41.5762-49.3921 41.0117-50.2983L34.8809-59.8164C34.5322-60.3672 34.1699-60.4853 33.6157-60.4853C33.0615-60.4853 32.7026-60.3672 32.396-59.8164ZM36.2451-4.37888C34.3443-6.8237 33.7061-8.4736 33.7061-11.2568C33.7061-17.726 40.0049-22.7719 40.0049-30.6699C40.0049-37.4233 34.6768-39.7783 34.6768-48.042L34.6768-49.7861L32.5547-49.7861L32.5547-48.042C32.5547-38.3642 37.8828-36.4624 37.8828-30.6699C37.8828-23.2695 31.584-18.4985 31.584-11.226C31.584-7.47995 32.8433-5.23483 34.5195-3.10201C35.4556-1.89447 37.146-3.19283 36.2451-4.37888ZM47.7246-50.2983C47.1602-49.3921 47.5816-48.2632 48.7944-48.2632L61.3526-48.2632C62.6143-48.2632 62.9868-49.3921 62.4712-50.2983L56.3404-59.8164C55.9883-60.3672 55.626-60.4853 55.0752-60.4853C54.521-60.4853 54.1587-60.3672 53.8067-59.8164ZM57.7046-4.37888C55.8037-6.8237 55.1656-8.4736 55.1656-11.2568C55.1656-17.726 61.4644-22.7719 61.4644-30.6699C61.4644-37.4233 56.1363-39.7783 56.1363-48.042L56.1363-49.7861L54.0142-49.7861L54.0142-48.042C54.0142-38.3642 59.3423-36.4624 59.3423-30.6699C59.3423-23.2695 53.0435-18.4985 53.0435-11.226C53.0435-7.47995 54.2993-5.23483 55.9756-3.10201C56.9116-1.89447 58.6055-3.19283 57.7046-4.37888ZM69.1387-50.2983C68.6196-49.3921 68.9922-48.2632 70.2539-48.2632L82.812-48.2632C84.0703-48.2632 84.4463-49.3921 83.8819-50.2983L77.7998-59.8164C77.4478-60.3672 77.0855-60.4853 76.5313-60.4853C75.9805-60.4853 75.6182-60.3672 75.2661-59.8164ZM79.1607-4.37888C77.2598-6.8237 76.6216-8.4736 76.6216-11.2568C76.6216-17.726 82.9204-22.7719 82.9204-30.6699C82.9204-37.4233 77.5923-39.7783 77.5923-48.042L77.5923-49.7861L75.4702-49.7861L75.4702-48.042C75.4702-38.3642 80.7564-36.4624 80.7564-30.6699C80.7564-23.2695 74.4575-18.4985 74.4575-11.226C74.4575-7.47995 75.7588-5.23483 77.4351-3.10201C78.3257-1.89447 80.0616-3.19283 79.1607-4.37888Z"/>
  </g>
 </g>
</svg>
